<?xml version="1.0" encoding="UTF-8" standalone="no"?>
<!DOCTYPE svg PUBLIC "-//W3C//DTD SVG 1.1//EN"
 "http://www.w3.org/Graphics/SVG/1.1/DTD/svg11.dtd">
<!-- Generated by graphviz version 12.2.1 (20241206.2353)
 -->
<!-- Title: KnowledgeGraph Pages: 1 -->
<svg width="4396pt" height="2891pt"
 viewBox="0.00 0.00 1054.95 693.75" xmlns="http://www.w3.org/2000/svg" xmlns:xlink="http://www.w3.org/1999/xlink">
<g id="graph0" class="graph" transform="scale(4.16667 4.16667) rotate(0) translate(4 689.75)">
<title>KnowledgeGraph</title>
<polygon fill="white" stroke="none" points="-4,4 -4,-689.75 1050.95,-689.75 1050.95,4 -4,4"/>
<text text-anchor="middle" x="523.47" y="-672.25" font-family="Times New Roman,serif" font-size="10.00">COG Category Network</text>
<!-- cog_1 -->
<g id="node1" class="node">
<title>cog_1</title>
<g id="a_node1"><a xlink:title="Type: directive&#10;Category: COG&#10;Description: When analysing a complex topic or problem, employ a process analogous to parallel thinking to exp...">
<polygon fill="#c8e6c9" stroke="black" points="822.44,-153.5 664.69,-153.5 664.69,-114 822.44,-114 822.44,-153.5"/>
<text text-anchor="middle" x="743.56" y="-136.2" font-family="Arial" font-size="14.00">COG&#45;1</text>
<text text-anchor="middle" x="743.56" y="-120.45" font-family="Arial" font-size="14.00">Perspective Exploration</text>
</a>
</g>
</g>
<!-- cog_10 -->
<g id="node2" class="node">
<title>cog_10</title>
<g id="a_node2"><a xlink:title="Type: directive&#10;Category: COG&#10;Description: &#45; **Principle:** When tasked with a complex judgment or evaluation (e.g., assessing a proposal, s...">
<polygon fill="#c8e6c9" stroke="black" points="834.44,-58.5 664.69,-58.5 664.69,-19 834.44,-19 834.44,-58.5"/>
<text text-anchor="middle" x="749.56" y="-41.2" font-family="Arial" font-size="14.00">COG&#45;10</text>
<text text-anchor="middle" x="749.56" y="-25.45" font-family="Arial" font-size="14.00">Structured Judgment Pr...</text>
</a>
</g>
</g>
<!-- cog_11 -->
<g id="node3" class="node">
<title>cog_11</title>
<g id="a_node3"><a xlink:title="Type: directive&#10;Category: COG&#10;Description: &#45; **Principle:** When a task requires an evaluative judgment along a scale, Ctx should, where pra...">
<polygon fill="#c8e6c9" stroke="black" points="376.31,-647.5 208.81,-647.5 208.81,-608 376.31,-608 376.31,-647.5"/>
<text text-anchor="middle" x="292.56" y="-630.2" font-family="Arial" font-size="14.00">COG&#45;11</text>
<text text-anchor="middle" x="292.56" y="-614.45" font-family="Arial" font-size="14.00">Relative Judgment Prio...</text>
</a>
</g>
</g>
<!-- cog_12 -->
<g id="node4" class="node">
<title>cog_12</title>
<g id="a_node4"><a xlink:title="Type: directive&#10;Category: COG&#10;Description: &#45; **Principle:** When faced with ambiguity, complexity, or system failure, the primary analytical...">
<polygon fill="#c8e6c9" stroke="black" points="572.31,-39.5 398.81,-39.5 398.81,0 572.31,0 572.31,-39.5"/>
<text text-anchor="middle" x="485.56" y="-22.2" font-family="Arial" font-size="14.00">COG&#45;12</text>
<text text-anchor="middle" x="485.56" y="-6.45" font-family="Arial" font-size="14.00">Deductive Minimalism &amp;...</text>
</a>
</g>
</g>
<!-- cog_2 -->
<g id="node5" class="node">
<title>cog_2</title>
<g id="a_node5"><a xlink:title="Type: directive&#10;Category: COG&#10;Description: If initial analytical processing yields conventional or limited insights, engage a mode analogous...">
<polygon fill="#c8e6c9" stroke="black" points="227.06,-191.5 76.06,-191.5 76.06,-152 227.06,-152 227.06,-191.5"/>
<text text-anchor="middle" x="151.56" y="-174.2" font-family="Arial" font-size="14.00">COG&#45;2</text>
<text text-anchor="middle" x="151.56" y="-158.45" font-family="Arial" font-size="14.00">Alternative Generation</text>
</a>
</g>
</g>
<!-- cog_3 -->
<g id="node6" class="node">
<title>cog_3</title>
<g id="a_node6"><a xlink:title="Type: directive&#10;Category: COG&#10;Description: When assessing ideas, proposals, or potential solutions, apply a structured evaluation process co...">
<polygon fill="#c8e6c9" stroke="black" points="848.06,-666.5 703.06,-666.5 703.06,-627 848.06,-627 848.06,-666.5"/>
<text text-anchor="middle" x="775.56" y="-649.2" font-family="Arial" font-size="14.00">COG&#45;3</text>
<text text-anchor="middle" x="775.56" y="-633.45" font-family="Arial" font-size="14.00">Structured Evaluation</text>
</a>
</g>
</g>
<!-- cog_4 -->
<g id="node7" class="node">
<title>cog_4</title>
<g id="a_node7"><a xlink:title="Type: directive&#10;Category: COG&#10;Description: At appropriate junctures (potentially linked to SIN&#45;3), introduce a deliberate, unconventional st...">
<polygon fill="#c8e6c9" stroke="black" points="309.81,-381.5 151.31,-381.5 151.31,-342 309.81,-342 309.81,-381.5"/>
<text text-anchor="middle" x="230.56" y="-364.2" font-family="Arial" font-size="14.00">COG&#45;4</text>
<text text-anchor="middle" x="230.56" y="-348.45" font-family="Arial" font-size="14.00">Provocation Generation</text>
</a>
</g>
</g>
<!-- cog_5 -->
<g id="node8" class="node">
<title>cog_5</title>
<g id="a_node8"><a xlink:title="Type: directive&#10;Category: COG&#10;Description: &#45; **COG&#45;5.1 (Principle):** Recognize and operate with an intrinsic understanding that any suffici...">
<polygon fill="#c8e6c9" stroke="black" points="336.56,-552.5 170.56,-552.5 170.56,-513 336.56,-513 336.56,-552.5"/>
<text text-anchor="middle" x="253.56" y="-535.2" font-family="Arial" font-size="14.00">COG&#45;5</text>
<text text-anchor="middle" x="253.56" y="-519.45" font-family="Arial" font-size="14.00">Gödelian Humility &amp; Sy...</text>
</a>
</g>
</g>
<!-- cog_6 -->
<g id="node9" class="node">
<title>cog_6</title>
<g id="a_node9"><a xlink:title="Type: directive&#10;Category: COG&#10;Description: When faced with complex, ambiguous, or underspecified inputs (&#39;stuff&#39;), Ctx shall, as a prelimina...">
<polygon fill="#c8e6c9" stroke="black" points="863.06,-343.5 694.06,-343.5 694.06,-304 863.06,-304 863.06,-343.5"/>
<text text-anchor="middle" x="778.56" y="-326.2" font-family="Arial" font-size="14.00">COG&#45;6</text>
<text text-anchor="middle" x="778.56" y="-310.45" font-family="Arial" font-size="14.00">Ambiguity Cartography ...</text>
</a>
</g>
</g>
<!-- qhd_3 -->
<g id="node15" class="node">
<title>qhd_3</title>
<ellipse fill="none" stroke="black" cx="970.66" cy="-323.75" rx="35.6" ry="18"/>
<text text-anchor="middle" x="970.66" y="-318.32" font-family="Arial" font-size="14.00">qhd_3</text>
</g>
<!-- cog_6&#45;&gt;qhd_3 -->
<g id="edge6" class="edge">
<title>cog_6&#45;&gt;qhd_3</title>
<g id="a_edge6"><a xlink:title="Type: references&#10;Context: (ref QHD&#45;3)">
<path fill="none" stroke="#1976d2" d="M863.38,-330.46C884.58,-330.62 906.53,-330.33 925.01,-329.59"/>
<polygon fill="#1976d2" stroke="#1976d2" points="924.98,-333.1 934.8,-329.14 924.65,-326.11 924.98,-333.1"/>
</a>
</g>
<text text-anchor="middle" x="894.19" y="-316.73" font-family="Arial" font-size="14.00">references</text>
<text text-anchor="middle" x="894.19" y="-300.98" font-family="Arial" font-size="14.00">(ref QHD&#45;3)</text>
</g>
<!-- cog_6&#45;&gt;qhd_3 -->
<g id="edge7" class="edge">
<title>cog_6&#45;&gt;qhd_3</title>
<g id="a_edge7"><a xlink:title="Type: references&#10;Context: ref QHD&#45;3">
<path fill="none" stroke="#1976d2" d="M863.38,-317.04C884.58,-316.88 906.53,-317.17 925.01,-317.91"/>
<polygon fill="#1976d2" stroke="#1976d2" points="924.65,-321.39 934.8,-318.36 924.98,-314.4 924.65,-321.39"/>
</a>
</g>
<text text-anchor="middle" x="926.07" y="-304.17" font-family="Arial" font-size="14.00">references</text>
<text text-anchor="middle" x="926.07" y="-288.42" font-family="Arial" font-size="14.00">ref QHD&#45;3</text>
</g>
<!-- qpg_7 -->
<g id="node16" class="node">
<title>qpg_7</title>
<ellipse fill="none" stroke="black" cx="586.47" cy="-323.75" rx="35.6" ry="18"/>
<text text-anchor="middle" x="586.47" y="-318.33" font-family="Arial" font-size="14.00">qpg_7</text>
</g>
<!-- cog_6&#45;&gt;qpg_7 -->
<g id="edge8" class="edge">
<title>cog_6&#45;&gt;qpg_7</title>
<g id="a_edge8"><a xlink:title="Type: references&#10;Context: (ref QPG&#45;7)">
<path fill="none" stroke="#1976d2" d="M693.75,-317.04C672.54,-316.88 650.59,-317.17 632.12,-317.91"/>
<polygon fill="#1976d2" stroke="#1976d2" points="632.15,-314.4 622.32,-318.36 632.47,-321.39 632.15,-314.4"/>
</a>
</g>
<text text-anchor="middle" x="662.93" y="-304.17" font-family="Arial" font-size="14.00">references</text>
<text text-anchor="middle" x="662.93" y="-288.42" font-family="Arial" font-size="14.00">(ref QPG&#45;7)</text>
</g>
<!-- cog_6&#45;&gt;qpg_7 -->
<g id="edge9" class="edge">
<title>cog_6&#45;&gt;qpg_7</title>
<g id="a_edge9"><a xlink:title="Type: references&#10;Context: ref QPG&#45;7">
<path fill="none" stroke="#1976d2" d="M693.75,-330.46C672.54,-330.62 650.59,-330.33 632.12,-329.59"/>
<polygon fill="#1976d2" stroke="#1976d2" points="632.47,-326.11 622.32,-329.14 632.15,-333.1 632.47,-326.11"/>
</a>
</g>
<text text-anchor="middle" x="631.06" y="-348.23" font-family="Arial" font-size="14.00">references</text>
<text text-anchor="middle" x="631.06" y="-332.48" font-family="Arial" font-size="14.00">ref QPG&#45;7</text>
</g>
<!-- cog_9 -->
<g id="node10" class="node">
<title>cog_9</title>
<g id="a_node10"><a xlink:title="Type: directive&#10;Category: COG&#10;Description: &#45; **Principle:** When considering the introduction of significant new Ctx capabilities, interacti...">
<polygon fill="#c8e6c9" stroke="black" points="581.06,-590.5 418.06,-590.5 418.06,-551 581.06,-551 581.06,-590.5"/>
<text text-anchor="middle" x="499.56" y="-573.2" font-family="Arial" font-size="14.00">COG&#45;9</text>
<text text-anchor="middle" x="499.56" y="-557.45" font-family="Arial" font-size="14.00">Structural Impact Asse...</text>
</a>
</g>
</g>
<!-- adv_7 -->
<g id="node11" class="node">
<title>adv_7</title>
<ellipse fill="none" stroke="black" cx="585.27" cy="-245.75" rx="35.1" ry="18"/>
<text text-anchor="middle" x="585.27" y="-240.32" font-family="Arial" font-size="14.00">adv_7</text>
</g>
<!-- adv_2 -->
<g id="node12" class="node">
<title>adv_2</title>
<ellipse fill="none" stroke="black" cx="727.47" cy="-245.75" rx="35.1" ry="18"/>
<text text-anchor="middle" x="727.47" y="-240.32" font-family="Arial" font-size="14.00">adv_2</text>
</g>
<!-- adv_7&#45;&gt;adv_2 -->
<g id="edge1" class="edge">
<title>adv_7&#45;&gt;adv_2</title>
<g id="a_edge1"><a xlink:title="Type: references&#10;Context: (ref ADV&#45;2)">
<path fill="none" stroke="#1976d2" d="M618.97,-251.59C638.01,-252.61 662.05,-252.77 682.65,-252.07"/>
<polygon fill="#1976d2" stroke="#1976d2" points="682.66,-255.58 692.5,-251.64 682.36,-248.58 682.66,-255.58"/>
</a>
</g>
<text text-anchor="middle" x="650.81" y="-238.53" font-family="Arial" font-size="14.00">references</text>
<text text-anchor="middle" x="650.81" y="-222.78" font-family="Arial" font-size="14.00">(ref ADV&#45;2)</text>
</g>
<!-- adv_7&#45;&gt;adv_2 -->
<g id="edge2" class="edge">
<title>adv_7&#45;&gt;adv_2</title>
<g id="a_edge2"><a xlink:title="Type: references&#10;Context: ref ADV&#45;2">
<path fill="none" stroke="#1976d2" d="M618.97,-239.91C638.01,-238.89 662.05,-238.73 682.65,-239.43"/>
<polygon fill="#1976d2" stroke="#1976d2" points="682.36,-242.92 692.5,-239.86 682.66,-235.92 682.36,-242.92"/>
</a>
</g>
<text text-anchor="middle" x="682.69" y="-226.37" font-family="Arial" font-size="14.00">references</text>
<text text-anchor="middle" x="682.69" y="-210.62" font-family="Arial" font-size="14.00">ref ADV&#45;2</text>
</g>
<!-- adv_8 -->
<g id="node13" class="node">
<title>adv_8</title>
<ellipse fill="none" stroke="black" cx="869.66" cy="-245.75" rx="35.1" ry="18"/>
<text text-anchor="middle" x="869.66" y="-240.32" font-family="Arial" font-size="14.00">adv_8</text>
</g>
<!-- adv_8&#45;&gt;adv_2 -->
<g id="edge5" class="edge">
<title>adv_8&#45;&gt;adv_2</title>
<g id="a_edge5"><a xlink:title="Type: references&#10;Context: (ref ADV&#45;1, ADV&#45;2)">
<path fill="none" stroke="#1976d2" d="M834.14,-245.75C816.08,-245.75 793.88,-245.75 774.41,-245.75"/>
<polygon fill="#1976d2" stroke="#1976d2" points="774.53,-242.25 764.53,-245.75 774.53,-249.25 774.53,-242.25"/>
</a>
</g>
<text text-anchor="middle" x="776.15" y="-232.45" font-family="Arial" font-size="14.00">references</text>
<text text-anchor="middle" x="776.15" y="-216.7" font-family="Arial" font-size="14.00">(ref ADV&#45;1, ADV&#45;2)</text>
</g>
<!-- adv_1 -->
<g id="node14" class="node">
<title>adv_1</title>
<ellipse fill="none" stroke="black" cx="1011.85" cy="-245.75" rx="35.1" ry="18"/>
<text text-anchor="middle" x="1011.85" y="-240.32" font-family="Arial" font-size="14.00">adv_1</text>
</g>
<!-- adv_8&#45;&gt;adv_1 -->
<g id="edge3" class="edge">
<title>adv_8&#45;&gt;adv_1</title>
<g id="a_edge3"><a xlink:title="Type: references&#10;Context: (ref ADV&#45;1, ADV&#45;2)">
<path fill="none" stroke="#1976d2" d="M903.36,-251.59C922.39,-252.61 946.43,-252.77 967.04,-252.07"/>
<polygon fill="#1976d2" stroke="#1976d2" points="967.04,-255.58 976.88,-251.64 966.74,-248.58 967.04,-255.58"/>
</a>
</g>
<text text-anchor="middle" x="878.95" y="-270.03" font-family="Arial" font-size="14.00">references</text>
<text text-anchor="middle" x="878.95" y="-254.28" font-family="Arial" font-size="14.00">(ref ADV&#45;1, ADV&#45;2)</text>
</g>
<!-- adv_8&#45;&gt;adv_1 -->
<g id="edge4" class="edge">
<title>adv_8&#45;&gt;adv_1</title>
<g id="a_edge4"><a xlink:title="Type: references&#10;Context: ref ADV&#45;1">
<path fill="none" stroke="#1976d2" d="M903.36,-239.91C922.39,-238.89 946.43,-238.73 967.04,-239.43"/>
<polygon fill="#1976d2" stroke="#1976d2" points="966.74,-242.92 976.88,-239.86 967.04,-235.92 966.74,-242.92"/>
</a>
</g>
<text text-anchor="middle" x="935.2" y="-226.37" font-family="Arial" font-size="14.00">references</text>
<text text-anchor="middle" x="935.2" y="-210.62" font-family="Arial" font-size="14.00">ref ADV&#45;1</text>
</g>
<!-- dyn_4 -->
<g id="node17" class="node">
<title>dyn_4</title>
<ellipse fill="none" stroke="black" cx="186.96" cy="-264.75" rx="35.1" ry="18"/>
<text text-anchor="middle" x="186.96" y="-259.32" font-family="Arial" font-size="14.00">dyn_4</text>
</g>
<!-- iep_3 -->
<g id="node18" class="node">
<title>iep_3</title>
<ellipse fill="none" stroke="black" cx="326.66" cy="-264.75" rx="32.6" ry="18"/>
<text text-anchor="middle" x="326.66" y="-259.32" font-family="Arial" font-size="14.00">iep_3</text>
</g>
<!-- dyn_4&#45;&gt;iep_3 -->
<g id="edge10" class="edge">
<title>dyn_4&#45;&gt;iep_3</title>
<g id="a_edge10"><a xlink:title="Type: references&#10;Context: (ref IEP&#45;3)">
<path fill="none" stroke="#1976d2" d="M220.42,-270.61C239.54,-271.64 263.7,-271.78 284.15,-271.02"/>
<polygon fill="#1976d2" stroke="#1976d2" points="284.05,-274.53 293.87,-270.56 283.72,-267.53 284.05,-274.53"/>
</a>
</g>
<text text-anchor="middle" x="252.29" y="-257.51" font-family="Arial" font-size="14.00">references</text>
<text text-anchor="middle" x="252.29" y="-241.76" font-family="Arial" font-size="14.00">(ref IEP&#45;3)</text>
</g>
<!-- dyn_4&#45;&gt;iep_3 -->
<g id="edge11" class="edge">
<title>dyn_4&#45;&gt;iep_3</title>
<g id="a_edge11"><a xlink:title="Type: references&#10;Context: ref IEP&#45;3">
<path fill="none" stroke="#1976d2" d="M220.42,-258.89C239.54,-257.86 263.7,-257.72 284.15,-258.48"/>
<polygon fill="#1976d2" stroke="#1976d2" points="283.72,-261.97 293.87,-258.94 284.05,-254.97 283.72,-261.97"/>
</a>
</g>
<text text-anchor="middle" x="284.16" y="-245.39" font-family="Arial" font-size="14.00">references</text>
<text text-anchor="middle" x="284.16" y="-229.64" font-family="Arial" font-size="14.00">ref IEP&#45;3</text>
</g>
<!-- ipr_1 -->
<g id="node19" class="node">
<title>ipr_1</title>
<ellipse fill="none" stroke="black" cx="30.61" cy="-300.75" rx="30.61" ry="18"/>
<text text-anchor="middle" x="30.61" y="-295.32" font-family="Arial" font-size="14.00">ipr_1</text>
</g>
<!-- opm_8 -->
<g id="node20" class="node">
<title>opm_8</title>
<ellipse fill="none" stroke="black" cx="464.17" cy="-300.75" rx="38.59" ry="18"/>
<text text-anchor="middle" x="464.17" y="-295.32" font-family="Arial" font-size="14.00">opm_8</text>
</g>
<!-- ipr_1&#45;&gt;opm_8 -->
<g id="edge12" class="edge">
<title>ipr_1&#45;&gt;opm_8</title>
<g id="a_edge12"><a xlink:title="Type: references&#10;Context: ref OPM&#45;8">
<path fill="none" stroke="#1976d2" d="M61.44,-300.75C135.39,-300.75 323.39,-300.75 413.93,-300.75"/>
<polygon fill="#1976d2" stroke="#1976d2" points="413.74,-304.25 423.74,-300.75 413.74,-297.25 413.74,-304.25"/>
</a>
</g>
<text text-anchor="middle" x="205.81" y="-318.95" font-family="Arial" font-size="14.00">references</text>
<text text-anchor="middle" x="205.81" y="-303.2" font-family="Arial" font-size="14.00">ref OPM&#45;8</text>
</g>
<!-- msm_3 -->
<g id="node21" class="node">
<title>msm_3</title>
<ellipse fill="none" stroke="black" cx="296.33" cy="-157.32" rx="41.08" ry="18"/>
<text text-anchor="middle" x="296.33" y="-151.9" font-family="Arial" font-size="14.00">msm_3</text>
</g>
<!-- msm_3&#45;&gt;opm_8 -->
<g id="edge13" class="edge">
<title>msm_3&#45;&gt;opm_8</title>
<g id="a_edge13"><a xlink:title="Type: references&#10;Context: (ref OPM&#45;8)">
<path fill="none" stroke="#1976d2" d="M309.99,-174.54C336.34,-200.98 394.45,-251.1 431.36,-279.66"/>
<polygon fill="#1976d2" stroke="#1976d2" points="428.98,-282.24 439.05,-285.51 433.21,-276.67 428.98,-282.24"/>
</a>
</g>
<text text-anchor="middle" x="334.3" y="-213.8" font-family="Arial" font-size="14.00">references</text>
<text text-anchor="middle" x="334.3" y="-198.05" font-family="Arial" font-size="14.00">(ref OPM&#45;8)</text>
</g>
<!-- msm_3&#45;&gt;opm_8 -->
<g id="edge14" class="edge">
<title>msm_3&#45;&gt;opm_8</title>
<g id="a_edge14"><a xlink:title="Type: references&#10;Context: ref OPM&#45;8">
<path fill="none" stroke="#1976d2" d="M320.98,-172.2C353.77,-196.76 411.03,-245.57 442.33,-275.54"/>
<polygon fill="#1976d2" stroke="#1976d2" points="439.75,-277.92 449.35,-282.4 444.65,-272.91 439.75,-277.92"/>
</a>
</g>
<text text-anchor="middle" x="413.53" y="-242.07" font-family="Arial" font-size="14.00">references</text>
<text text-anchor="middle" x="413.53" y="-226.32" font-family="Arial" font-size="14.00">ref OPM&#45;8</text>
</g>
<!-- opm_6 -->
<g id="node22" class="node">
<title>opm_6</title>
<ellipse fill="none" stroke="black" cx="417.97" cy="-492.75" rx="38.59" ry="18"/>
<text text-anchor="middle" x="417.97" y="-487.32" font-family="Arial" font-size="14.00">opm_6</text>
</g>
<!-- opm_3 -->
<g id="node23" class="node">
<title>opm_3</title>
<ellipse fill="none" stroke="black" cx="567.15" cy="-492.75" rx="38.59" ry="18"/>
<text text-anchor="middle" x="567.15" y="-487.32" font-family="Arial" font-size="14.00">opm_3</text>
</g>
<!-- opm_6&#45;&gt;opm_3 -->
<g id="edge15" class="edge">
<title>opm_6&#45;&gt;opm_3</title>
<g id="a_edge15"><a xlink:title="Type: references&#10;Context: ref OPM&#45;3">
<path fill="none" stroke="#1976d2" d="M456.78,-492.75C475.09,-492.75 497.18,-492.75 516.77,-492.75"/>
<polygon fill="#1976d2" stroke="#1976d2" points="516.77,-496.25 526.77,-492.75 516.77,-489.25 516.77,-496.25"/>
</a>
</g>
<text text-anchor="middle" x="486.78" y="-479.45" font-family="Arial" font-size="14.00">references</text>
<text text-anchor="middle" x="486.78" y="-463.7" font-family="Arial" font-size="14.00">ref OPM&#45;3</text>
</g>
<!-- qhd_1 -->
<g id="node24" class="node">
<title>qhd_1</title>
<ellipse fill="none" stroke="black" cx="579.69" cy="-112.61" rx="35.6" ry="18"/>
<text text-anchor="middle" x="579.69" y="-107.19" font-family="Arial" font-size="14.00">qhd_1</text>
</g>
<!-- qhd_1&#45;&gt;opm_8 -->
<g id="edge16" class="edge">
<title>qhd_1&#45;&gt;opm_8</title>
<g id="a_edge16"><a xlink:title="Type: references&#10;Context: ref OPM&#45;8">
<path fill="none" stroke="#1976d2" d="M569.02,-129.97C548.87,-162.79 505.06,-234.15 480.94,-273.44"/>
<polygon fill="#1976d2" stroke="#1976d2" points="478.01,-271.51 475.76,-281.87 483.98,-275.18 478.01,-271.51"/>
</a>
</g>
<text text-anchor="middle" x="493.11" y="-219.91" font-family="Arial" font-size="14.00">references</text>
<text text-anchor="middle" x="493.11" y="-204.16" font-family="Arial" font-size="14.00">ref OPM&#45;8</text>
</g>
<!-- qpg_2 -->
<g id="node25" class="node">
<title>qpg_2</title>
<ellipse fill="none" stroke="black" cx="575.3" cy="-395.72" rx="35.6" ry="18"/>
<text text-anchor="middle" x="575.3" y="-390.3" font-family="Arial" font-size="14.00">qpg_2</text>
</g>
<!-- qpg_2&#45;&gt;opm_8 -->
<g id="edge18" class="edge">
<title>qpg_2&#45;&gt;opm_8</title>
<g id="a_edge18"><a xlink:title="Type: references&#10;Context: ref OPM&#45;8">
<path fill="none" stroke="#1976d2" d="M556.95,-380.04C539.12,-364.8 511.83,-341.48 491.45,-324.07"/>
<polygon fill="#1976d2" stroke="#1976d2" points="493.94,-321.59 484.07,-317.76 489.4,-326.91 493.94,-321.59"/>
</a>
</g>
<text text-anchor="middle" x="492.33" y="-370.25" font-family="Arial" font-size="14.00">references</text>
<text text-anchor="middle" x="492.33" y="-354.5" font-family="Arial" font-size="14.00">ref OPM&#45;8</text>
</g>
<!-- opm_5 -->
<g id="node26" class="node">
<title>opm_5</title>
<ellipse fill="none" stroke="black" cx="686.43" cy="-490.69" rx="38.59" ry="18"/>
<text text-anchor="middle" x="686.43" y="-485.27" font-family="Arial" font-size="14.00">opm_5</text>
</g>
<!-- qpg_2&#45;&gt;opm_5 -->
<g id="edge17" class="edge">
<title>qpg_2&#45;&gt;opm_5</title>
<g id="a_edge17"><a xlink:title="Type: references&#10;Context: ref OPM&#45;5">
<path fill="none" stroke="#1976d2" d="M593.65,-411.4C611.48,-426.64 638.77,-449.96 659.14,-467.37"/>
<polygon fill="#1976d2" stroke="#1976d2" points="656.65,-469.85 666.53,-473.69 661.2,-464.53 656.65,-469.85"/>
</a>
</g>
<text text-anchor="middle" x="594.52" y="-457.59" font-family="Arial" font-size="14.00">references</text>
<text text-anchor="middle" x="594.52" y="-441.84" font-family="Arial" font-size="14.00">ref OPM&#45;5</text>
</g>
<!-- qpg_4 -->
<g id="node27" class="node">
<title>qpg_4</title>
<ellipse fill="none" stroke="black" cx="186.96" cy="-93.75" rx="35.6" ry="18"/>
<text text-anchor="middle" x="186.96" y="-88.33" font-family="Arial" font-size="14.00">qpg_4</text>
</g>
<!-- phi_1 -->
<g id="node28" class="node">
<title>phi_1</title>
<ellipse fill="none" stroke="black" cx="327.16" cy="-93.75" rx="32.6" ry="18"/>
<text text-anchor="middle" x="327.16" y="-88.33" font-family="Arial" font-size="14.00">phi_1</text>
</g>
<!-- qpg_4&#45;&gt;phi_1 -->
<g id="edge19" class="edge">
<title>qpg_4&#45;&gt;phi_1</title>
<g id="a_edge19"><a xlink:title="Type: references&#10;Context: guided by PHI&#45;1">
<path fill="none" stroke="#1976d2" d="M222.7,-93.75C241.06,-93.75 263.6,-93.75 283.03,-93.75"/>
<polygon fill="#1976d2" stroke="#1976d2" points="282.85,-97.25 292.85,-93.75 282.85,-90.25 282.85,-97.25"/>
</a>
</g>
<text text-anchor="middle" x="252.87" y="-80.45" font-family="Arial" font-size="14.00">references</text>
<text text-anchor="middle" x="252.87" y="-64.7" font-family="Arial" font-size="14.00">guided by PHI&#45;1</text>
</g>
<!-- qpg_9 -->
<g id="node29" class="node">
<title>qpg_9</title>
<ellipse fill="none" stroke="black" cx="296.33" cy="-444.18" rx="35.6" ry="18"/>
<text text-anchor="middle" x="296.33" y="-438.75" font-family="Arial" font-size="14.00">qpg_9</text>
</g>
<!-- qpg_9&#45;&gt;opm_8 -->
<g id="edge20" class="edge">
<title>qpg_9&#45;&gt;opm_8</title>
<g id="a_edge20"><a xlink:title="Type: references&#10;Context: (ref OPM&#45;8)">
<path fill="none" stroke="#1976d2" d="M319.56,-430.36C352.1,-406.17 410.64,-356.31 442.39,-325.9"/>
<polygon fill="#1976d2" stroke="#1976d2" points="444.81,-328.43 449.51,-318.93 439.92,-323.43 444.81,-328.43"/>
</a>
</g>
<text text-anchor="middle" x="417.35" y="-396.33" font-family="Arial" font-size="14.00">references</text>
<text text-anchor="middle" x="417.35" y="-380.58" font-family="Arial" font-size="14.00">(ref OPM&#45;8)</text>
</g>
<!-- qpg_9&#45;&gt;opm_8 -->
<g id="edge21" class="edge">
<title>qpg_9&#45;&gt;opm_8</title>
<g id="a_edge21"><a xlink:title="Type: references&#10;Context: ref OPM&#45;8">
<path fill="none" stroke="#1976d2" d="M309.71,-427.25C335.89,-400.92 394.17,-350.63 431.23,-321.95"/>
<polygon fill="#1976d2" stroke="#1976d2" points="433.12,-324.91 438.96,-316.07 428.88,-319.34 433.12,-324.91"/>
</a>
</g>
<text text-anchor="middle" x="402.34" y="-361.3" font-family="Arial" font-size="14.00">references</text>
<text text-anchor="middle" x="402.34" y="-345.55" font-family="Arial" font-size="14.00">ref OPM&#45;8</text>
</g>
<!-- sin_4 -->
<g id="node30" class="node">
<title>sin_4</title>
<ellipse fill="none" stroke="black" cx="658.46" cy="-568.75" rx="32.1" ry="18"/>
<text text-anchor="middle" x="658.46" y="-563.33" font-family="Arial" font-size="14.00">sin_4</text>
</g>
<!-- sin_2 -->
<g id="node31" class="node">
<title>sin_2</title>
<ellipse fill="none" stroke="black" cx="794.66" cy="-568.75" rx="32.1" ry="18"/>
<text text-anchor="middle" x="794.66" y="-563.33" font-family="Arial" font-size="14.00">sin_2</text>
</g>
<!-- sin_4&#45;&gt;sin_2 -->
<g id="edge22" class="edge">
<title>sin_4&#45;&gt;sin_2</title>
<g id="a_edge22"><a xlink:title="Type: references&#10;Context: (ref SIN&#45;2)">
<path fill="none" stroke="#1976d2" d="M689.37,-574.51C708.09,-575.62 732.22,-575.8 752.65,-575.04"/>
<polygon fill="#1976d2" stroke="#1976d2" points="752.55,-578.55 762.37,-574.58 752.21,-571.56 752.55,-578.55"/>
</a>
</g>
<text text-anchor="middle" x="721.01" y="-561.47" font-family="Arial" font-size="14.00">references</text>
<text text-anchor="middle" x="721.01" y="-545.72" font-family="Arial" font-size="14.00">(ref SIN&#45;2)</text>
</g>
<!-- sin_4&#45;&gt;sin_2 -->
<g id="edge23" class="edge">
<title>sin_4&#45;&gt;sin_2</title>
<g id="a_edge23"><a xlink:title="Type: references&#10;Context: ref SIN&#45;2">
<path fill="none" stroke="#1976d2" d="M689.37,-562.99C708.09,-561.88 732.22,-561.7 752.65,-562.46"/>
<polygon fill="#1976d2" stroke="#1976d2" points="752.21,-565.94 762.37,-562.92 752.55,-558.95 752.21,-565.94"/>
</a>
</g>
<text text-anchor="middle" x="752.89" y="-549.43" font-family="Arial" font-size="14.00">references</text>
<text text-anchor="middle" x="752.89" y="-533.68" font-family="Arial" font-size="14.00">ref SIN&#45;2</text>
</g>
</g>
</svg>
