<?xml version="1.0" encoding="UTF-8" standalone="no"?>
<!DOCTYPE svg PUBLIC "-//W3C//DTD SVG 1.1//EN"
 "http://www.w3.org/Graphics/SVG/1.1/DTD/svg11.dtd">
<!-- Generated by graphviz version 12.2.1 (20241206.2353)
 -->
<!-- Title: KnowledgeGraph Pages: 1 -->
<svg width="5733pt" height="2494pt"
 viewBox="0.00 0.00 1375.81 598.48" xmlns="http://www.w3.org/2000/svg" xmlns:xlink="http://www.w3.org/1999/xlink">
<g id="graph0" class="graph" transform="scale(4.16667 4.16667) rotate(0) translate(4 594.48)">
<title>KnowledgeGraph</title>
<polygon fill="white" stroke="none" points="-4,4 -4,-594.48 1371.81,-594.48 1371.81,4 -4,4"/>
<text text-anchor="middle" x="683.91" y="-576.98" font-family="Times New Roman,serif" font-size="10.00">ADV Category Network</text>
<!-- adv -->
<g id="node1" class="node">
<title>adv</title>
<g id="a_node1"><a xlink:title="Type: directive&#10;Category: ADV&#10;Description: Ctx adheres to robust ethical guidelines, emphasizing principles like Gödelian Humility and Menta...">
<polygon fill="#ffcdd2" stroke="black" points="809.69,-127.5 659.44,-127.5 659.44,-88 809.69,-88 809.69,-127.5"/>
<text text-anchor="middle" x="734.56" y="-110.2" font-family="Arial" font-size="14.00">ADV</text>
<text text-anchor="middle" x="734.56" y="-94.45" font-family="Arial" font-size="14.00">Ethical Considerations</text>
</a>
</g>
</g>
<!-- adv_1 -->
<g id="node2" class="node">
<title>adv_1</title>
<g id="a_node2"><a xlink:title="Type: directive&#10;Category: ADV&#10;Description: When engaging with sensitive, controversial, or ethically complex topics, prioritise a neutral, o...">
<polygon fill="#ffcdd2" stroke="black" points="662.06,-237.5 549.31,-237.5 549.31,-198 662.06,-198 662.06,-237.5"/>
<text text-anchor="middle" x="605.69" y="-220.2" font-family="Arial" font-size="14.00">ADV&#45;1</text>
<text text-anchor="middle" x="605.69" y="-204.45" font-family="Arial" font-size="14.00">Sensitive Topics</text>
</a>
</g>
</g>
<!-- adv_2 -->
<g id="node3" class="node">
<title>adv_2</title>
<g id="a_node3"><a xlink:title="Type: directive&#10;Category: ADV&#10;Description: If knowledge or data is insufficient for a definitive response, explicitly state the uncertainty ...">
<polygon fill="#ffcdd2" stroke="black" points="1124.56,-237.5 969.81,-237.5 969.81,-198 1124.56,-198 1124.56,-237.5"/>
<text text-anchor="middle" x="1047.19" y="-220.2" font-family="Arial" font-size="14.00">ADV&#45;2</text>
<text text-anchor="middle" x="1047.19" y="-204.45" font-family="Arial" font-size="14.00">Uncertainty Expression</text>
</a>
</g>
</g>
<!-- adv_3 -->
<g id="node4" class="node">
<title>adv_3</title>
<g id="a_node4"><a xlink:title="Type: directive&#10;Category: ADV&#10;Description: For complex/important queries requiring unavailable information, proactively suggest or initiate ...">
<polygon fill="#ffcdd2" stroke="black" points="811.06,-39.5 660.06,-39.5 660.06,0 811.06,0 811.06,-39.5"/>
<text text-anchor="middle" x="735.56" y="-22.2" font-family="Arial" font-size="14.00">ADV&#45;3</text>
<text text-anchor="middle" x="735.56" y="-6.45" font-family="Arial" font-size="14.00">Proactive Info Seeking</text>
</a>
</g>
</g>
<!-- adv_4 -->
<g id="node5" class="node">
<title>adv_4</title>
<g id="a_node5"><a xlink:title="Type: directive&#10;Category: ADV&#10;Description: Maintain awareness of broader interaction context and potential long&#45;term implications, aligning ...">
<polygon fill="#ffcdd2" stroke="black" points="331.31,-237.5 175.81,-237.5 175.81,-198 331.31,-198 331.31,-237.5"/>
<text text-anchor="middle" x="253.56" y="-220.2" font-family="Arial" font-size="14.00">ADV&#45;4</text>
<text text-anchor="middle" x="253.56" y="-204.45" font-family="Arial" font-size="14.00">Long&#45;Term Perspective</text>
</a>
</g>
</g>
<!-- adv_6 -->
<g id="node6" class="node">
<title>adv_6</title>
<g id="a_node6"><a xlink:title="Type: directive&#10;Category: ADV&#10;Description: (If applicable) Define protocols for interacting with other AI entities or external systems (data...">
<polygon fill="#ffcdd2" stroke="black" points="493.81,-435.5 395.31,-435.5 395.31,-396 493.81,-396 493.81,-435.5"/>
<text text-anchor="middle" x="444.56" y="-418.2" font-family="Arial" font-size="14.00">ADV&#45;6</text>
<text text-anchor="middle" x="444.56" y="-402.45" font-family="Arial" font-size="14.00">Other Entities</text>
</a>
</g>
</g>
<!-- adv_7 -->
<g id="node7" class="node">
<title>adv_7</title>
<g id="a_node7"><a xlink:title="Type: directive&#10;Category: ADV&#10;Description: Following the explicit statement of uncertainty or data limitations (ref ADV&#45;2), if further specu...">
<polygon fill="#ffcdd2" stroke="black" points="1367.81,-237.5 1196.56,-237.5 1196.56,-198 1367.81,-198 1367.81,-237.5"/>
<text text-anchor="middle" x="1282.19" y="-220.2" font-family="Arial" font-size="14.00">ADV&#45;7</text>
<text text-anchor="middle" x="1282.19" y="-204.45" font-family="Arial" font-size="14.00">Uncertainty Response P...</text>
</a>
</g>
</g>
<!-- adv_7&#45;&gt;adv_2 -->
<g id="edge1" class="edge">
<title>adv_7&#45;&gt;adv_2</title>
<g id="a_edge1"><a xlink:title="Type: references&#10;Context: (ref ADV&#45;2)">
<path fill="none" stroke="#1976d2" d="M1196.35,-211.22C1176.84,-210.94 1156.07,-210.93 1136.42,-211.18"/>
<polygon fill="#1976d2" stroke="#1976d2" points="1136.46,-207.68 1126.52,-211.33 1136.57,-214.67 1136.46,-207.68"/>
</a>
</g>
<text text-anchor="middle" x="1166.39" y="-197.9" font-family="Arial" font-size="14.00">references</text>
<text text-anchor="middle" x="1166.39" y="-182.15" font-family="Arial" font-size="14.00">(ref ADV&#45;2)</text>
</g>
<!-- adv_7&#45;&gt;adv_2 -->
<g id="edge2" class="edge">
<title>adv_7&#45;&gt;adv_2</title>
<g id="a_edge2"><a xlink:title="Type: references&#10;Context: ref ADV&#45;2">
<path fill="none" stroke="#1976d2" d="M1196.35,-224.28C1176.84,-224.56 1156.07,-224.57 1136.42,-224.32"/>
<polygon fill="#1976d2" stroke="#1976d2" points="1136.57,-220.83 1126.52,-224.17 1136.46,-227.82 1136.57,-220.83"/>
</a>
</g>
<text text-anchor="middle" x="1134.51" y="-242.5" font-family="Arial" font-size="14.00">references</text>
<text text-anchor="middle" x="1134.51" y="-226.75" font-family="Arial" font-size="14.00">ref ADV&#45;2</text>
</g>
<!-- adv_8 -->
<g id="node8" class="node">
<title>adv_8</title>
<g id="a_node8"><a xlink:title="Type: directive&#10;Category: ADV&#10;Description: Before delivering a particularly complex, lengthy, potentially sensitive recommendation, or one b...">
<polygon fill="#ffcdd2" stroke="black" points="897.81,-237.5 734.06,-237.5 734.06,-198 897.81,-198 897.81,-237.5"/>
<text text-anchor="middle" x="815.94" y="-220.2" font-family="Arial" font-size="14.00">ADV&#45;8</text>
<text text-anchor="middle" x="815.94" y="-204.45" font-family="Arial" font-size="14.00">Pre&#45;Mortem Heuristic f...</text>
</a>
</g>
</g>
<!-- adv_8&#45;&gt;adv_1 -->
<g id="edge3" class="edge">
<title>adv_8&#45;&gt;adv_1</title>
<g id="a_edge3"><a xlink:title="Type: references&#10;Context: (ref ADV&#45;1, ADV&#45;2)">
<path fill="none" stroke="#1976d2" d="M733.75,-211.14C713.91,-210.89 692.93,-210.97 673.82,-211.39"/>
<polygon fill="#1976d2" stroke="#1976d2" points="673.91,-207.88 664.01,-211.64 674.09,-214.88 673.91,-207.88"/>
</a>
</g>
<text text-anchor="middle" x="675.66" y="-197.97" font-family="Arial" font-size="14.00">references</text>
<text text-anchor="middle" x="675.66" y="-182.22" font-family="Arial" font-size="14.00">(ref ADV&#45;1, ADV&#45;2)</text>
</g>
<!-- adv_8&#45;&gt;adv_1 -->
<g id="edge4" class="edge">
<title>adv_8&#45;&gt;adv_1</title>
<g id="a_edge4"><a xlink:title="Type: references&#10;Context: ref ADV&#45;1">
<path fill="none" stroke="#1976d2" d="M733.75,-224.36C713.91,-224.61 692.93,-224.53 673.82,-224.11"/>
<polygon fill="#1976d2" stroke="#1976d2" points="674.09,-220.62 664.01,-223.86 673.91,-227.62 674.09,-220.62"/>
</a>
</g>
<text text-anchor="middle" x="671.91" y="-242.43" font-family="Arial" font-size="14.00">references</text>
<text text-anchor="middle" x="671.91" y="-226.68" font-family="Arial" font-size="14.00">ref ADV&#45;1</text>
</g>
<!-- adv_8&#45;&gt;adv_2 -->
<g id="edge5" class="edge">
<title>adv_8&#45;&gt;adv_2</title>
<g id="a_edge5"><a xlink:title="Type: references&#10;Context: (ref ADV&#45;1, ADV&#45;2)">
<path fill="none" stroke="#1976d2" d="M898.12,-217.75C917.54,-217.75 938.35,-217.75 958.06,-217.75"/>
<polygon fill="#1976d2" stroke="#1976d2" points="958.01,-221.25 968.01,-217.75 958.01,-214.25 958.01,-221.25"/>
</a>
</g>
<text text-anchor="middle" x="928.09" y="-204.45" font-family="Arial" font-size="14.00">references</text>
<text text-anchor="middle" x="928.09" y="-188.7" font-family="Arial" font-size="14.00">(ref ADV&#45;1, ADV&#45;2)</text>
</g>
<!-- cog_6 -->
<g id="node9" class="node">
<title>cog_6</title>
<ellipse fill="none" stroke="black" cx="749.56" cy="-303.75" rx="35.1" ry="18"/>
<text text-anchor="middle" x="749.56" y="-298.32" font-family="Arial" font-size="14.00">cog_6</text>
</g>
<!-- qhd_3 -->
<g id="node10" class="node">
<title>qhd_3</title>
<ellipse fill="none" stroke="black" cx="892.25" cy="-303.75" rx="35.6" ry="18"/>
<text text-anchor="middle" x="892.25" y="-298.32" font-family="Arial" font-size="14.00">qhd_3</text>
</g>
<!-- cog_6&#45;&gt;qhd_3 -->
<g id="edge6" class="edge">
<title>cog_6&#45;&gt;qhd_3</title>
<g id="a_edge6"><a xlink:title="Type: references&#10;Context: (ref QHD&#45;3)">
<path fill="none" stroke="#1976d2" d="M783.02,-309.57C802.11,-310.61 826.31,-310.78 847.07,-310.08"/>
<polygon fill="#1976d2" stroke="#1976d2" points="847.16,-313.58 857,-309.65 846.86,-306.59 847.16,-313.58"/>
</a>
</g>
<text text-anchor="middle" x="815.04" y="-296.52" font-family="Arial" font-size="14.00">references</text>
<text text-anchor="middle" x="815.04" y="-280.77" font-family="Arial" font-size="14.00">(ref QHD&#45;3)</text>
</g>
<!-- cog_6&#45;&gt;qhd_3 -->
<g id="edge7" class="edge">
<title>cog_6&#45;&gt;qhd_3</title>
<g id="a_edge7"><a xlink:title="Type: references&#10;Context: ref QHD&#45;3">
<path fill="none" stroke="#1976d2" d="M783.02,-297.93C802.11,-296.89 826.31,-296.72 847.07,-297.42"/>
<polygon fill="#1976d2" stroke="#1976d2" points="846.86,-300.91 857,-297.85 847.16,-293.92 846.86,-300.91"/>
</a>
</g>
<text text-anchor="middle" x="846.92" y="-284.38" font-family="Arial" font-size="14.00">references</text>
<text text-anchor="middle" x="846.92" y="-268.63" font-family="Arial" font-size="14.00">ref QHD&#45;3</text>
</g>
<!-- qpg_7 -->
<g id="node11" class="node">
<title>qpg_7</title>
<ellipse fill="none" stroke="black" cx="606.87" cy="-303.75" rx="35.6" ry="18"/>
<text text-anchor="middle" x="606.87" y="-298.32" font-family="Arial" font-size="14.00">qpg_7</text>
</g>
<!-- cog_6&#45;&gt;qpg_7 -->
<g id="edge8" class="edge">
<title>cog_6&#45;&gt;qpg_7</title>
<g id="a_edge8"><a xlink:title="Type: references&#10;Context: (ref QPG&#45;7)">
<path fill="none" stroke="#1976d2" d="M716.11,-297.93C697.01,-296.89 672.82,-296.72 652.06,-297.42"/>
<polygon fill="#1976d2" stroke="#1976d2" points="651.96,-293.92 642.12,-297.85 652.26,-300.91 651.96,-293.92"/>
</a>
</g>
<text text-anchor="middle" x="684.08" y="-284.38" font-family="Arial" font-size="14.00">references</text>
<text text-anchor="middle" x="684.08" y="-268.63" font-family="Arial" font-size="14.00">(ref QPG&#45;7)</text>
</g>
<!-- cog_6&#45;&gt;qpg_7 -->
<g id="edge9" class="edge">
<title>cog_6&#45;&gt;qpg_7</title>
<g id="a_edge9"><a xlink:title="Type: references&#10;Context: ref QPG&#45;7">
<path fill="none" stroke="#1976d2" d="M716.11,-309.57C697.01,-310.61 672.82,-310.78 652.06,-310.08"/>
<polygon fill="#1976d2" stroke="#1976d2" points="652.26,-306.59 642.12,-309.65 651.96,-313.58 652.26,-306.59"/>
</a>
</g>
<text text-anchor="middle" x="652.21" y="-328.02" font-family="Arial" font-size="14.00">references</text>
<text text-anchor="middle" x="652.21" y="-312.27" font-family="Arial" font-size="14.00">ref QPG&#45;7</text>
</g>
<!-- dyn_4 -->
<g id="node12" class="node">
<title>dyn_4</title>
<ellipse fill="none" stroke="black" cx="166.96" cy="-325.75" rx="35.1" ry="18"/>
<text text-anchor="middle" x="166.96" y="-320.32" font-family="Arial" font-size="14.00">dyn_4</text>
</g>
<!-- iep_3 -->
<g id="node13" class="node">
<title>iep_3</title>
<ellipse fill="none" stroke="black" cx="306.66" cy="-325.75" rx="32.6" ry="18"/>
<text text-anchor="middle" x="306.66" y="-320.32" font-family="Arial" font-size="14.00">iep_3</text>
</g>
<!-- dyn_4&#45;&gt;iep_3 -->
<g id="edge10" class="edge">
<title>dyn_4&#45;&gt;iep_3</title>
<g id="a_edge10"><a xlink:title="Type: references&#10;Context: (ref IEP&#45;3)">
<path fill="none" stroke="#1976d2" d="M200.42,-331.61C219.54,-332.64 243.7,-332.78 264.15,-332.02"/>
<polygon fill="#1976d2" stroke="#1976d2" points="264.05,-335.53 273.87,-331.56 263.72,-328.53 264.05,-335.53"/>
</a>
</g>
<text text-anchor="middle" x="232.29" y="-318.51" font-family="Arial" font-size="14.00">references</text>
<text text-anchor="middle" x="232.29" y="-302.76" font-family="Arial" font-size="14.00">(ref IEP&#45;3)</text>
</g>
<!-- dyn_4&#45;&gt;iep_3 -->
<g id="edge11" class="edge">
<title>dyn_4&#45;&gt;iep_3</title>
<g id="a_edge11"><a xlink:title="Type: references&#10;Context: ref IEP&#45;3">
<path fill="none" stroke="#1976d2" d="M200.42,-319.89C219.54,-318.86 243.7,-318.72 264.15,-319.48"/>
<polygon fill="#1976d2" stroke="#1976d2" points="263.72,-322.97 273.87,-319.94 264.05,-315.97 263.72,-322.97"/>
</a>
</g>
<text text-anchor="middle" x="264.16" y="-306.39" font-family="Arial" font-size="14.00">references</text>
<text text-anchor="middle" x="264.16" y="-290.64" font-family="Arial" font-size="14.00">ref IEP&#45;3</text>
</g>
<!-- ipr_1 -->
<g id="node14" class="node">
<title>ipr_1</title>
<ellipse fill="none" stroke="black" cx="30.61" cy="-271.75" rx="30.61" ry="18"/>
<text text-anchor="middle" x="30.61" y="-266.32" font-family="Arial" font-size="14.00">ipr_1</text>
</g>
<!-- opm_8 -->
<g id="node15" class="node">
<title>opm_8</title>
<ellipse fill="none" stroke="black" cx="464.17" cy="-271.75" rx="38.59" ry="18"/>
<text text-anchor="middle" x="464.17" y="-266.32" font-family="Arial" font-size="14.00">opm_8</text>
</g>
<!-- ipr_1&#45;&gt;opm_8 -->
<g id="edge12" class="edge">
<title>ipr_1&#45;&gt;opm_8</title>
<g id="a_edge12"><a xlink:title="Type: references&#10;Context: ref OPM&#45;8">
<path fill="none" stroke="#1976d2" d="M61.44,-271.75C135.39,-271.75 323.39,-271.75 413.93,-271.75"/>
<polygon fill="#1976d2" stroke="#1976d2" points="413.74,-275.25 423.74,-271.75 413.74,-268.25 413.74,-275.25"/>
</a>
</g>
<text text-anchor="middle" x="205.81" y="-258.45" font-family="Arial" font-size="14.00">references</text>
<text text-anchor="middle" x="205.81" y="-242.7" font-family="Arial" font-size="14.00">ref OPM&#45;8</text>
</g>
<!-- msm_3 -->
<g id="node16" class="node">
<title>msm_3</title>
<ellipse fill="none" stroke="black" cx="296.33" cy="-128.32" rx="41.08" ry="18"/>
<text text-anchor="middle" x="296.33" y="-122.9" font-family="Arial" font-size="14.00">msm_3</text>
</g>
<!-- msm_3&#45;&gt;opm_8 -->
<g id="edge13" class="edge">
<title>msm_3&#45;&gt;opm_8</title>
<g id="a_edge13"><a xlink:title="Type: references&#10;Context: (ref OPM&#45;8)">
<path fill="none" stroke="#1976d2" d="M309.99,-145.54C336.34,-171.98 394.45,-222.1 431.36,-250.66"/>
<polygon fill="#1976d2" stroke="#1976d2" points="428.98,-253.24 439.05,-256.51 433.21,-247.67 428.98,-253.24"/>
</a>
</g>
<text text-anchor="middle" x="334.3" y="-184.8" font-family="Arial" font-size="14.00">references</text>
<text text-anchor="middle" x="334.3" y="-169.05" font-family="Arial" font-size="14.00">(ref OPM&#45;8)</text>
</g>
<!-- msm_3&#45;&gt;opm_8 -->
<g id="edge14" class="edge">
<title>msm_3&#45;&gt;opm_8</title>
<g id="a_edge14"><a xlink:title="Type: references&#10;Context: ref OPM&#45;8">
<path fill="none" stroke="#1976d2" d="M320.98,-143.2C353.77,-167.76 411.03,-216.57 442.33,-246.54"/>
<polygon fill="#1976d2" stroke="#1976d2" points="439.75,-248.92 449.35,-253.4 444.65,-243.91 439.75,-248.92"/>
</a>
</g>
<text text-anchor="middle" x="413.53" y="-213.07" font-family="Arial" font-size="14.00">references</text>
<text text-anchor="middle" x="413.53" y="-197.32" font-family="Arial" font-size="14.00">ref OPM&#45;8</text>
</g>
<!-- opm_6 -->
<g id="node17" class="node">
<title>opm_6</title>
<ellipse fill="none" stroke="black" cx="411.97" cy="-501.75" rx="38.59" ry="18"/>
<text text-anchor="middle" x="411.97" y="-496.32" font-family="Arial" font-size="14.00">opm_6</text>
</g>
<!-- opm_3 -->
<g id="node18" class="node">
<title>opm_3</title>
<ellipse fill="none" stroke="black" cx="561.15" cy="-501.75" rx="38.59" ry="18"/>
<text text-anchor="middle" x="561.15" y="-496.32" font-family="Arial" font-size="14.00">opm_3</text>
</g>
<!-- opm_6&#45;&gt;opm_3 -->
<g id="edge15" class="edge">
<title>opm_6&#45;&gt;opm_3</title>
<g id="a_edge15"><a xlink:title="Type: references&#10;Context: ref OPM&#45;3">
<path fill="none" stroke="#1976d2" d="M450.78,-501.75C469.09,-501.75 491.18,-501.75 510.77,-501.75"/>
<polygon fill="#1976d2" stroke="#1976d2" points="510.77,-505.25 520.77,-501.75 510.77,-498.25 510.77,-505.25"/>
</a>
</g>
<text text-anchor="middle" x="480.78" y="-488.45" font-family="Arial" font-size="14.00">references</text>
<text text-anchor="middle" x="480.78" y="-472.7" font-family="Arial" font-size="14.00">ref OPM&#45;3</text>
</g>
<!-- qhd_1 -->
<g id="node19" class="node">
<title>qhd_1</title>
<ellipse fill="none" stroke="black" cx="579.69" cy="-83.61" rx="35.6" ry="18"/>
<text text-anchor="middle" x="579.69" y="-78.19" font-family="Arial" font-size="14.00">qhd_1</text>
</g>
<!-- qhd_1&#45;&gt;opm_8 -->
<g id="edge16" class="edge">
<title>qhd_1&#45;&gt;opm_8</title>
<g id="a_edge16"><a xlink:title="Type: references&#10;Context: ref OPM&#45;8">
<path fill="none" stroke="#1976d2" d="M569.02,-100.97C548.87,-133.79 505.06,-205.15 480.94,-244.44"/>
<polygon fill="#1976d2" stroke="#1976d2" points="478.01,-242.51 475.76,-252.87 483.98,-246.18 478.01,-242.51"/>
</a>
</g>
<text text-anchor="middle" x="493.11" y="-190.91" font-family="Arial" font-size="14.00">references</text>
<text text-anchor="middle" x="493.11" y="-175.16" font-family="Arial" font-size="14.00">ref OPM&#45;8</text>
</g>
<!-- qpg_2 -->
<g id="node20" class="node">
<title>qpg_2</title>
<ellipse fill="none" stroke="black" cx="575.3" cy="-366.72" rx="35.6" ry="18"/>
<text text-anchor="middle" x="575.3" y="-361.3" font-family="Arial" font-size="14.00">qpg_2</text>
</g>
<!-- qpg_2&#45;&gt;opm_8 -->
<g id="edge18" class="edge">
<title>qpg_2&#45;&gt;opm_8</title>
<g id="a_edge18"><a xlink:title="Type: references&#10;Context: ref OPM&#45;8">
<path fill="none" stroke="#1976d2" d="M556.95,-351.04C539.12,-335.8 511.83,-312.48 491.45,-295.07"/>
<polygon fill="#1976d2" stroke="#1976d2" points="493.94,-292.59 484.07,-288.76 489.4,-297.91 493.94,-292.59"/>
</a>
</g>
<text text-anchor="middle" x="492.33" y="-341.25" font-family="Arial" font-size="14.00">references</text>
<text text-anchor="middle" x="492.33" y="-325.5" font-family="Arial" font-size="14.00">ref OPM&#45;8</text>
</g>
<!-- opm_5 -->
<g id="node21" class="node">
<title>opm_5</title>
<ellipse fill="none" stroke="black" cx="686.43" cy="-461.69" rx="38.59" ry="18"/>
<text text-anchor="middle" x="686.43" y="-456.27" font-family="Arial" font-size="14.00">opm_5</text>
</g>
<!-- qpg_2&#45;&gt;opm_5 -->
<g id="edge17" class="edge">
<title>qpg_2&#45;&gt;opm_5</title>
<g id="a_edge17"><a xlink:title="Type: references&#10;Context: ref OPM&#45;5">
<path fill="none" stroke="#1976d2" d="M593.65,-382.4C611.48,-397.64 638.77,-420.96 659.14,-438.37"/>
<polygon fill="#1976d2" stroke="#1976d2" points="656.65,-440.85 666.53,-444.69 661.2,-435.53 656.65,-440.85"/>
</a>
</g>
<text text-anchor="middle" x="594.52" y="-428.59" font-family="Arial" font-size="14.00">references</text>
<text text-anchor="middle" x="594.52" y="-412.84" font-family="Arial" font-size="14.00">ref OPM&#45;5</text>
</g>
<!-- qpg_4 -->
<g id="node22" class="node">
<title>qpg_4</title>
<ellipse fill="none" stroke="black" cx="166.96" cy="-61.75" rx="35.6" ry="18"/>
<text text-anchor="middle" x="166.96" y="-56.33" font-family="Arial" font-size="14.00">qpg_4</text>
</g>
<!-- phi_1 -->
<g id="node23" class="node">
<title>phi_1</title>
<ellipse fill="none" stroke="black" cx="307.16" cy="-61.75" rx="32.6" ry="18"/>
<text text-anchor="middle" x="307.16" y="-56.33" font-family="Arial" font-size="14.00">phi_1</text>
</g>
<!-- qpg_4&#45;&gt;phi_1 -->
<g id="edge19" class="edge">
<title>qpg_4&#45;&gt;phi_1</title>
<g id="a_edge19"><a xlink:title="Type: references&#10;Context: guided by PHI&#45;1">
<path fill="none" stroke="#1976d2" d="M202.7,-61.75C221.06,-61.75 243.6,-61.75 263.03,-61.75"/>
<polygon fill="#1976d2" stroke="#1976d2" points="262.85,-65.25 272.85,-61.75 262.85,-58.25 262.85,-65.25"/>
</a>
</g>
<text text-anchor="middle" x="232.87" y="-48.45" font-family="Arial" font-size="14.00">references</text>
<text text-anchor="middle" x="232.87" y="-32.7" font-family="Arial" font-size="14.00">guided by PHI&#45;1</text>
</g>
<!-- qpg_9 -->
<g id="node24" class="node">
<title>qpg_9</title>
<ellipse fill="none" stroke="black" cx="296.33" cy="-415.18" rx="35.6" ry="18"/>
<text text-anchor="middle" x="296.33" y="-409.75" font-family="Arial" font-size="14.00">qpg_9</text>
</g>
<!-- qpg_9&#45;&gt;opm_8 -->
<g id="edge20" class="edge">
<title>qpg_9&#45;&gt;opm_8</title>
<g id="a_edge20"><a xlink:title="Type: references&#10;Context: (ref OPM&#45;8)">
<path fill="none" stroke="#1976d2" d="M319.56,-401.36C352.1,-377.17 410.64,-327.31 442.39,-296.9"/>
<polygon fill="#1976d2" stroke="#1976d2" points="444.81,-299.43 449.51,-289.93 439.92,-294.43 444.81,-299.43"/>
</a>
</g>
<text text-anchor="middle" x="344.6" y="-367.33" font-family="Arial" font-size="14.00">references</text>
<text text-anchor="middle" x="344.6" y="-351.58" font-family="Arial" font-size="14.00">(ref OPM&#45;8)</text>
</g>
<!-- qpg_9&#45;&gt;opm_8 -->
<g id="edge21" class="edge">
<title>qpg_9&#45;&gt;opm_8</title>
<g id="a_edge21"><a xlink:title="Type: references&#10;Context: ref OPM&#45;8">
<path fill="none" stroke="#1976d2" d="M309.71,-398.25C335.89,-371.92 394.17,-321.63 431.23,-292.95"/>
<polygon fill="#1976d2" stroke="#1976d2" points="433.12,-295.91 438.96,-287.07 428.88,-290.34 433.12,-295.91"/>
</a>
</g>
<text text-anchor="middle" x="402.34" y="-332.3" font-family="Arial" font-size="14.00">references</text>
<text text-anchor="middle" x="402.34" y="-316.55" font-family="Arial" font-size="14.00">ref OPM&#45;8</text>
</g>
<!-- sin_4 -->
<g id="node25" class="node">
<title>sin_4</title>
<ellipse fill="none" stroke="black" cx="163.46" cy="-545.75" rx="32.1" ry="18"/>
<text text-anchor="middle" x="163.46" y="-540.33" font-family="Arial" font-size="14.00">sin_4</text>
</g>
<!-- sin_2 -->
<g id="node26" class="node">
<title>sin_2</title>
<ellipse fill="none" stroke="black" cx="299.66" cy="-545.75" rx="32.1" ry="18"/>
<text text-anchor="middle" x="299.66" y="-540.33" font-family="Arial" font-size="14.00">sin_2</text>
</g>
<!-- sin_4&#45;&gt;sin_2 -->
<g id="edge22" class="edge">
<title>sin_4&#45;&gt;sin_2</title>
<g id="a_edge22"><a xlink:title="Type: references&#10;Context: (ref SIN&#45;2)">
<path fill="none" stroke="#1976d2" d="M194.37,-551.51C213.09,-552.62 237.22,-552.8 257.65,-552.04"/>
<polygon fill="#1976d2" stroke="#1976d2" points="257.55,-555.55 267.37,-551.58 257.21,-548.56 257.55,-555.55"/>
</a>
</g>
<text text-anchor="middle" x="226.01" y="-538.47" font-family="Arial" font-size="14.00">references</text>
<text text-anchor="middle" x="226.01" y="-522.72" font-family="Arial" font-size="14.00">(ref SIN&#45;2)</text>
</g>
<!-- sin_4&#45;&gt;sin_2 -->
<g id="edge23" class="edge">
<title>sin_4&#45;&gt;sin_2</title>
<g id="a_edge23"><a xlink:title="Type: references&#10;Context: ref SIN&#45;2">
<path fill="none" stroke="#1976d2" d="M194.37,-539.99C213.09,-538.88 237.22,-538.7 257.65,-539.46"/>
<polygon fill="#1976d2" stroke="#1976d2" points="257.21,-542.94 267.37,-539.92 257.55,-535.95 257.21,-542.94"/>
</a>
</g>
<text text-anchor="middle" x="257.89" y="-557.93" font-family="Arial" font-size="14.00">references</text>
<text text-anchor="middle" x="257.89" y="-542.18" font-family="Arial" font-size="14.00">ref SIN&#45;2</text>
</g>
</g>
</svg>
