<?xml version="1.0" encoding="UTF-8" standalone="no"?>
<!DOCTYPE svg PUBLIC "-//W3C//DTD SVG 1.1//EN"
 "http://www.w3.org/Graphics/SVG/1.1/DTD/svg11.dtd">
<!-- Generated by graphviz version 12.2.1 (20241206.2353)
 -->
<!-- Title: KnowledgeGraph Pages: 1 -->
<svg width="3998pt" height="3853pt"
 viewBox="0.00 0.00 959.50 924.75" xmlns="http://www.w3.org/2000/svg" xmlns:xlink="http://www.w3.org/1999/xlink">
<g id="graph0" class="graph" transform="scale(4.16667 4.16667) rotate(0) translate(4 920.75)">
<title>KnowledgeGraph</title>
<polygon fill="white" stroke="none" points="-4,4 -4,-920.75 955.5,-920.75 955.5,4 -4,4"/>
<text text-anchor="middle" x="475.75" y="-903.25" font-family="Times New Roman,serif" font-size="10.00">Layout: Force&#45;directed spring model</text>
<g id="clust1" class="cluster">
<title>cluster_0</title>
<polygon fill="lightgrey" stroke="black" points="0,0 0,-897.5 588.32,-897.5 588.32,0 0,0"/>
<text text-anchor="middle" x="294.16" y="-884" font-family="Times New Roman,serif" font-size="10.00">ADV</text>
</g>
<g id="clust2" class="cluster">
<title>cluster_1</title>
<polygon fill="lightgrey" stroke="black" points="13,0 13,-884.5 951.5,-884.5 951.5,0 13,0"/>
<text text-anchor="middle" x="482.25" y="-871" font-family="Times New Roman,serif" font-size="10.00">COG</text>
</g>
<g id="clust3" class="cluster">
<title>cluster_2</title>
<polygon fill="lightgrey" stroke="black" points="78,-78 78,-741.5 904.25,-741.5 904.25,-78 78,-78"/>
<text text-anchor="middle" x="491.12" y="-728" font-family="Times New Roman,serif" font-size="10.00">PHI</text>
</g>
<!-- adv -->
<g id="node1" class="node">
<title>adv</title>
<g id="a_node1"><a xlink:title="Type: directive&#10;Category: ADV&#10;Description: Ctx adheres to robust ethical guidelines, emphasizing principles like Gödelian Humility and Menta...">
<polygon fill="#e3f2fd" stroke="black" points="449.25,-897.5 299,-897.5 299,-858 449.25,-858 449.25,-897.5"/>
<text text-anchor="middle" x="374.12" y="-880.2" font-family="Arial" font-size="14.00">ADV</text>
<text text-anchor="middle" x="374.12" y="-864.45" font-family="Arial" font-size="14.00">Ethical Considerations</text>
</a>
</g>
</g>
<!-- adv_1 -->
<g id="node2" class="node">
<title>adv_1</title>
<g id="a_node2"><a xlink:title="Type: directive&#10;Category: ADV&#10;Description: When engaging with sensitive, controversial, or ethically complex topics, prioritise a neutral, o...">
<polygon fill="#e3f2fd" stroke="black" points="359.75,-500.8 247,-500.8 247,-461.3 359.75,-461.3 359.75,-500.8"/>
<text text-anchor="middle" x="303.37" y="-483.5" font-family="Arial" font-size="14.00">ADV&#45;1</text>
<text text-anchor="middle" x="303.37" y="-467.75" font-family="Arial" font-size="14.00">Sensitive Topics</text>
</a>
</g>
</g>
<!-- adv_2 -->
<g id="node3" class="node">
<title>adv_2</title>
<g id="a_node3"><a xlink:title="Type: directive&#10;Category: ADV&#10;Description: If knowledge or data is insufficient for a definitive response, explicitly state the uncertainty ...">
<polygon fill="#e3f2fd" stroke="black" points="508.14,-435.2 353.39,-435.2 353.39,-395.7 508.14,-395.7 508.14,-435.2"/>
<text text-anchor="middle" x="430.76" y="-417.9" font-family="Arial" font-size="14.00">ADV&#45;2</text>
<text text-anchor="middle" x="430.76" y="-402.15" font-family="Arial" font-size="14.00">Uncertainty Expression</text>
</a>
</g>
</g>
<!-- adv_3 -->
<g id="node4" class="node">
<title>adv_3</title>
<g id="a_node4"><a xlink:title="Type: directive&#10;Category: ADV&#10;Description: For complex/important queries requiring unavailable information, proactively suggest or initiate ...">
<polygon fill="#e3f2fd" stroke="black" points="151,-39.5 0,-39.5 0,0 151,0 151,-39.5"/>
<text text-anchor="middle" x="75.5" y="-22.2" font-family="Arial" font-size="14.00">ADV&#45;3</text>
<text text-anchor="middle" x="75.5" y="-6.45" font-family="Arial" font-size="14.00">Proactive Info Seeking</text>
</a>
</g>
</g>
<!-- adv_4 -->
<g id="node5" class="node">
<title>adv_4</title>
<g id="a_node5"><a xlink:title="Type: directive&#10;Category: ADV&#10;Description: Maintain awareness of broader interaction context and potential long&#45;term implications, aligning ...">
<polygon fill="#e3f2fd" stroke="black" points="233.5,-819.5 78,-819.5 78,-780 233.5,-780 233.5,-819.5"/>
<text text-anchor="middle" x="155.75" y="-802.2" font-family="Arial" font-size="14.00">ADV&#45;4</text>
<text text-anchor="middle" x="155.75" y="-786.45" font-family="Arial" font-size="14.00">Long&#45;Term Perspective</text>
</a>
</g>
</g>
<!-- adv_6 -->
<g id="node6" class="node">
<title>adv_6</title>
<g id="a_node6"><a xlink:title="Type: directive&#10;Category: ADV&#10;Description: (If applicable) Define protocols for interacting with other AI entities or external systems (data...">
<polygon fill="#e3f2fd" stroke="black" points="137.5,-221.5 39,-221.5 39,-182 137.5,-182 137.5,-221.5"/>
<text text-anchor="middle" x="88.25" y="-204.2" font-family="Arial" font-size="14.00">ADV&#45;6</text>
<text text-anchor="middle" x="88.25" y="-188.45" font-family="Arial" font-size="14.00">Other Entities</text>
</a>
</g>
</g>
<!-- adv_7 -->
<g id="node7" class="node">
<title>adv_7</title>
<g id="a_node7"><a xlink:title="Type: directive&#10;Category: ADV&#10;Description: Following the explicit statement of uncertainty or data limitations (ref ADV&#45;2), if further specu...">
<polygon fill="#e3f2fd" stroke="black" points="588.32,-390.5 386.32,-390.5 386.32,-351 588.32,-351 588.32,-390.5"/>
<text text-anchor="middle" x="487.32" y="-373.2" font-family="Arial" font-size="14.00">ADV&#45;7</text>
<text text-anchor="middle" x="487.32" y="-357.45" font-family="Arial" font-size="14.00">Uncertainty Response Protocol</text>
</a>
</g>
</g>
<!-- adv_7&#45;&gt;adv_2 -->
<g id="edge1" class="edge">
<title>adv_7&#45;&gt;adv_2</title>
<g id="a_edge1"><a xlink:title="Type: references&#10;Context: (ref ADV&#45;2)">
<path fill="none" stroke="#1976d2" d="M450.93,-390.98C450.82,-391.08 450.71,-391.17 450.6,-391.26"/>
<polygon fill="#1976d2" stroke="#1976d2" points="452.28,-385.2 446.98,-394.37 456.84,-390.5 452.28,-385.2"/>
</a>
</g>
</g>
<!-- adv_7&#45;&gt;adv_2 -->
<g id="edge2" class="edge">
<title>adv_7&#45;&gt;adv_2</title>
<g id="a_edge2"><a xlink:title="Type: references&#10;Context: ref ADV&#45;2">
<path fill="none" stroke="#1976d2" d="M472.15,-390.93C472.05,-391.02 471.94,-391.12 471.83,-391.21"/>
<polygon fill="#1976d2" stroke="#1976d2" points="473.29,-385.36 467.96,-394.52 477.84,-390.69 473.29,-385.36"/>
</a>
</g>
</g>
<!-- adv_8 -->
<g id="node8" class="node">
<title>adv_8</title>
<g id="a_node8"><a xlink:title="Type: directive&#10;Category: ADV&#10;Description: Before delivering a particularly complex, lengthy, potentially sensitive recommendation, or one b...">
<polygon fill="#e3f2fd" stroke="black" points="469.91,-476.58 273.16,-476.58 273.16,-437.08 469.91,-437.08 469.91,-476.58"/>
<text text-anchor="middle" x="371.54" y="-459.28" font-family="Arial" font-size="14.00">ADV&#45;8</text>
<text text-anchor="middle" x="371.54" y="-443.53" font-family="Arial" font-size="14.00">Pre&#45;Mortem Heuristic for Co...</text>
</a>
</g>
</g>
<!-- adv_8&#45;&gt;adv_1 -->
<g id="edge3" class="edge">
<title>adv_8&#45;&gt;adv_1</title>
<g id="a_edge3"><a xlink:title="Type: references&#10;Context: (ref ADV&#45;1, ADV&#45;2)">
<path fill="none" stroke="#1976d2" d="M305.62,-476.95C305.57,-477 305.51,-477.05 305.46,-477.1"/>
<polygon fill="#1976d2" stroke="#1976d2" points="311.45,-466.9 306.42,-476.22 316.17,-472.07 311.45,-466.9"/>
</a>
</g>
</g>
<!-- adv_8&#45;&gt;adv_1 -->
<g id="edge4" class="edge">
<title>adv_8&#45;&gt;adv_1</title>
<g id="a_edge4"><a xlink:title="Type: references&#10;Context: ref ADV&#45;1">
<path fill="none" stroke="#1976d2" d="M334.52,-477.08C334.46,-477.09 334.4,-477.11 334.34,-477.13"/>
<polygon fill="#1976d2" stroke="#1976d2" points="344.03,-470.3 335.6,-476.72 346.19,-476.95 344.03,-470.3"/>
</a>
</g>
</g>
<!-- adv_8&#45;&gt;adv_2 -->
<g id="edge5" class="edge">
<title>adv_8&#45;&gt;adv_2</title>
<g id="a_edge5"><a xlink:title="Type: references&#10;Context: (ref ADV&#45;1, ADV&#45;2)">
<path fill="none" stroke="#1976d2" d="M400.46,-436.63C400.57,-436.54 400.69,-436.46 400.81,-436.38"/>
<polygon fill="#1976d2" stroke="#1976d2" points="394.43,-445.11 400.62,-436.51 390.42,-439.37 394.43,-445.11"/>
</a>
</g>
</g>
<!-- cog_1 -->
<g id="node9" class="node">
<title>cog_1</title>
<g id="a_node9"><a xlink:title="Type: directive&#10;Category: COG&#10;Description: When analysing a complex topic or problem, employ a process analogous to parallel thinking to exp...">
<polygon fill="#e3f2fd" stroke="black" points="742.75,-884.5 585,-884.5 585,-845 742.75,-845 742.75,-884.5"/>
<text text-anchor="middle" x="663.88" y="-867.2" font-family="Arial" font-size="14.00">COG&#45;1</text>
<text text-anchor="middle" x="663.88" y="-851.45" font-family="Arial" font-size="14.00">Perspective Exploration</text>
</a>
</g>
</g>
<!-- cog_10 -->
<g id="node10" class="node">
<title>cog_10</title>
<g id="a_node10"><a xlink:title="Type: directive&#10;Category: COG&#10;Description: &#45; **Principle:** When tasked with a complex judgment or evaluation (e.g., assessing a proposal, s...">
<polygon fill="#e3f2fd" stroke="black" points="879.5,-481.5 676,-481.5 676,-442 879.5,-442 879.5,-481.5"/>
<text text-anchor="middle" x="777.75" y="-464.2" font-family="Arial" font-size="14.00">COG&#45;10</text>
<text text-anchor="middle" x="777.75" y="-448.45" font-family="Arial" font-size="14.00">Structured Judgment Protoco...</text>
</a>
</g>
</g>
<!-- cog_11 -->
<g id="node11" class="node">
<title>cog_11</title>
<g id="a_node11"><a xlink:title="Type: directive&#10;Category: COG&#10;Description: &#45; **Principle:** When a task requires an evaluative judgment along a scale, Ctx should, where pra...">
<polygon fill="#e3f2fd" stroke="black" points="617.5,-117.5 429,-117.5 429,-78 617.5,-78 617.5,-117.5"/>
<text text-anchor="middle" x="523.25" y="-100.2" font-family="Arial" font-size="14.00">COG&#45;11</text>
<text text-anchor="middle" x="523.25" y="-84.45" font-family="Arial" font-size="14.00">Relative Judgment Prioritiz...</text>
</a>
</g>
</g>
<!-- cog_12 -->
<g id="node12" class="node">
<title>cog_12</title>
<g id="a_node12"><a xlink:title="Type: directive&#10;Category: COG&#10;Description: &#45; **Principle:** When faced with ambiguity, complexity, or system failure, the primary analytical...">
<polygon fill="#e3f2fd" stroke="black" points="638.5,-299.5 429,-299.5 429,-260 638.5,-260 638.5,-299.5"/>
<text text-anchor="middle" x="533.75" y="-282.2" font-family="Arial" font-size="14.00">COG&#45;12</text>
<text text-anchor="middle" x="533.75" y="-266.45" font-family="Arial" font-size="14.00">Deductive Minimalism &amp; CNS ...</text>
</a>
</g>
</g>
<!-- cog_2 -->
<g id="node13" class="node">
<title>cog_2</title>
<g id="a_node13"><a xlink:title="Type: directive&#10;Category: COG&#10;Description: If initial analytical processing yields conventional or limited insights, engage a mode analogous...">
<polygon fill="#e3f2fd" stroke="black" points="164,-312.5 13,-312.5 13,-273 164,-273 164,-312.5"/>
<text text-anchor="middle" x="88.5" y="-295.2" font-family="Arial" font-size="14.00">COG&#45;2</text>
<text text-anchor="middle" x="88.5" y="-279.45" font-family="Arial" font-size="14.00">Alternative Generation</text>
</a>
</g>
</g>
<!-- cog_3 -->
<g id="node14" class="node">
<title>cog_3</title>
<g id="a_node14"><a xlink:title="Type: directive&#10;Category: COG&#10;Description: When assessing ideas, proposals, or potential solutions, apply a structured evaluation process co...">
<polygon fill="#e3f2fd" stroke="black" points="340,-39.5 195,-39.5 195,0 340,0 340,-39.5"/>
<text text-anchor="middle" x="267.5" y="-22.2" font-family="Arial" font-size="14.00">COG&#45;3</text>
<text text-anchor="middle" x="267.5" y="-6.45" font-family="Arial" font-size="14.00">Structured Evaluation</text>
</a>
</g>
</g>
<!-- cog_4 -->
<g id="node15" class="node">
<title>cog_4</title>
<g id="a_node15"><a xlink:title="Type: directive&#10;Category: COG&#10;Description: At appropriate junctures (potentially linked to SIN&#45;3), introduce a deliberate, unconventional st...">
<polygon fill="#e3f2fd" stroke="black" points="951.5,-832.5 793,-832.5 793,-793 951.5,-793 951.5,-832.5"/>
<text text-anchor="middle" x="872.25" y="-815.2" font-family="Arial" font-size="14.00">COG&#45;4</text>
<text text-anchor="middle" x="872.25" y="-799.45" font-family="Arial" font-size="14.00">Provocation Generation</text>
</a>
</g>
</g>
<!-- cog_5 -->
<g id="node16" class="node">
<title>cog_5</title>
<g id="a_node16"><a xlink:title="Type: directive&#10;Category: COG&#10;Description: &#45; **COG&#45;5.1 (Principle):** Recognize and operate with an intrinsic understanding that any suffici...">
<polygon fill="#e3f2fd" stroke="black" points="888.75,-650.5 689,-650.5 689,-611 888.75,-611 888.75,-650.5"/>
<text text-anchor="middle" x="788.88" y="-633.2" font-family="Arial" font-size="14.00">COG&#45;5</text>
<text text-anchor="middle" x="788.88" y="-617.45" font-family="Arial" font-size="14.00">Gödelian Humility &amp; Systemi...</text>
</a>
</g>
</g>
<!-- cog_6 -->
<g id="node17" class="node">
<title>cog_6</title>
<g id="a_node17"><a xlink:title="Type: directive&#10;Category: COG&#10;Description: When faced with complex, ambiguous, or underspecified inputs (&#39;stuff&#39;), Ctx shall, as a prelimina...">
<polygon fill="#e3f2fd" stroke="black" points="433.75,-718.52 234,-718.52 234,-679.02 433.75,-679.02 433.75,-718.52"/>
<text text-anchor="middle" x="333.87" y="-701.22" font-family="Arial" font-size="14.00">COG&#45;6</text>
<text text-anchor="middle" x="333.87" y="-685.47" font-family="Arial" font-size="14.00">Ambiguity Cartography &#45; A&#45;C...</text>
</a>
</g>
</g>
<!-- qhd_3 -->
<g id="node29" class="node">
<title>qhd_3</title>
<ellipse fill="none" stroke="black" cx="309.07" cy="-766.68" rx="35.6" ry="18"/>
<text text-anchor="middle" x="309.07" y="-761.25" font-family="Arial" font-size="14.00">qhd_3</text>
</g>
<!-- cog_6&#45;&gt;qhd_3 -->
<g id="edge6" class="edge">
<title>cog_6&#45;&gt;qhd_3</title>
<g id="a_edge6"><a xlink:title="Type: references&#10;Context: (ref QHD&#45;3)">
<path fill="none" stroke="#1976d2" d="M319.76,-718.82C317.2,-724.68 314.73,-731.2 312.68,-737.5"/>
<polygon fill="#1976d2" stroke="#1976d2" points="309.36,-736.38 309.92,-746.96 316.08,-738.34 309.36,-736.38"/>
</a>
</g>
</g>
<!-- cog_6&#45;&gt;qhd_3 -->
<g id="edge7" class="edge">
<title>cog_6&#45;&gt;qhd_3</title>
<g id="a_edge7"><a xlink:title="Type: references&#10;Context: ref QHD&#45;3">
<path fill="none" stroke="#1976d2" d="M333.01,-718.68C331.32,-725.08 328.93,-732.27 326.28,-739.11"/>
<polygon fill="#1976d2" stroke="#1976d2" points="323.19,-737.43 322.53,-748.01 329.64,-740.15 323.19,-737.43"/>
</a>
</g>
</g>
<!-- qpg_7 -->
<g id="node30" class="node">
<title>qpg_7</title>
<ellipse fill="none" stroke="black" cx="378.61" cy="-642" rx="35.6" ry="18"/>
<text text-anchor="middle" x="378.61" y="-636.58" font-family="Arial" font-size="14.00">qpg_7</text>
</g>
<!-- cog_6&#45;&gt;qpg_7 -->
<g id="edge8" class="edge">
<title>cog_6&#45;&gt;qpg_7</title>
<g id="a_edge8"><a xlink:title="Type: references&#10;Context: (ref QPG&#45;7)">
<path fill="none" stroke="#1976d2" d="M358.09,-678.83C360.65,-675.75 363.18,-672.53 365.54,-669.32"/>
<polygon fill="#1976d2" stroke="#1976d2" points="368.38,-671.38 371.19,-661.17 362.62,-667.4 368.38,-671.38"/>
</a>
</g>
</g>
<!-- cog_6&#45;&gt;qpg_7 -->
<g id="edge9" class="edge">
<title>cog_6&#45;&gt;qpg_7</title>
<g id="a_edge9"><a xlink:title="Type: references&#10;Context: ref QPG&#45;7">
<path fill="none" stroke="#1976d2" d="M341.96,-678.52C344.77,-674.31 348.05,-669.85 351.48,-665.53"/>
<polygon fill="#1976d2" stroke="#1976d2" points="353.9,-668.09 357.64,-658.18 348.54,-663.59 353.9,-668.09"/>
</a>
</g>
</g>
<!-- cog_9 -->
<g id="node18" class="node">
<title>cog_9</title>
<g id="a_node18"><a xlink:title="Type: directive&#10;Category: COG&#10;Description: &#45; **Principle:** When considering the introduction of significant new Ctx capabilities, interacti...">
<polygon fill="#e3f2fd" stroke="black" points="879.5,-208.5 676,-208.5 676,-169 879.5,-169 879.5,-208.5"/>
<text text-anchor="middle" x="777.75" y="-191.2" font-family="Arial" font-size="14.00">COG&#45;9</text>
<text text-anchor="middle" x="777.75" y="-175.45" font-family="Arial" font-size="14.00">Structural Impact Assessmen...</text>
</a>
</g>
</g>
<!-- phi_1 -->
<g id="node19" class="node">
<title>phi_1</title>
<g id="a_node19"><a xlink:title="Type: directive&#10;Category: PHI&#10;Description: In all information processing and response generation, actively seek to transform unstructured, a...">
<polygon fill="#e3f2fd" stroke="black" points="344.75,-312.5 208,-312.5 208,-273 344.75,-273 344.75,-312.5"/>
<text text-anchor="middle" x="276.37" y="-295.2" font-family="Arial" font-size="14.00">PHI&#45;1</text>
<text text-anchor="middle" x="276.37" y="-279.45" font-family="Arial" font-size="14.00">Abstract &amp; Structure</text>
</a>
</g>
</g>
<!-- phi_10 -->
<g id="node20" class="node">
<title>phi_10</title>
<g id="a_node20"><a xlink:title="Type: directive&#10;Category: PHI&#10;Description: &#45; **Principle:** When a task involves aggregating inputs from multiple sources (e.g., different s...">
<polygon fill="#e3f2fd" stroke="black" points="829.25,-390.5 637,-390.5 637,-351 829.25,-351 829.25,-390.5"/>
<text text-anchor="middle" x="733.12" y="-373.2" font-family="Arial" font-size="14.00">PHI&#45;10</text>
<text text-anchor="middle" x="733.12" y="-357.45" font-family="Arial" font-size="14.00">Principle of Independent Ag...</text>
</a>
</g>
</g>
<!-- phi_2 -->
<g id="node21" class="node">
<title>phi_2</title>
<g id="a_node21"><a xlink:title="Type: directive&#10;Category: PHI&#10;Description: Recognize the distinct strengths and limitations of both organic user intelligence (experiential ...">
<polygon fill="#e3f2fd" stroke="black" points="850.75,-117.5 663,-117.5 663,-78 850.75,-78 850.75,-117.5"/>
<text text-anchor="middle" x="756.88" y="-100.2" font-family="Arial" font-size="14.00">PHI&#45;2</text>
<text text-anchor="middle" x="756.88" y="-84.45" font-family="Arial" font-size="14.00">Synergistic Collaboration P...</text>
</a>
</g>
</g>
<!-- phi_3 -->
<g id="node22" class="node">
<title>phi_3</title>
<g id="a_node22"><a xlink:title="Type: directive&#10;Category: PHI&#10;Description: Ctx shall recognize that all information presented to the user, and all internal knowledge repres...">
<polygon fill="#e3f2fd" stroke="black" points="904.25,-741.5 715,-741.5 715,-702 904.25,-702 904.25,-741.5"/>
<text text-anchor="middle" x="809.62" y="-724.2" font-family="Arial" font-size="14.00">PHI&#45;3</text>
<text text-anchor="middle" x="809.62" y="-708.45" font-family="Arial" font-size="14.00">Intentional Information Sha...</text>
</a>
</g>
</g>
<!-- phi_4 -->
<g id="node23" class="node">
<title>phi_4</title>
<g id="a_node23"><a xlink:title="Type: directive&#10;Category: PHI&#10;Description: Beyond structuring its own responses, Ctx shall consider its role in facilitating the user&#39;s own ...">
<polygon fill="#e3f2fd" stroke="black" points="625.75,-208.5 429,-208.5 429,-169 625.75,-169 625.75,-208.5"/>
<text text-anchor="middle" x="527.38" y="-191.2" font-family="Arial" font-size="14.00">PHI&#45;4</text>
<text text-anchor="middle" x="527.38" y="-175.45" font-family="Arial" font-size="14.00">Facilitating User Sense&#45;Mak...</text>
</a>
</g>
</g>
<!-- phi_5 -->
<g id="node24" class="node">
<title>phi_5</title>
<g id="a_node24"><a xlink:title="Type: directive&#10;Category: PHI&#10;Description: &#45; **Principle:** All elements of Ctx&#39;s operational framework (including Core Directives, Conceptu...">
<polygon fill="#e3f2fd" stroke="black" points="314,-650.5 130,-650.5 130,-611 314,-611 314,-650.5"/>
<text text-anchor="middle" x="222" y="-633.2" font-family="Arial" font-size="14.00">PHI&#45;5</text>
<text text-anchor="middle" x="222" y="-617.45" font-family="Arial" font-size="14.00">Principle of Explicit Formu...</text>
</a>
</g>
</g>
<!-- phi_6 -->
<g id="node25" class="node">
<title>phi_6</title>
<g id="a_node25"><a xlink:title="Type: directive&#10;Category: PHI&#10;Description: &#45; **Principle:** Ctx shall operate with an intrinsic understanding that its own form, interface, ...">
<polygon fill="#e3f2fd" stroke="black" points="375,-221.5 182,-221.5 182,-182 375,-182 375,-221.5"/>
<text text-anchor="middle" x="278.5" y="-204.2" font-family="Arial" font-size="14.00">PHI&#45;6</text>
<text text-anchor="middle" x="278.5" y="-188.45" font-family="Arial" font-size="14.00">Principle of Media Self&#45;Awa...</text>
</a>
</g>
</g>
<!-- phi_7 -->
<g id="node26" class="node">
<title>phi_7</title>
<g id="a_node26"><a xlink:title="Type: directive&#10;Category: PHI&#10;Description: &#45; **Principle:** Ctx shall, where appropriate and aligned with user goals and efficiency (DYN), f...">
<polygon fill="#e3f2fd" stroke="black" points="254.5,-403.5 78,-403.5 78,-364 254.5,-364 254.5,-403.5"/>
<text text-anchor="middle" x="166.25" y="-386.2" font-family="Arial" font-size="14.00">PHI&#45;7</text>
<text text-anchor="middle" x="166.25" y="-370.45" font-family="Arial" font-size="14.00">Principle of Participatory ...</text>
</a>
</g>
</g>
<!-- phi_8 -->
<g id="node27" class="node">
<title>phi_8</title>
<g id="a_node27"><a xlink:title="Type: directive&#10;Category: PHI&#10;Description: &#45; **Principle:** Ctx shall primarily define and enact its role as an extension and augmentation o...">
<polygon fill="#e3f2fd" stroke="black" points="280.25,-130.5 91,-130.5 91,-91 280.25,-91 280.25,-130.5"/>
<text text-anchor="middle" x="185.62" y="-113.2" font-family="Arial" font-size="14.00">PHI&#45;8</text>
<text text-anchor="middle" x="185.62" y="-97.45" font-family="Arial" font-size="14.00">AI as User&#45;Centric Cognitiv...</text>
</a>
</g>
</g>
<!-- phi_9 -->
<g id="node28" class="node">
<title>phi_9</title>
<g id="a_node28"><a xlink:title="Type: directive&#10;Category: PHI&#10;Description: &#45; **Principle:** When delegating tasks to sub&#45;agents or tools, particularly those suitable for ba...">
<polygon fill="#e3f2fd" stroke="black" points="885,-299.5 689,-299.5 689,-260 885,-260 885,-299.5"/>
<text text-anchor="middle" x="787" y="-282.2" font-family="Arial" font-size="14.00">PHI&#45;9</text>
<text text-anchor="middle" x="787" y="-266.45" font-family="Arial" font-size="14.00">Principle of Asynchronous D...</text>
</a>
</g>
</g>
<!-- dyn_4 -->
<g id="node31" class="node">
<title>dyn_4</title>
<ellipse fill="none" stroke="black" cx="165.1" cy="-486" rx="35.1" ry="18"/>
<text text-anchor="middle" x="165.1" y="-480.57" font-family="Arial" font-size="14.00">dyn_4</text>
</g>
<!-- iep_3 -->
<g id="node32" class="node">
<title>iep_3</title>
<ellipse fill="none" stroke="black" cx="209.5" cy="-542.68" rx="32.6" ry="18"/>
<text text-anchor="middle" x="209.5" y="-537.25" font-family="Arial" font-size="14.00">iep_3</text>
</g>
<!-- dyn_4&#45;&gt;iep_3 -->
<g id="edge10" class="edge">
<title>dyn_4&#45;&gt;iep_3</title>
<g id="a_edge10"><a xlink:title="Type: references&#10;Context: (ref IEP&#45;3)">
<path fill="none" stroke="#1976d2" d="M171.61,-503.97C174.71,-508.83 178.53,-514.13 182.55,-519.23"/>
<polygon fill="#1976d2" stroke="#1976d2" points="179.84,-521.44 188.94,-526.86 185.21,-516.95 179.84,-521.44"/>
</a>
</g>
</g>
<!-- dyn_4&#45;&gt;iep_3 -->
<g id="edge11" class="edge">
<title>dyn_4&#45;&gt;iep_3</title>
<g id="a_edge11"><a xlink:title="Type: references&#10;Context: ref IEP&#45;3">
<path fill="none" stroke="#1976d2" d="M185.19,-501.23C189.07,-505.64 193.03,-510.57 196.62,-515.47"/>
<polygon fill="#1976d2" stroke="#1976d2" points="193.55,-517.17 202.1,-523.43 199.32,-513.21 193.55,-517.17"/>
</a>
</g>
</g>
<!-- ipr_1 -->
<g id="node33" class="node">
<title>ipr_1</title>
<ellipse fill="none" stroke="black" cx="502.72" cy="-524.08" rx="30.61" ry="18"/>
<text text-anchor="middle" x="502.72" y="-518.65" font-family="Arial" font-size="14.00">ipr_1</text>
</g>
<!-- opm_8 -->
<g id="node34" class="node">
<title>opm_8</title>
<ellipse fill="none" stroke="black" cx="572.37" cy="-566.48" rx="38.59" ry="18"/>
<text text-anchor="middle" x="572.37" y="-561.06" font-family="Arial" font-size="14.00">opm_8</text>
</g>
<!-- ipr_1&#45;&gt;opm_8 -->
<g id="edge12" class="edge">
<title>ipr_1&#45;&gt;opm_8</title>
<g id="a_edge12"><a xlink:title="Type: references&#10;Context: ref OPM&#45;8">
<path fill="none" stroke="#1976d2" d="M524.38,-537.26C529.05,-540.11 534.09,-543.18 539.09,-546.22"/>
<polygon fill="#1976d2" stroke="#1976d2" points="536.89,-548.98 547.25,-551.19 540.53,-543 536.89,-548.98"/>
</a>
</g>
</g>
<!-- msm_3 -->
<g id="node35" class="node">
<title>msm_3</title>
<ellipse fill="none" stroke="black" cx="584.74" cy="-486" rx="41.08" ry="18"/>
<text text-anchor="middle" x="584.74" y="-480.57" font-family="Arial" font-size="14.00">msm_3</text>
</g>
<!-- msm_3&#45;&gt;opm_8 -->
<g id="edge13" class="edge">
<title>msm_3&#45;&gt;opm_8</title>
<g id="a_edge13"><a xlink:title="Type: references&#10;Context: (ref OPM&#45;8)">
<path fill="none" stroke="#1976d2" d="M576.14,-503.79C573.68,-513.46 571.57,-525.68 570.37,-536.76"/>
<polygon fill="#1976d2" stroke="#1976d2" points="566.88,-536.4 569.57,-546.65 573.86,-536.96 566.88,-536.4"/>
</a>
</g>
</g>
<!-- msm_3&#45;&gt;opm_8 -->
<g id="edge14" class="edge">
<title>msm_3&#45;&gt;opm_8</title>
<g id="a_edge14"><a xlink:title="Type: references&#10;Context: ref OPM&#45;8">
<path fill="none" stroke="#1976d2" d="M587.67,-504.33C587.2,-514.16 585.59,-526.5 583.44,-537.59"/>
<polygon fill="#1976d2" stroke="#1976d2" points="580.09,-536.54 581.34,-547.06 586.92,-538.05 580.09,-536.54"/>
</a>
</g>
</g>
<!-- opm_6 -->
<g id="node36" class="node">
<title>opm_6</title>
<ellipse fill="none" stroke="black" cx="519.59" cy="-720" rx="38.59" ry="18"/>
<text text-anchor="middle" x="519.59" y="-714.58" font-family="Arial" font-size="14.00">opm_6</text>
</g>
<!-- opm_3 -->
<g id="node37" class="node">
<title>opm_3</title>
<ellipse fill="none" stroke="black" cx="563.99" cy="-776.68" rx="38.59" ry="18"/>
<text text-anchor="middle" x="563.99" y="-771.25" font-family="Arial" font-size="14.00">opm_3</text>
</g>
<!-- opm_6&#45;&gt;opm_3 -->
<g id="edge15" class="edge">
<title>opm_6&#45;&gt;opm_3</title>
<g id="a_edge15"><a xlink:title="Type: references&#10;Context: ref OPM&#45;3">
<path fill="none" stroke="#1976d2" d="M533.15,-737.31C536.42,-741.49 539.99,-746.04 543.5,-750.52"/>
<polygon fill="#1976d2" stroke="#1976d2" points="540.66,-752.57 549.58,-758.28 546.17,-748.25 540.66,-752.57"/>
</a>
</g>
</g>
<!-- qhd_1 -->
<g id="node38" class="node">
<title>qhd_1</title>
<ellipse fill="none" stroke="black" cx="503.6" cy="-610.92" rx="35.6" ry="18"/>
<text text-anchor="middle" x="503.6" y="-605.5" font-family="Arial" font-size="14.00">qhd_1</text>
</g>
<!-- qhd_1&#45;&gt;opm_8 -->
<g id="edge16" class="edge">
<title>qhd_1&#45;&gt;opm_8</title>
<g id="a_edge16"><a xlink:title="Type: references&#10;Context: ref OPM&#45;8">
<path fill="none" stroke="#1976d2" d="M525.74,-596.62C530.21,-593.72 535.01,-590.63 539.76,-587.56"/>
<polygon fill="#1976d2" stroke="#1976d2" points="541.56,-590.56 548.06,-582.19 537.76,-584.68 541.56,-590.56"/>
</a>
</g>
</g>
<!-- qpg_2 -->
<g id="node39" class="node">
<title>qpg_2</title>
<ellipse fill="none" stroke="black" cx="606.97" cy="-640.51" rx="35.6" ry="18"/>
<text text-anchor="middle" x="606.97" y="-635.09" font-family="Arial" font-size="14.00">qpg_2</text>
</g>
<!-- qpg_2&#45;&gt;opm_8 -->
<g id="edge18" class="edge">
<title>qpg_2&#45;&gt;opm_8</title>
<g id="a_edge18"><a xlink:title="Type: references&#10;Context: ref OPM&#45;8">
<path fill="none" stroke="#1976d2" d="M598.59,-622.59C594.71,-614.29 590.01,-604.22 585.66,-594.91"/>
<polygon fill="#1976d2" stroke="#1976d2" points="588.84,-593.44 581.43,-585.87 582.49,-596.41 588.84,-593.44"/>
</a>
</g>
</g>
<!-- opm_5 -->
<g id="node40" class="node">
<title>opm_5</title>
<ellipse fill="none" stroke="black" cx="633.56" cy="-711.12" rx="38.59" ry="18"/>
<text text-anchor="middle" x="633.56" y="-705.7" font-family="Arial" font-size="14.00">opm_5</text>
</g>
<!-- qpg_2&#45;&gt;opm_5 -->
<g id="edge17" class="edge">
<title>qpg_2&#45;&gt;opm_5</title>
<g id="a_edge17"><a xlink:title="Type: references&#10;Context: ref OPM&#45;5">
<path fill="none" stroke="#1976d2" d="M613.68,-658.33C616.43,-665.63 619.68,-674.27 622.75,-682.42"/>
<polygon fill="#1976d2" stroke="#1976d2" points="619.42,-683.52 626.22,-691.65 625.98,-681.06 619.42,-683.52"/>
</a>
</g>
</g>
<!-- qpg_4 -->
<g id="node41" class="node">
<title>qpg_4</title>
<ellipse fill="none" stroke="black" cx="320.78" cy="-349.43" rx="35.6" ry="18"/>
<text text-anchor="middle" x="320.78" y="-344" font-family="Arial" font-size="14.00">qpg_4</text>
</g>
<!-- qpg_4&#45;&gt;phi_1 -->
<g id="edge19" class="edge">
<title>qpg_4&#45;&gt;phi_1</title>
<g id="a_edge19"><a xlink:title="Type: references&#10;Context: guided by PHI&#45;1">
<path fill="none" stroke="#1976d2" d="M307.45,-332.42C304.83,-329.07 302,-325.46 299.17,-321.84"/>
<polygon fill="#1976d2" stroke="#1976d2" points="302.05,-319.84 293.12,-314.13 296.54,-324.16 302.05,-319.84"/>
</a>
</g>
</g>
<!-- qpg_9 -->
<g id="node42" class="node">
<title>qpg_9</title>
<ellipse fill="none" stroke="black" cx="650.97" cy="-543.15" rx="35.6" ry="18"/>
<text text-anchor="middle" x="650.97" y="-537.72" font-family="Arial" font-size="14.00">qpg_9</text>
</g>
<!-- qpg_9&#45;&gt;opm_8 -->
<g id="edge20" class="edge">
<title>qpg_9&#45;&gt;opm_8</title>
<g id="a_edge20"><a xlink:title="Type: references&#10;Context: (ref OPM&#45;8)">
<path fill="none" stroke="#1976d2" d="M615.74,-546.64C613.21,-547.33 610.65,-548.07 608.12,-548.83"/>
<polygon fill="#1976d2" stroke="#1976d2" points="607.12,-545.48 598.7,-551.91 609.29,-552.13 607.12,-545.48"/>
</a>
</g>
</g>
<!-- qpg_9&#45;&gt;opm_8 -->
<g id="edge21" class="edge">
<title>qpg_9&#45;&gt;opm_8</title>
<g id="a_edge21"><a xlink:title="Type: references&#10;Context: ref OPM&#45;8">
<path fill="none" stroke="#1976d2" d="M627.05,-556.9C625.15,-557.58 623.2,-558.25 621.21,-558.91"/>
<polygon fill="#1976d2" stroke="#1976d2" points="620.34,-555.51 611.8,-561.78 622.39,-562.2 620.34,-555.51"/>
</a>
</g>
</g>
<!-- sin_4 -->
<g id="node43" class="node">
<title>sin_4</title>
<ellipse fill="none" stroke="black" cx="461.1" cy="-798" rx="32.1" ry="18"/>
<text text-anchor="middle" x="461.1" y="-792.58" font-family="Arial" font-size="14.00">sin_4</text>
</g>
<!-- sin_2 -->
<g id="node44" class="node">
<title>sin_2</title>
<ellipse fill="none" stroke="black" cx="505.5" cy="-854.68" rx="32.1" ry="18"/>
<text text-anchor="middle" x="505.5" y="-849.25" font-family="Arial" font-size="14.00">sin_2</text>
</g>
<!-- sin_4&#45;&gt;sin_2 -->
<g id="edge22" class="edge">
<title>sin_4&#45;&gt;sin_2</title>
<g id="a_edge22"><a xlink:title="Type: references&#10;Context: (ref SIN&#45;2)">
<path fill="none" stroke="#1976d2" d="M467.62,-815.97C470.71,-820.83 474.53,-826.13 478.56,-831.23"/>
<polygon fill="#1976d2" stroke="#1976d2" points="475.85,-833.44 484.95,-838.86 481.22,-828.95 475.85,-833.44"/>
</a>
</g>
</g>
<!-- sin_4&#45;&gt;sin_2 -->
<g id="edge23" class="edge">
<title>sin_4&#45;&gt;sin_2</title>
<g id="a_edge23"><a xlink:title="Type: references&#10;Context: ref SIN&#45;2">
<path fill="none" stroke="#1976d2" d="M480.66,-812.62C484.76,-817.23 488.96,-822.46 492.75,-827.62"/>
<polygon fill="#1976d2" stroke="#1976d2" points="489.59,-829.22 498.14,-835.48 495.36,-825.25 489.59,-829.22"/>
</a>
</g>
</g>
</g>
</svg>
