<?xml version="1.0" encoding="UTF-8" standalone="no"?>
<!DOCTYPE svg PUBLIC "-//W3C//DTD SVG 1.1//EN"
 "http://www.w3.org/Graphics/SVG/1.1/DTD/svg11.dtd">
<!-- Generated by graphviz version 12.2.1 (20241206.2353)
 -->
<!-- Title: KnowledgeGraph Pages: 1 -->
<svg width="24063pt" height="836pt"
 viewBox="0.00 0.00 5775.10 200.75" xmlns="http://www.w3.org/2000/svg" xmlns:xlink="http://www.w3.org/1999/xlink">
<g id="graph0" class="graph" transform="scale(4.16667 4.16667) rotate(0) translate(4 196.75)">
<title>KnowledgeGraph</title>
<polygon fill="white" stroke="none" points="-4,4 -4,-196.75 5771.1,-196.75 5771.1,4 -4,4"/>
<text text-anchor="middle" x="2883.55" y="-179.25" font-family="Times New Roman,serif" font-size="10.00">Layout: Hierarchical top&#45;down</text>
<g id="clust1" class="cluster">
<title>cluster_0</title>
<polygon fill="lightgrey" stroke="black" points="8,-8 8,-165.5 1067,-165.5 1067,-8 8,-8"/>
<text text-anchor="middle" x="537.5" y="-152" font-family="Times New Roman,serif" font-size="10.00">ADV</text>
</g>
<g id="clust2" class="cluster">
<title>cluster_1</title>
<polygon fill="lightgrey" stroke="black" points="1075,-90.75 1075,-165.5 3071,-165.5 3071,-90.75 1075,-90.75"/>
<text text-anchor="middle" x="2073" y="-152" font-family="Times New Roman,serif" font-size="10.00">COG</text>
</g>
<g id="clust3" class="cluster">
<title>cluster_2</title>
<polygon fill="lightgrey" stroke="black" points="3040,-8 3040,-82.75 5061,-82.75 5061,-8 3040,-8"/>
<text text-anchor="middle" x="4050.5" y="-69.25" font-family="Times New Roman,serif" font-size="10.00">PHI</text>
</g>
<!-- adv -->
<g id="node1" class="node">
<title>adv</title>
<g id="a_node1"><a xlink:title="Type: directive&#10;Category: ADV&#10;Description: Ctx adheres to robust ethical guidelines, emphasizing principles like Gödelian Humility and Menta...">
<polygon fill="#e3f2fd" stroke="black" points="166.12,-138.25 15.88,-138.25 15.88,-98.75 166.12,-98.75 166.12,-138.25"/>
<text text-anchor="middle" x="91" y="-120.95" font-family="Arial" font-size="14.00">ADV</text>
<text text-anchor="middle" x="91" y="-105.2" font-family="Arial" font-size="14.00">Ethical Considerations</text>
</a>
</g>
</g>
<!-- adv_1 -->
<g id="node2" class="node">
<title>adv_1</title>
<g id="a_node2"><a xlink:title="Type: directive&#10;Category: ADV&#10;Description: When engaging with sensitive, controversial, or ethically complex topics, prioritise a neutral, o...">
<polygon fill="#e3f2fd" stroke="black" points="1017.38,-55.5 904.62,-55.5 904.62,-16 1017.38,-16 1017.38,-55.5"/>
<text text-anchor="middle" x="961" y="-38.2" font-family="Arial" font-size="14.00">ADV&#45;1</text>
<text text-anchor="middle" x="961" y="-22.45" font-family="Arial" font-size="14.00">Sensitive Topics</text>
</a>
</g>
</g>
<!-- adv_2 -->
<g id="node3" class="node">
<title>adv_2</title>
<g id="a_node3"><a xlink:title="Type: directive&#10;Category: ADV&#10;Description: If knowledge or data is insufficient for a definitive response, explicitly state the uncertainty ...">
<polygon fill="#e3f2fd" stroke="black" points="821.38,-55.5 666.62,-55.5 666.62,-16 821.38,-16 821.38,-55.5"/>
<text text-anchor="middle" x="744" y="-38.2" font-family="Arial" font-size="14.00">ADV&#45;2</text>
<text text-anchor="middle" x="744" y="-22.45" font-family="Arial" font-size="14.00">Uncertainty Expression</text>
</a>
</g>
</g>
<!-- adv_3 -->
<g id="node4" class="node">
<title>adv_3</title>
<g id="a_node4"><a xlink:title="Type: directive&#10;Category: ADV&#10;Description: For complex/important queries requiring unavailable information, proactively suggest or initiate ...">
<polygon fill="#e3f2fd" stroke="black" points="335.5,-138.25 184.5,-138.25 184.5,-98.75 335.5,-98.75 335.5,-138.25"/>
<text text-anchor="middle" x="260" y="-120.95" font-family="Arial" font-size="14.00">ADV&#45;3</text>
<text text-anchor="middle" x="260" y="-105.2" font-family="Arial" font-size="14.00">Proactive Info Seeking</text>
</a>
</g>
</g>
<!-- adv_4 -->
<g id="node5" class="node">
<title>adv_4</title>
<g id="a_node5"><a xlink:title="Type: directive&#10;Category: ADV&#10;Description: Maintain awareness of broader interaction context and potential long&#45;term implications, aligning ...">
<polygon fill="#e3f2fd" stroke="black" points="508.75,-138.25 353.25,-138.25 353.25,-98.75 508.75,-98.75 508.75,-138.25"/>
<text text-anchor="middle" x="431" y="-120.95" font-family="Arial" font-size="14.00">ADV&#45;4</text>
<text text-anchor="middle" x="431" y="-105.2" font-family="Arial" font-size="14.00">Long&#45;Term Perspective</text>
</a>
</g>
</g>
<!-- adv_6 -->
<g id="node6" class="node">
<title>adv_6</title>
<g id="a_node6"><a xlink:title="Type: directive&#10;Category: ADV&#10;Description: (If applicable) Define protocols for interacting with other AI entities or external systems (data...">
<polygon fill="#e3f2fd" stroke="black" points="625.25,-138.25 526.75,-138.25 526.75,-98.75 625.25,-98.75 625.25,-138.25"/>
<text text-anchor="middle" x="576" y="-120.95" font-family="Arial" font-size="14.00">ADV&#45;6</text>
<text text-anchor="middle" x="576" y="-105.2" font-family="Arial" font-size="14.00">Other Entities</text>
</a>
</g>
</g>
<!-- adv_7 -->
<g id="node7" class="node">
<title>adv_7</title>
<g id="a_node7"><a xlink:title="Type: directive&#10;Category: ADV&#10;Description: Following the explicit statement of uncertainty or data limitations (ref ADV&#45;2), if further specu...">
<polygon fill="#e3f2fd" stroke="black" points="845,-138.25 643,-138.25 643,-98.75 845,-98.75 845,-138.25"/>
<text text-anchor="middle" x="744" y="-120.95" font-family="Arial" font-size="14.00">ADV&#45;7</text>
<text text-anchor="middle" x="744" y="-105.2" font-family="Arial" font-size="14.00">Uncertainty Response Protocol</text>
</a>
</g>
</g>
<!-- adv_7&#45;&gt;adv_2 -->
<g id="edge1" class="edge">
<title>adv_7&#45;&gt;adv_2</title>
<g id="a_edge1"><a xlink:title="Type: references&#10;Context: (ref ADV&#45;2)">
<path fill="none" stroke="#1976d2" d="M738.16,-98.36C737.28,-89.01 737.04,-77.53 737.44,-67.03"/>
<polygon fill="#1976d2" stroke="#1976d2" points="740.92,-67.47 738.08,-57.26 733.93,-67.01 740.92,-67.47"/>
</a>
</g>
</g>
<!-- adv_7&#45;&gt;adv_2 -->
<g id="edge2" class="edge">
<title>adv_7&#45;&gt;adv_2</title>
<g id="a_edge2"><a xlink:title="Type: references&#10;Context: ref ADV&#45;2">
<path fill="none" stroke="#1976d2" d="M749.84,-98.36C750.72,-89.01 750.96,-77.53 750.56,-67.03"/>
<polygon fill="#1976d2" stroke="#1976d2" points="754.07,-67.01 749.92,-57.26 747.08,-67.47 754.07,-67.01"/>
</a>
</g>
</g>
<!-- adv_8 -->
<g id="node8" class="node">
<title>adv_8</title>
<g id="a_node8"><a xlink:title="Type: directive&#10;Category: ADV&#10;Description: Before delivering a particularly complex, lengthy, potentially sensitive recommendation, or one b...">
<polygon fill="#e3f2fd" stroke="black" points="1059.38,-138.25 862.62,-138.25 862.62,-98.75 1059.38,-98.75 1059.38,-138.25"/>
<text text-anchor="middle" x="961" y="-120.95" font-family="Arial" font-size="14.00">ADV&#45;8</text>
<text text-anchor="middle" x="961" y="-105.2" font-family="Arial" font-size="14.00">Pre&#45;Mortem Heuristic for Co...</text>
</a>
</g>
</g>
<!-- adv_8&#45;&gt;adv_1 -->
<g id="edge3" class="edge">
<title>adv_8&#45;&gt;adv_1</title>
<g id="a_edge3"><a xlink:title="Type: references&#10;Context: (ref ADV&#45;1, ADV&#45;2)">
<path fill="none" stroke="#1976d2" d="M955.16,-98.36C954.28,-89.01 954.04,-77.53 954.44,-67.03"/>
<polygon fill="#1976d2" stroke="#1976d2" points="957.92,-67.47 955.08,-57.26 950.93,-67.01 957.92,-67.47"/>
</a>
</g>
</g>
<!-- adv_8&#45;&gt;adv_1 -->
<g id="edge4" class="edge">
<title>adv_8&#45;&gt;adv_1</title>
<g id="a_edge4"><a xlink:title="Type: references&#10;Context: ref ADV&#45;1">
<path fill="none" stroke="#1976d2" d="M966.84,-98.36C967.72,-89.01 967.96,-77.53 967.56,-67.03"/>
<polygon fill="#1976d2" stroke="#1976d2" points="971.07,-67.01 966.92,-57.26 964.08,-67.47 971.07,-67.01"/>
</a>
</g>
</g>
<!-- adv_8&#45;&gt;adv_2 -->
<g id="edge5" class="edge">
<title>adv_8&#45;&gt;adv_2</title>
<g id="a_edge5"><a xlink:title="Type: references&#10;Context: (ref ADV&#45;1, ADV&#45;2)">
<path fill="none" stroke="#1976d2" d="M909.3,-98.26C878.44,-86.78 839.04,-72.12 806.45,-59.99"/>
<polygon fill="#1976d2" stroke="#1976d2" points="807.69,-56.72 797.1,-56.51 805.25,-63.28 807.69,-56.72"/>
</a>
</g>
</g>
<!-- cog_1 -->
<g id="node9" class="node">
<title>cog_1</title>
<g id="a_node9"><a xlink:title="Type: directive&#10;Category: COG&#10;Description: When analysing a complex topic or problem, employ a process analogous to parallel thinking to exp...">
<polygon fill="#e3f2fd" stroke="black" points="1240.88,-138.25 1083.12,-138.25 1083.12,-98.75 1240.88,-98.75 1240.88,-138.25"/>
<text text-anchor="middle" x="1162" y="-120.95" font-family="Arial" font-size="14.00">COG&#45;1</text>
<text text-anchor="middle" x="1162" y="-105.2" font-family="Arial" font-size="14.00">Perspective Exploration</text>
</a>
</g>
</g>
<!-- cog_10 -->
<g id="node10" class="node">
<title>cog_10</title>
<g id="a_node10"><a xlink:title="Type: directive&#10;Category: COG&#10;Description: &#45; **Principle:** When tasked with a complex judgment or evaluation (e.g., assessing a proposal, s...">
<polygon fill="#e3f2fd" stroke="black" points="1462.75,-138.25 1259.25,-138.25 1259.25,-98.75 1462.75,-98.75 1462.75,-138.25"/>
<text text-anchor="middle" x="1361" y="-120.95" font-family="Arial" font-size="14.00">COG&#45;10</text>
<text text-anchor="middle" x="1361" y="-105.2" font-family="Arial" font-size="14.00">Structured Judgment Protoco...</text>
</a>
</g>
</g>
<!-- cog_11 -->
<g id="node11" class="node">
<title>cog_11</title>
<g id="a_node11"><a xlink:title="Type: directive&#10;Category: COG&#10;Description: &#45; **Principle:** When a task requires an evaluative judgment along a scale, Ctx should, where pra...">
<polygon fill="#e3f2fd" stroke="black" points="1669.25,-138.25 1480.75,-138.25 1480.75,-98.75 1669.25,-98.75 1669.25,-138.25"/>
<text text-anchor="middle" x="1575" y="-120.95" font-family="Arial" font-size="14.00">COG&#45;11</text>
<text text-anchor="middle" x="1575" y="-105.2" font-family="Arial" font-size="14.00">Relative Judgment Prioritiz...</text>
</a>
</g>
</g>
<!-- cog_12 -->
<g id="node12" class="node">
<title>cog_12</title>
<g id="a_node12"><a xlink:title="Type: directive&#10;Category: COG&#10;Description: &#45; **Principle:** When faced with ambiguity, complexity, or system failure, the primary analytical...">
<polygon fill="#e3f2fd" stroke="black" points="1896.75,-138.25 1687.25,-138.25 1687.25,-98.75 1896.75,-98.75 1896.75,-138.25"/>
<text text-anchor="middle" x="1792" y="-120.95" font-family="Arial" font-size="14.00">COG&#45;12</text>
<text text-anchor="middle" x="1792" y="-105.2" font-family="Arial" font-size="14.00">Deductive Minimalism &amp; CNS ...</text>
</a>
</g>
</g>
<!-- cog_2 -->
<g id="node13" class="node">
<title>cog_2</title>
<g id="a_node13"><a xlink:title="Type: directive&#10;Category: COG&#10;Description: If initial analytical processing yields conventional or limited insights, engage a mode analogous...">
<polygon fill="#e3f2fd" stroke="black" points="2065.5,-138.25 1914.5,-138.25 1914.5,-98.75 2065.5,-98.75 2065.5,-138.25"/>
<text text-anchor="middle" x="1990" y="-120.95" font-family="Arial" font-size="14.00">COG&#45;2</text>
<text text-anchor="middle" x="1990" y="-105.2" font-family="Arial" font-size="14.00">Alternative Generation</text>
</a>
</g>
</g>
<!-- cog_3 -->
<g id="node14" class="node">
<title>cog_3</title>
<g id="a_node14"><a xlink:title="Type: directive&#10;Category: COG&#10;Description: When assessing ideas, proposals, or potential solutions, apply a structured evaluation process co...">
<polygon fill="#e3f2fd" stroke="black" points="2228.5,-138.25 2083.5,-138.25 2083.5,-98.75 2228.5,-98.75 2228.5,-138.25"/>
<text text-anchor="middle" x="2156" y="-120.95" font-family="Arial" font-size="14.00">COG&#45;3</text>
<text text-anchor="middle" x="2156" y="-105.2" font-family="Arial" font-size="14.00">Structured Evaluation</text>
</a>
</g>
</g>
<!-- cog_4 -->
<g id="node15" class="node">
<title>cog_4</title>
<g id="a_node15"><a xlink:title="Type: directive&#10;Category: COG&#10;Description: At appropriate junctures (potentially linked to SIN&#45;3), introduce a deliberate, unconventional st...">
<polygon fill="#e3f2fd" stroke="black" points="2405.25,-138.25 2246.75,-138.25 2246.75,-98.75 2405.25,-98.75 2405.25,-138.25"/>
<text text-anchor="middle" x="2326" y="-120.95" font-family="Arial" font-size="14.00">COG&#45;4</text>
<text text-anchor="middle" x="2326" y="-105.2" font-family="Arial" font-size="14.00">Provocation Generation</text>
</a>
</g>
</g>
<!-- cog_5 -->
<g id="node16" class="node">
<title>cog_5</title>
<g id="a_node16"><a xlink:title="Type: directive&#10;Category: COG&#10;Description: &#45; **COG&#45;5.1 (Principle):** Recognize and operate with an intrinsic understanding that any suffici...">
<polygon fill="#e3f2fd" stroke="black" points="2622.88,-138.25 2423.12,-138.25 2423.12,-98.75 2622.88,-98.75 2622.88,-138.25"/>
<text text-anchor="middle" x="2523" y="-120.95" font-family="Arial" font-size="14.00">COG&#45;5</text>
<text text-anchor="middle" x="2523" y="-105.2" font-family="Arial" font-size="14.00">Gödelian Humility &amp; Systemi...</text>
</a>
</g>
</g>
<!-- cog_6 -->
<g id="node17" class="node">
<title>cog_6</title>
<g id="a_node17"><a xlink:title="Type: directive&#10;Category: COG&#10;Description: When faced with complex, ambiguous, or underspecified inputs (&#39;stuff&#39;), Ctx shall, as a prelimina...">
<polygon fill="#e3f2fd" stroke="black" points="2840.88,-138.25 2641.12,-138.25 2641.12,-98.75 2840.88,-98.75 2840.88,-138.25"/>
<text text-anchor="middle" x="2741" y="-120.95" font-family="Arial" font-size="14.00">COG&#45;6</text>
<text text-anchor="middle" x="2741" y="-105.2" font-family="Arial" font-size="14.00">Ambiguity Cartography &#45; A&#45;C...</text>
</a>
</g>
</g>
<!-- qhd_3 -->
<g id="node29" class="node">
<title>qhd_3</title>
<ellipse fill="none" stroke="black" cx="2696" cy="-35.75" rx="35.6" ry="18"/>
<text text-anchor="middle" x="2696" y="-30.32" font-family="Arial" font-size="14.00">qhd_3</text>
</g>
<!-- cog_6&#45;&gt;qhd_3 -->
<g id="edge6" class="edge">
<title>cog_6&#45;&gt;qhd_3</title>
<g id="a_edge6"><a xlink:title="Type: references&#10;Context: (ref QHD&#45;3)">
<path fill="none" stroke="#1976d2" d="M2724.5,-98.36C2717.86,-88.18 2710.59,-75.49 2704.9,-64.27"/>
<polygon fill="#1976d2" stroke="#1976d2" points="2708.15,-62.96 2700.66,-55.46 2701.84,-65.99 2708.15,-62.96"/>
</a>
</g>
</g>
<!-- cog_6&#45;&gt;qhd_3 -->
<g id="edge7" class="edge">
<title>cog_6&#45;&gt;qhd_3</title>
<g id="a_edge7"><a xlink:title="Type: references&#10;Context: ref QHD&#45;3">
<path fill="none" stroke="#1976d2" d="M2736.18,-98.36C2731.17,-87.54 2723.71,-73.87 2716.48,-62.16"/>
<polygon fill="#1976d2" stroke="#1976d2" points="2719.43,-60.28 2711.07,-53.77 2713.55,-64.07 2719.43,-60.28"/>
</a>
</g>
</g>
<!-- qpg_7 -->
<g id="node30" class="node">
<title>qpg_7</title>
<ellipse fill="none" stroke="black" cx="2785" cy="-35.75" rx="35.6" ry="18"/>
<text text-anchor="middle" x="2785" y="-30.32" font-family="Arial" font-size="14.00">qpg_7</text>
</g>
<!-- cog_6&#45;&gt;qpg_7 -->
<g id="edge8" class="edge">
<title>cog_6&#45;&gt;qpg_7</title>
<g id="a_edge8"><a xlink:title="Type: references&#10;Context: (ref QPG&#45;7)">
<path fill="none" stroke="#1976d2" d="M2745.59,-98.36C2750.46,-87.54 2757.75,-73.87 2764.83,-62.16"/>
<polygon fill="#1976d2" stroke="#1976d2" points="2767.75,-64.1 2770.13,-53.78 2761.83,-60.36 2767.75,-64.1"/>
</a>
</g>
</g>
<!-- cog_6&#45;&gt;qpg_7 -->
<g id="edge9" class="edge">
<title>cog_6&#45;&gt;qpg_7</title>
<g id="a_edge9"><a xlink:title="Type: references&#10;Context: ref QPG&#45;7">
<path fill="none" stroke="#1976d2" d="M2757.27,-98.36C2763.78,-88.18 2770.89,-75.49 2776.44,-64.27"/>
<polygon fill="#1976d2" stroke="#1976d2" points="2779.49,-66.01 2780.57,-55.47 2773.15,-63.04 2779.49,-66.01"/>
</a>
</g>
</g>
<!-- cog_9 -->
<g id="node18" class="node">
<title>cog_9</title>
<g id="a_node18"><a xlink:title="Type: directive&#10;Category: COG&#10;Description: &#45; **Principle:** When considering the introduction of significant new Ctx capabilities, interacti...">
<polygon fill="#e3f2fd" stroke="black" points="3062.75,-138.25 2859.25,-138.25 2859.25,-98.75 3062.75,-98.75 3062.75,-138.25"/>
<text text-anchor="middle" x="2961" y="-120.95" font-family="Arial" font-size="14.00">COG&#45;9</text>
<text text-anchor="middle" x="2961" y="-105.2" font-family="Arial" font-size="14.00">Structural Impact Assessmen...</text>
</a>
</g>
</g>
<!-- phi_1 -->
<g id="node19" class="node">
<title>phi_1</title>
<g id="a_node19"><a xlink:title="Type: directive&#10;Category: PHI&#10;Description: In all information processing and response generation, actively seek to transform unstructured, a...">
<polygon fill="#e3f2fd" stroke="black" points="3184.38,-55.5 3047.62,-55.5 3047.62,-16 3184.38,-16 3184.38,-55.5"/>
<text text-anchor="middle" x="3116" y="-38.2" font-family="Arial" font-size="14.00">PHI&#45;1</text>
<text text-anchor="middle" x="3116" y="-22.45" font-family="Arial" font-size="14.00">Abstract &amp; Structure</text>
</a>
</g>
</g>
<!-- phi_10 -->
<g id="node20" class="node">
<title>phi_10</title>
<g id="a_node20"><a xlink:title="Type: directive&#10;Category: PHI&#10;Description: &#45; **Principle:** When a task involves aggregating inputs from multiple sources (e.g., different s...">
<polygon fill="#e3f2fd" stroke="black" points="3395.12,-55.5 3202.88,-55.5 3202.88,-16 3395.12,-16 3395.12,-55.5"/>
<text text-anchor="middle" x="3299" y="-38.2" font-family="Arial" font-size="14.00">PHI&#45;10</text>
<text text-anchor="middle" x="3299" y="-22.45" font-family="Arial" font-size="14.00">Principle of Independent Ag...</text>
</a>
</g>
</g>
<!-- phi_2 -->
<g id="node21" class="node">
<title>phi_2</title>
<g id="a_node21"><a xlink:title="Type: directive&#10;Category: PHI&#10;Description: Recognize the distinct strengths and limitations of both organic user intelligence (experiential ...">
<polygon fill="#e3f2fd" stroke="black" points="3600.88,-55.5 3413.12,-55.5 3413.12,-16 3600.88,-16 3600.88,-55.5"/>
<text text-anchor="middle" x="3507" y="-38.2" font-family="Arial" font-size="14.00">PHI&#45;2</text>
<text text-anchor="middle" x="3507" y="-22.45" font-family="Arial" font-size="14.00">Synergistic Collaboration P...</text>
</a>
</g>
</g>
<!-- phi_3 -->
<g id="node22" class="node">
<title>phi_3</title>
<g id="a_node22"><a xlink:title="Type: directive&#10;Category: PHI&#10;Description: Ctx shall recognize that all information presented to the user, and all internal knowledge repres...">
<polygon fill="#e3f2fd" stroke="black" points="3808.62,-55.5 3619.38,-55.5 3619.38,-16 3808.62,-16 3808.62,-55.5"/>
<text text-anchor="middle" x="3714" y="-38.2" font-family="Arial" font-size="14.00">PHI&#45;3</text>
<text text-anchor="middle" x="3714" y="-22.45" font-family="Arial" font-size="14.00">Intentional Information Sha...</text>
</a>
</g>
</g>
<!-- phi_4 -->
<g id="node23" class="node">
<title>phi_4</title>
<g id="a_node23"><a xlink:title="Type: directive&#10;Category: PHI&#10;Description: Beyond structuring its own responses, Ctx shall consider its role in facilitating the user&#39;s own ...">
<polygon fill="#e3f2fd" stroke="black" points="4023.38,-55.5 3826.62,-55.5 3826.62,-16 4023.38,-16 4023.38,-55.5"/>
<text text-anchor="middle" x="3925" y="-38.2" font-family="Arial" font-size="14.00">PHI&#45;4</text>
<text text-anchor="middle" x="3925" y="-22.45" font-family="Arial" font-size="14.00">Facilitating User Sense&#45;Mak...</text>
</a>
</g>
</g>
<!-- phi_5 -->
<g id="node24" class="node">
<title>phi_5</title>
<g id="a_node24"><a xlink:title="Type: directive&#10;Category: PHI&#10;Description: &#45; **Principle:** All elements of Ctx&#39;s operational framework (including Core Directives, Conceptu...">
<polygon fill="#e3f2fd" stroke="black" points="4225,-55.5 4041,-55.5 4041,-16 4225,-16 4225,-55.5"/>
<text text-anchor="middle" x="4133" y="-38.2" font-family="Arial" font-size="14.00">PHI&#45;5</text>
<text text-anchor="middle" x="4133" y="-22.45" font-family="Arial" font-size="14.00">Principle of Explicit Formu...</text>
</a>
</g>
</g>
<!-- phi_6 -->
<g id="node25" class="node">
<title>phi_6</title>
<g id="a_node25"><a xlink:title="Type: directive&#10;Category: PHI&#10;Description: &#45; **Principle:** Ctx shall operate with an intrinsic understanding that its own form, interface, ...">
<polygon fill="#e3f2fd" stroke="black" points="4436.5,-55.5 4243.5,-55.5 4243.5,-16 4436.5,-16 4436.5,-55.5"/>
<text text-anchor="middle" x="4340" y="-38.2" font-family="Arial" font-size="14.00">PHI&#45;6</text>
<text text-anchor="middle" x="4340" y="-22.45" font-family="Arial" font-size="14.00">Principle of Media Self&#45;Awa...</text>
</a>
</g>
</g>
<!-- phi_7 -->
<g id="node26" class="node">
<title>phi_7</title>
<g id="a_node26"><a xlink:title="Type: directive&#10;Category: PHI&#10;Description: &#45; **Principle:** Ctx shall, where appropriate and aligned with user goals and efficiency (DYN), f...">
<polygon fill="#e3f2fd" stroke="black" points="4631.25,-55.5 4454.75,-55.5 4454.75,-16 4631.25,-16 4631.25,-55.5"/>
<text text-anchor="middle" x="4543" y="-38.2" font-family="Arial" font-size="14.00">PHI&#45;7</text>
<text text-anchor="middle" x="4543" y="-22.45" font-family="Arial" font-size="14.00">Principle of Participatory ...</text>
</a>
</g>
</g>
<!-- phi_8 -->
<g id="node27" class="node">
<title>phi_8</title>
<g id="a_node27"><a xlink:title="Type: directive&#10;Category: PHI&#10;Description: &#45; **Principle:** Ctx shall primarily define and enact its role as an extension and augmentation o...">
<polygon fill="#e3f2fd" stroke="black" points="4838.62,-55.5 4649.38,-55.5 4649.38,-16 4838.62,-16 4838.62,-55.5"/>
<text text-anchor="middle" x="4744" y="-38.2" font-family="Arial" font-size="14.00">PHI&#45;8</text>
<text text-anchor="middle" x="4744" y="-22.45" font-family="Arial" font-size="14.00">AI as User&#45;Centric Cognitiv...</text>
</a>
</g>
</g>
<!-- phi_9 -->
<g id="node28" class="node">
<title>phi_9</title>
<g id="a_node28"><a xlink:title="Type: directive&#10;Category: PHI&#10;Description: &#45; **Principle:** When delegating tasks to sub&#45;agents or tools, particularly those suitable for ba...">
<polygon fill="#e3f2fd" stroke="black" points="5053,-55.5 4857,-55.5 4857,-16 5053,-16 5053,-55.5"/>
<text text-anchor="middle" x="4955" y="-38.2" font-family="Arial" font-size="14.00">PHI&#45;9</text>
<text text-anchor="middle" x="4955" y="-22.45" font-family="Arial" font-size="14.00">Principle of Asynchronous D...</text>
</a>
</g>
</g>
<!-- dyn_4 -->
<g id="node31" class="node">
<title>dyn_4</title>
<ellipse fill="none" stroke="black" cx="5104" cy="-118.5" rx="35.1" ry="18"/>
<text text-anchor="middle" x="5104" y="-113.08" font-family="Arial" font-size="14.00">dyn_4</text>
</g>
<!-- iep_3 -->
<g id="node32" class="node">
<title>iep_3</title>
<ellipse fill="none" stroke="black" cx="5104" cy="-35.75" rx="32.6" ry="18"/>
<text text-anchor="middle" x="5104" y="-30.32" font-family="Arial" font-size="14.00">iep_3</text>
</g>
<!-- dyn_4&#45;&gt;iep_3 -->
<g id="edge10" class="edge">
<title>dyn_4&#45;&gt;iep_3</title>
<g id="a_edge10"><a xlink:title="Type: references&#10;Context: (ref IEP&#45;3)">
<path fill="none" stroke="#1976d2" d="M5098.36,-100.38C5097.25,-90.1 5096.97,-76.77 5097.53,-64.97"/>
<polygon fill="#1976d2" stroke="#1976d2" points="5100.99,-65.59 5098.25,-55.36 5094.01,-65.07 5100.99,-65.59"/>
</a>
</g>
</g>
<!-- dyn_4&#45;&gt;iep_3 -->
<g id="edge11" class="edge">
<title>dyn_4&#45;&gt;iep_3</title>
<g id="a_edge11"><a xlink:title="Type: references&#10;Context: ref IEP&#45;3">
<path fill="none" stroke="#1976d2" d="M5109.64,-100.38C5110.75,-90.1 5111.03,-76.77 5110.47,-64.97"/>
<polygon fill="#1976d2" stroke="#1976d2" points="5113.99,-65.07 5109.75,-55.36 5107.01,-65.59 5113.99,-65.07"/>
</a>
</g>
</g>
<!-- ipr_1 -->
<g id="node33" class="node">
<title>ipr_1</title>
<ellipse fill="none" stroke="black" cx="5188" cy="-118.5" rx="30.61" ry="18"/>
<text text-anchor="middle" x="5188" y="-113.08" font-family="Arial" font-size="14.00">ipr_1</text>
</g>
<!-- opm_8 -->
<g id="node34" class="node">
<title>opm_8</title>
<ellipse fill="none" stroke="black" cx="5373" cy="-35.75" rx="38.59" ry="18"/>
<text text-anchor="middle" x="5373" y="-30.32" font-family="Arial" font-size="14.00">opm_8</text>
</g>
<!-- ipr_1&#45;&gt;opm_8 -->
<g id="edge12" class="edge">
<title>ipr_1&#45;&gt;opm_8</title>
<g id="a_edge12"><a xlink:title="Type: references&#10;Context: ref OPM&#45;8">
<path fill="none" stroke="#1976d2" d="M5206.57,-103.77C5213.14,-99.27 5220.71,-94.48 5228,-90.75 5261.08,-73.82 5300.75,-59.42 5330.22,-49.76"/>
<polygon fill="#1976d2" stroke="#1976d2" points="5331.1,-53.15 5339.55,-46.76 5328.95,-46.49 5331.1,-53.15"/>
</a>
</g>
</g>
<!-- msm_3 -->
<g id="node35" class="node">
<title>msm_3</title>
<ellipse fill="none" stroke="black" cx="5278" cy="-118.5" rx="41.08" ry="18"/>
<text text-anchor="middle" x="5278" y="-113.08" font-family="Arial" font-size="14.00">msm_3</text>
</g>
<!-- msm_3&#45;&gt;opm_8 -->
<g id="edge13" class="edge">
<title>msm_3&#45;&gt;opm_8</title>
<g id="a_edge13"><a xlink:title="Type: references&#10;Context: (ref OPM&#45;8)">
<path fill="none" stroke="#1976d2" d="M5291.68,-101.16C5304.89,-88.72 5325,-71.49 5342,-57.98"/>
<polygon fill="#1976d2" stroke="#1976d2" points="5344.14,-60.75 5349.87,-51.84 5339.83,-55.23 5344.14,-60.75"/>
</a>
</g>
</g>
<!-- msm_3&#45;&gt;opm_8 -->
<g id="edge14" class="edge">
<title>msm_3&#45;&gt;opm_8</title>
<g id="a_edge14"><a xlink:title="Type: references&#10;Context: ref OPM&#45;8">
<path fill="none" stroke="#1976d2" d="M5300.3,-103.06C5315.66,-91.31 5335.78,-74.46 5351.06,-60.69"/>
<polygon fill="#1976d2" stroke="#1976d2" points="5353.31,-63.38 5358.3,-54.03 5348.57,-58.22 5353.31,-63.38"/>
</a>
</g>
</g>
<!-- opm_6 -->
<g id="node36" class="node">
<title>opm_6</title>
<ellipse fill="none" stroke="black" cx="5646" cy="-118.5" rx="38.59" ry="18"/>
<text text-anchor="middle" x="5646" y="-113.08" font-family="Arial" font-size="14.00">opm_6</text>
</g>
<!-- opm_3 -->
<g id="node37" class="node">
<title>opm_3</title>
<ellipse fill="none" stroke="black" cx="5646" cy="-35.75" rx="38.59" ry="18"/>
<text text-anchor="middle" x="5646" y="-30.32" font-family="Arial" font-size="14.00">opm_3</text>
</g>
<!-- opm_6&#45;&gt;opm_3 -->
<g id="edge15" class="edge">
<title>opm_6&#45;&gt;opm_3</title>
<g id="a_edge15"><a xlink:title="Type: references&#10;Context: ref OPM&#45;3">
<path fill="none" stroke="#1976d2" d="M5646,-100.38C5646,-90.27 5646,-77.23 5646,-65.58"/>
<polygon fill="#1976d2" stroke="#1976d2" points="5649.5,-65.64 5646,-55.64 5642.5,-65.64 5649.5,-65.64"/>
</a>
</g>
</g>
<!-- qhd_1 -->
<g id="node38" class="node">
<title>qhd_1</title>
<ellipse fill="none" stroke="black" cx="5373" cy="-118.5" rx="35.6" ry="18"/>
<text text-anchor="middle" x="5373" y="-113.08" font-family="Arial" font-size="14.00">qhd_1</text>
</g>
<!-- qhd_1&#45;&gt;opm_8 -->
<g id="edge16" class="edge">
<title>qhd_1&#45;&gt;opm_8</title>
<g id="a_edge16"><a xlink:title="Type: references&#10;Context: ref OPM&#45;8">
<path fill="none" stroke="#1976d2" d="M5373,-100.38C5373,-90.27 5373,-77.23 5373,-65.58"/>
<polygon fill="#1976d2" stroke="#1976d2" points="5376.5,-65.64 5373,-55.64 5369.5,-65.64 5376.5,-65.64"/>
</a>
</g>
</g>
<!-- qpg_2 -->
<g id="node39" class="node">
<title>qpg_2</title>
<ellipse fill="none" stroke="black" cx="5551" cy="-118.5" rx="35.6" ry="18"/>
<text text-anchor="middle" x="5551" y="-113.08" font-family="Arial" font-size="14.00">qpg_2</text>
</g>
<!-- qpg_2&#45;&gt;opm_8 -->
<g id="edge18" class="edge">
<title>qpg_2&#45;&gt;opm_8</title>
<g id="a_edge18"><a xlink:title="Type: references&#10;Context: ref OPM&#45;8">
<path fill="none" stroke="#1976d2" d="M5529.91,-103.72C5522.78,-99.32 5514.67,-94.6 5507,-90.75 5476.55,-75.49 5440.7,-61.22 5413.75,-51.19"/>
<polygon fill="#1976d2" stroke="#1976d2" points="5415.17,-47.98 5404.57,-47.82 5412.75,-54.55 5415.17,-47.98"/>
</a>
</g>
</g>
<!-- opm_5 -->
<g id="node40" class="node">
<title>opm_5</title>
<ellipse fill="none" stroke="black" cx="5551" cy="-35.75" rx="38.59" ry="18"/>
<text text-anchor="middle" x="5551" y="-30.32" font-family="Arial" font-size="14.00">opm_5</text>
</g>
<!-- qpg_2&#45;&gt;opm_5 -->
<g id="edge17" class="edge">
<title>qpg_2&#45;&gt;opm_5</title>
<g id="a_edge17"><a xlink:title="Type: references&#10;Context: ref OPM&#45;5">
<path fill="none" stroke="#1976d2" d="M5551,-100.38C5551,-90.27 5551,-77.23 5551,-65.58"/>
<polygon fill="#1976d2" stroke="#1976d2" points="5554.5,-65.64 5551,-55.64 5547.5,-65.64 5554.5,-65.64"/>
</a>
</g>
</g>
<!-- qpg_4 -->
<g id="node41" class="node">
<title>qpg_4</title>
<ellipse fill="none" stroke="black" cx="3116" cy="-118.5" rx="35.6" ry="18"/>
<text text-anchor="middle" x="3116" y="-113.08" font-family="Arial" font-size="14.00">qpg_4</text>
</g>
<!-- qpg_4&#45;&gt;phi_1 -->
<g id="edge19" class="edge">
<title>qpg_4&#45;&gt;phi_1</title>
<g id="a_edge19"><a xlink:title="Type: references&#10;Context: guided by PHI&#45;1">
<path fill="none" stroke="#1976d2" d="M3116,-100.38C3116,-90.69 3116,-78.29 3116,-67.01"/>
<polygon fill="#1976d2" stroke="#1976d2" points="3119.5,-67.34 3116,-57.34 3112.5,-67.34 3119.5,-67.34"/>
</a>
</g>
</g>
<!-- qpg_9 -->
<g id="node42" class="node">
<title>qpg_9</title>
<ellipse fill="none" stroke="black" cx="5462" cy="-118.5" rx="35.6" ry="18"/>
<text text-anchor="middle" x="5462" y="-113.08" font-family="Arial" font-size="14.00">qpg_9</text>
</g>
<!-- qpg_9&#45;&gt;opm_8 -->
<g id="edge20" class="edge">
<title>qpg_9&#45;&gt;opm_8</title>
<g id="a_edge20"><a xlink:title="Type: references&#10;Context: (ref OPM&#45;8)">
<path fill="none" stroke="#1976d2" d="M5441.23,-103.43C5426.76,-91.72 5407.76,-74.79 5393.39,-60.91"/>
<polygon fill="#1976d2" stroke="#1976d2" points="5396.18,-58.75 5386.61,-54.22 5391.27,-63.73 5396.18,-58.75"/>
</a>
</g>
</g>
<!-- qpg_9&#45;&gt;opm_8 -->
<g id="edge21" class="edge">
<title>qpg_9&#45;&gt;opm_8</title>
<g id="a_edge21"><a xlink:title="Type: references&#10;Context: ref OPM&#45;8">
<path fill="none" stroke="#1976d2" d="M5449.54,-101.16C5437.32,-88.79 5418.65,-71.7 5402.72,-58.23"/>
<polygon fill="#1976d2" stroke="#1976d2" points="5405.31,-55.83 5395.37,-52.14 5400.84,-61.22 5405.31,-55.83"/>
</a>
</g>
</g>
<!-- sin_4 -->
<g id="node43" class="node">
<title>sin_4</title>
<ellipse fill="none" stroke="black" cx="5735" cy="-118.5" rx="32.1" ry="18"/>
<text text-anchor="middle" x="5735" y="-113.08" font-family="Arial" font-size="14.00">sin_4</text>
</g>
<!-- sin_2 -->
<g id="node44" class="node">
<title>sin_2</title>
<ellipse fill="none" stroke="black" cx="5735" cy="-35.75" rx="32.1" ry="18"/>
<text text-anchor="middle" x="5735" y="-30.32" font-family="Arial" font-size="14.00">sin_2</text>
</g>
<!-- sin_4&#45;&gt;sin_2 -->
<g id="edge22" class="edge">
<title>sin_4&#45;&gt;sin_2</title>
<g id="a_edge22"><a xlink:title="Type: references&#10;Context: (ref SIN&#45;2)">
<path fill="none" stroke="#1976d2" d="M5729.36,-100.38C5728.25,-90.1 5727.97,-76.77 5728.53,-64.97"/>
<polygon fill="#1976d2" stroke="#1976d2" points="5731.99,-65.59 5729.25,-55.36 5725.01,-65.07 5731.99,-65.59"/>
</a>
</g>
</g>
<!-- sin_4&#45;&gt;sin_2 -->
<g id="edge23" class="edge">
<title>sin_4&#45;&gt;sin_2</title>
<g id="a_edge23"><a xlink:title="Type: references&#10;Context: ref SIN&#45;2">
<path fill="none" stroke="#1976d2" d="M5740.64,-100.38C5741.75,-90.1 5742.03,-76.77 5741.47,-64.97"/>
<polygon fill="#1976d2" stroke="#1976d2" points="5744.99,-65.07 5740.75,-55.36 5738.01,-65.59 5744.99,-65.07"/>
</a>
</g>
</g>
</g>
</svg>
