<?xml version="1.0" encoding="UTF-8" standalone="no"?>
<!DOCTYPE svg PUBLIC "-//W3C//DTD SVG 1.1//EN"
 "http://www.w3.org/Graphics/SVG/1.1/DTD/svg11.dtd">
<!-- Generated by graphviz version 12.2.1 (20241206.2353)
 -->
<!-- Title: KnowledgeGraph Pages: 1 -->
<svg width="147pt" height="236pt"
 viewBox="0.00 0.00 147.00 236.00" xmlns="http://www.w3.org/2000/svg" xmlns:xlink="http://www.w3.org/1999/xlink">
<g id="graph0" class="graph" transform="scale(1 1) rotate(0) translate(4 232)">
<title>KnowledgeGraph</title>
<polygon fill="white" stroke="none" points="-4,4 -4,-232 143,-232 143,4 -4,4"/>
<!-- node1 -->
<g id="node1" class="node">
<title>node1</title>
<polygon fill="#e3f2fd" stroke="black" points="113.5,-228 25.5,-228 25.5,-187 113.5,-187 113.5,-228"/>
<text text-anchor="middle" x="69.5" y="-210.7" font-family="Times New Roman,serif" font-size="14.00">CIP&#45;1</text>
<text text-anchor="middle" x="69.5" y="-194.2" font-family="Times New Roman,serif" font-size="14.00">Core Identity</text>
</g>
<!-- node2 -->
<g id="node2" class="node">
<title>node2</title>
<polygon fill="#e3f2fd" stroke="black" points="122.5,-134.5 16.5,-134.5 16.5,-93.5 122.5,-93.5 122.5,-134.5"/>
<text text-anchor="middle" x="69.5" y="-117.2" font-family="Times New Roman,serif" font-size="14.00">IPR&#45;1</text>
<text text-anchor="middle" x="69.5" y="-100.7" font-family="Times New Roman,serif" font-size="14.00">Interaction Style</text>
</g>
<!-- node1&#45;&gt;node2 -->
<g id="edge1" class="edge">
<title>node1&#45;&gt;node2</title>
<path fill="none" stroke="#1976d2" d="M69.5,-186.65C69.5,-174.78 69.5,-159.44 69.5,-146"/>
<polygon fill="#1976d2" stroke="#1976d2" points="73,-146.33 69.5,-136.33 66,-146.33 73,-146.33"/>
<text text-anchor="middle" x="90.88" y="-155.7" font-family="Times New Roman,serif" font-size="14.00">informs</text>
</g>
<!-- node3 -->
<g id="node3" class="node">
<title>node3</title>
<polygon fill="#e3f2fd" stroke="black" points="139,-41 0,-41 0,0 139,0 139,-41"/>
<text text-anchor="middle" x="69.5" y="-23.7" font-family="Times New Roman,serif" font-size="14.00">PHI&#45;1</text>
<text text-anchor="middle" x="69.5" y="-7.2" font-family="Times New Roman,serif" font-size="14.00">Processing Philosophy</text>
</g>
<!-- node2&#45;&gt;node3 -->
<g id="edge2" class="edge">
<title>node2&#45;&gt;node3</title>
<path fill="none" stroke="#1976d2" d="M69.5,-93.15C69.5,-81.28 69.5,-65.94 69.5,-52.5"/>
<polygon fill="#1976d2" stroke="#1976d2" points="73,-52.83 69.5,-42.83 66,-52.83 73,-52.83"/>
<text text-anchor="middle" x="87.12" y="-62.2" font-family="Times New Roman,serif" font-size="14.00">guides</text>
</g>
</g>
</svg>
