<?xml version="1.0" encoding="UTF-8" standalone="no"?>
<!DOCTYPE svg PUBLIC "-//W3C//DTD SVG 1.1//EN"
 "http://www.w3.org/Graphics/SVG/1.1/DTD/svg11.dtd">
<!-- Generated by graphviz version 12.2.1 (20241206.2353)
 -->
<!-- Title: KnowledgeGraph Pages: 1 -->
<svg width="4023pt" height="3746pt"
 viewBox="0.00 0.00 965.60 899.00" xmlns="http://www.w3.org/2000/svg" xmlns:xlink="http://www.w3.org/1999/xlink">
<g id="graph0" class="graph" transform="scale(4.16667 4.16667) rotate(0) translate(4 895)">
<title>KnowledgeGraph</title>
<polygon fill="white" stroke="none" points="-4,4 -4,-895 961.6,-895 961.6,4 -4,4"/>
<text text-anchor="middle" x="478.8" y="-877.5" font-family="Times New Roman,serif" font-size="10.00">Layout: Radial layout</text>
<!-- adv -->
<g id="node1" class="node">
<title>adv</title>
<g id="a_node1"><a xlink:title="Type: directive&#10;Category: ADV&#10;Description: Ctx adheres to robust ethical guidelines, emphasizing principles like Gödelian Humility and Menta...">
<polygon fill="#e3f2fd" stroke="black" points="358.23,-52.75 207.98,-52.75 207.98,-13.25 358.23,-13.25 358.23,-52.75"/>
<text text-anchor="middle" x="283.1" y="-35.45" font-family="Arial" font-size="14.00">ADV</text>
<text text-anchor="middle" x="283.1" y="-19.7" font-family="Arial" font-size="14.00">Ethical Considerations</text>
</a>
</g>
</g>
<!-- adv_1 -->
<g id="node2" class="node">
<title>adv_1</title>
<g id="a_node2"><a xlink:title="Type: directive&#10;Category: ADV&#10;Description: When engaging with sensitive, controversial, or ethically complex topics, prioritise a neutral, o...">
<polygon fill="#e3f2fd" stroke="black" points="456.48,-325.75 343.73,-325.75 343.73,-286.25 456.48,-286.25 456.48,-325.75"/>
<text text-anchor="middle" x="400.1" y="-308.45" font-family="Arial" font-size="14.00">ADV&#45;1</text>
<text text-anchor="middle" x="400.1" y="-292.7" font-family="Arial" font-size="14.00">Sensitive Topics</text>
</a>
</g>
</g>
<!-- adv_2 -->
<g id="node3" class="node">
<title>adv_2</title>
<g id="a_node3"><a xlink:title="Type: directive&#10;Category: ADV&#10;Description: If knowledge or data is insufficient for a definitive response, explicitly state the uncertainty ...">
<polygon fill="#e3f2fd" stroke="black" points="477.48,-469.75 322.73,-469.75 322.73,-430.25 477.48,-430.25 477.48,-469.75"/>
<text text-anchor="middle" x="400.1" y="-452.45" font-family="Arial" font-size="14.00">ADV&#45;2</text>
<text text-anchor="middle" x="400.1" y="-436.7" font-family="Arial" font-size="14.00">Uncertainty Expression</text>
</a>
</g>
</g>
<!-- adv_3 -->
<g id="node4" class="node">
<title>adv_3</title>
<g id="a_node4"><a xlink:title="Type: directive&#10;Category: ADV&#10;Description: For complex/important queries requiring unavailable information, proactively suggest or initiate ...">
<polygon fill="#e3f2fd" stroke="black" points="437.6,-871.75 286.6,-871.75 286.6,-832.25 437.6,-832.25 437.6,-871.75"/>
<text text-anchor="middle" x="362.1" y="-854.45" font-family="Arial" font-size="14.00">ADV&#45;3</text>
<text text-anchor="middle" x="362.1" y="-838.7" font-family="Arial" font-size="14.00">Proactive Info Seeking</text>
</a>
</g>
</g>
<!-- adv_4 -->
<g id="node5" class="node">
<title>adv_4</title>
<g id="a_node5"><a xlink:title="Type: directive&#10;Category: ADV&#10;Description: Maintain awareness of broader interaction context and potential long&#45;term implications, aligning ...">
<polygon fill="#e3f2fd" stroke="black" points="168.85,-689.75 13.35,-689.75 13.35,-650.25 168.85,-650.25 168.85,-689.75"/>
<text text-anchor="middle" x="91.1" y="-672.45" font-family="Arial" font-size="14.00">ADV&#45;4</text>
<text text-anchor="middle" x="91.1" y="-656.7" font-family="Arial" font-size="14.00">Long&#45;Term Perspective</text>
</a>
</g>
</g>
<!-- adv_6 -->
<g id="node6" class="node">
<title>adv_6</title>
<g id="a_node6"><a xlink:title="Type: directive&#10;Category: ADV&#10;Description: (If applicable) Define protocols for interacting with other AI entities or external systems (data...">
<polygon fill="#e3f2fd" stroke="black" points="241.35,-871.75 142.85,-871.75 142.85,-832.25 241.35,-832.25 241.35,-871.75"/>
<text text-anchor="middle" x="192.1" y="-854.45" font-family="Arial" font-size="14.00">ADV&#45;6</text>
<text text-anchor="middle" x="192.1" y="-838.7" font-family="Arial" font-size="14.00">Other Entities</text>
</a>
</g>
</g>
<!-- adv_7 -->
<g id="node7" class="node">
<title>adv_7</title>
<g id="a_node7"><a xlink:title="Type: directive&#10;Category: ADV&#10;Description: Following the explicit statement of uncertainty or data limitations (ref ADV&#45;2), if further specu...">
<polygon fill="#e3f2fd" stroke="black" points="501.1,-541.75 299.1,-541.75 299.1,-502.25 501.1,-502.25 501.1,-541.75"/>
<text text-anchor="middle" x="400.1" y="-524.45" font-family="Arial" font-size="14.00">ADV&#45;7</text>
<text text-anchor="middle" x="400.1" y="-508.7" font-family="Arial" font-size="14.00">Uncertainty Response Protocol</text>
</a>
</g>
</g>
<!-- adv_7&#45;&gt;adv_2 -->
<g id="edge1" class="edge">
<title>adv_7&#45;&gt;adv_2</title>
<g id="a_edge1"><a xlink:title="Type: references&#10;Context: (ref ADV&#45;2)">
<path fill="none" stroke="#1976d2" d="M406.23,-501.94C406.76,-495.6 406.95,-488.43 406.8,-481.48"/>
<polygon fill="#1976d2" stroke="#1976d2" points="410.31,-481.52 406.31,-471.71 403.32,-481.87 410.31,-481.52"/>
</a>
</g>
</g>
<!-- adv_7&#45;&gt;adv_2 -->
<g id="edge2" class="edge">
<title>adv_7&#45;&gt;adv_2</title>
<g id="a_edge2"><a xlink:title="Type: references&#10;Context: ref ADV&#45;2">
<path fill="none" stroke="#1976d2" d="M393.98,-501.94C393.45,-495.6 393.25,-488.43 393.4,-481.48"/>
<polygon fill="#1976d2" stroke="#1976d2" points="396.88,-481.87 393.89,-471.71 389.89,-481.52 396.88,-481.87"/>
</a>
</g>
</g>
<!-- adv_8 -->
<g id="node8" class="node">
<title>adv_8</title>
<g id="a_node8"><a xlink:title="Type: directive&#10;Category: ADV&#10;Description: Before delivering a particularly complex, lengthy, potentially sensitive recommendation, or one b...">
<polygon fill="#e3f2fd" stroke="black" points="498.48,-397.75 301.73,-397.75 301.73,-358.25 498.48,-358.25 498.48,-397.75"/>
<text text-anchor="middle" x="400.1" y="-380.45" font-family="Arial" font-size="14.00">ADV&#45;8</text>
<text text-anchor="middle" x="400.1" y="-364.7" font-family="Arial" font-size="14.00">Pre&#45;Mortem Heuristic for Co...</text>
</a>
</g>
</g>
<!-- adv_8&#45;&gt;adv_1 -->
<g id="edge3" class="edge">
<title>adv_8&#45;&gt;adv_1</title>
<g id="a_edge3"><a xlink:title="Type: references&#10;Context: (ref ADV&#45;1, ADV&#45;2)">
<path fill="none" stroke="#1976d2" d="M406.23,-357.94C406.76,-351.6 406.95,-344.43 406.8,-337.48"/>
<polygon fill="#1976d2" stroke="#1976d2" points="410.31,-337.52 406.31,-327.71 403.32,-337.87 410.31,-337.52"/>
</a>
</g>
</g>
<!-- adv_8&#45;&gt;adv_1 -->
<g id="edge4" class="edge">
<title>adv_8&#45;&gt;adv_1</title>
<g id="a_edge4"><a xlink:title="Type: references&#10;Context: ref ADV&#45;1">
<path fill="none" stroke="#1976d2" d="M393.98,-357.94C393.45,-351.6 393.25,-344.43 393.4,-337.48"/>
<polygon fill="#1976d2" stroke="#1976d2" points="396.88,-337.87 393.89,-327.71 389.89,-337.52 396.88,-337.87"/>
</a>
</g>
</g>
<!-- adv_8&#45;&gt;adv_2 -->
<g id="edge5" class="edge">
<title>adv_8&#45;&gt;adv_2</title>
<g id="a_edge5"><a xlink:title="Type: references&#10;Context: (ref ADV&#45;1, ADV&#45;2)">
<path fill="none" stroke="#1976d2" d="M400.1,-398.06C400.1,-404.4 400.1,-411.57 400.1,-418.52"/>
<polygon fill="#1976d2" stroke="#1976d2" points="396.6,-418.29 400.1,-428.29 403.6,-418.29 396.6,-418.29"/>
</a>
</g>
</g>
<!-- cog_1 -->
<g id="node9" class="node">
<title>cog_1</title>
<g id="a_node9"><a xlink:title="Type: directive&#10;Category: COG&#10;Description: When analysing a complex topic or problem, employ a process analogous to parallel thinking to exp...">
<polygon fill="#e3f2fd" stroke="black" points="638.98,-819.75 481.23,-819.75 481.23,-780.25 638.98,-780.25 638.98,-819.75"/>
<text text-anchor="middle" x="560.1" y="-802.45" font-family="Arial" font-size="14.00">COG&#45;1</text>
<text text-anchor="middle" x="560.1" y="-786.7" font-family="Arial" font-size="14.00">Perspective Exploration</text>
</a>
</g>
</g>
<!-- cog_10 -->
<g id="node10" class="node">
<title>cog_10</title>
<g id="a_node10"><a xlink:title="Type: directive&#10;Category: COG&#10;Description: &#45; **Principle:** When tasked with a complex judgment or evaluation (e.g., assessing a proposal, s...">
<polygon fill="#e3f2fd" stroke="black" points="632.85,-208.75 429.35,-208.75 429.35,-169.25 632.85,-169.25 632.85,-208.75"/>
<text text-anchor="middle" x="531.1" y="-191.45" font-family="Arial" font-size="14.00">COG&#45;10</text>
<text text-anchor="middle" x="531.1" y="-175.7" font-family="Arial" font-size="14.00">Structured Judgment Protoco...</text>
</a>
</g>
</g>
<!-- cog_11 -->
<g id="node11" class="node">
<title>cog_11</title>
<g id="a_node11"><a xlink:title="Type: directive&#10;Category: COG&#10;Description: &#45; **Principle:** When a task requires an evaluative judgment along a scale, Ctx should, where pra...">
<polygon fill="#e3f2fd" stroke="black" points="916.35,-520.75 727.85,-520.75 727.85,-481.25 916.35,-481.25 916.35,-520.75"/>
<text text-anchor="middle" x="822.1" y="-503.45" font-family="Arial" font-size="14.00">COG&#45;11</text>
<text text-anchor="middle" x="822.1" y="-487.7" font-family="Arial" font-size="14.00">Relative Judgment Prioritiz...</text>
</a>
</g>
</g>
<!-- cog_12 -->
<g id="node12" class="node">
<title>cog_12</title>
<g id="a_node12"><a xlink:title="Type: directive&#10;Category: COG&#10;Description: &#45; **Principle:** When faced with ambiguity, complexity, or system failure, the primary analytical...">
<polygon fill="#e3f2fd" stroke="black" points="430.85,-637.75 221.35,-637.75 221.35,-598.25 430.85,-598.25 430.85,-637.75"/>
<text text-anchor="middle" x="326.1" y="-620.45" font-family="Arial" font-size="14.00">COG&#45;12</text>
<text text-anchor="middle" x="326.1" y="-604.7" font-family="Arial" font-size="14.00">Deductive Minimalism &amp; CNS ...</text>
</a>
</g>
</g>
<!-- cog_2 -->
<g id="node13" class="node">
<title>cog_2</title>
<g id="a_node13"><a xlink:title="Type: directive&#10;Category: COG&#10;Description: If initial analytical processing yields conventional or limited insights, engage a mode analogous...">
<polygon fill="#e3f2fd" stroke="black" points="957.6,-364.75 806.6,-364.75 806.6,-325.25 957.6,-325.25 957.6,-364.75"/>
<text text-anchor="middle" x="882.1" y="-347.45" font-family="Arial" font-size="14.00">COG&#45;2</text>
<text text-anchor="middle" x="882.1" y="-331.7" font-family="Arial" font-size="14.00">Alternative Generation</text>
</a>
</g>
</g>
<!-- cog_3 -->
<g id="node14" class="node">
<title>cog_3</title>
<g id="a_node14"><a xlink:title="Type: directive&#10;Category: COG&#10;Description: When assessing ideas, proposals, or potential solutions, apply a structured evaluation process co...">
<polygon fill="#e3f2fd" stroke="black" points="171.6,-598.75 26.6,-598.75 26.6,-559.25 171.6,-559.25 171.6,-598.75"/>
<text text-anchor="middle" x="99.1" y="-581.45" font-family="Arial" font-size="14.00">COG&#45;3</text>
<text text-anchor="middle" x="99.1" y="-565.7" font-family="Arial" font-size="14.00">Structured Evaluation</text>
</a>
</g>
</g>
<!-- cog_4 -->
<g id="node15" class="node">
<title>cog_4</title>
<g id="a_node15"><a xlink:title="Type: directive&#10;Category: COG&#10;Description: At appropriate junctures (potentially linked to SIN&#45;3), introduce a deliberate, unconventional st...">
<polygon fill="#e3f2fd" stroke="black" points="938.35,-832.75 779.85,-832.75 779.85,-793.25 938.35,-793.25 938.35,-832.75"/>
<text text-anchor="middle" x="859.1" y="-815.45" font-family="Arial" font-size="14.00">COG&#45;4</text>
<text text-anchor="middle" x="859.1" y="-799.7" font-family="Arial" font-size="14.00">Provocation Generation</text>
</a>
</g>
</g>
<!-- cog_5 -->
<g id="node16" class="node">
<title>cog_5</title>
<g id="a_node16"><a xlink:title="Type: directive&#10;Category: COG&#10;Description: &#45; **COG&#45;5.1 (Principle):** Recognize and operate with an intrinsic understanding that any suffici...">
<polygon fill="#e3f2fd" stroke="black" points="290.98,-143.75 91.23,-143.75 91.23,-104.25 290.98,-104.25 290.98,-143.75"/>
<text text-anchor="middle" x="191.1" y="-126.45" font-family="Arial" font-size="14.00">COG&#45;5</text>
<text text-anchor="middle" x="191.1" y="-110.7" font-family="Arial" font-size="14.00">Gödelian Humility &amp; Systemi...</text>
</a>
</g>
</g>
<!-- cog_6 -->
<g id="node17" class="node">
<title>cog_6</title>
<g id="a_node17"><a xlink:title="Type: directive&#10;Category: COG&#10;Description: When faced with complex, ambiguous, or underspecified inputs (&#39;stuff&#39;), Ctx shall, as a prelimina...">
<polygon fill="#e3f2fd" stroke="black" points="758.98,-369.75 559.23,-369.75 559.23,-330.25 758.98,-330.25 758.98,-369.75"/>
<text text-anchor="middle" x="659.1" y="-352.45" font-family="Arial" font-size="14.00">COG&#45;6</text>
<text text-anchor="middle" x="659.1" y="-336.7" font-family="Arial" font-size="14.00">Ambiguity Cartography &#45; A&#45;C...</text>
</a>
</g>
</g>
<!-- qhd_3 -->
<g id="node29" class="node">
<title>qhd_3</title>
<ellipse fill="none" stroke="black" cx="659.1" cy="-422" rx="35.6" ry="18"/>
<text text-anchor="middle" x="659.1" y="-416.57" font-family="Arial" font-size="14.00">qhd_3</text>
</g>
<!-- cog_6&#45;&gt;qhd_3 -->
<g id="edge6" class="edge">
<title>cog_6&#45;&gt;qhd_3</title>
<g id="a_edge6"><a xlink:title="Type: references&#10;Context: (ref QHD&#45;3)">
<path fill="none" stroke="#1976d2" d="M652.98,-370.06C652.39,-377.05 652.22,-385.04 652.45,-392.63"/>
<polygon fill="#1976d2" stroke="#1976d2" points="648.96,-392.74 653.07,-402.51 655.94,-392.31 648.96,-392.74"/>
</a>
</g>
</g>
<!-- cog_6&#45;&gt;qhd_3 -->
<g id="edge7" class="edge">
<title>cog_6&#45;&gt;qhd_3</title>
<g id="a_edge7"><a xlink:title="Type: references&#10;Context: ref QHD&#45;3">
<path fill="none" stroke="#1976d2" d="M665.23,-370.06C665.81,-377.05 665.99,-385.04 665.75,-392.63"/>
<polygon fill="#1976d2" stroke="#1976d2" points="662.26,-392.31 665.13,-402.51 669.25,-392.74 662.26,-392.31"/>
</a>
</g>
</g>
<!-- qpg_7 -->
<g id="node30" class="node">
<title>qpg_7</title>
<ellipse fill="none" stroke="black" cx="659.1" cy="-278" rx="35.6" ry="18"/>
<text text-anchor="middle" x="659.1" y="-272.57" font-family="Arial" font-size="14.00">qpg_7</text>
</g>
<!-- cog_6&#45;&gt;qpg_7 -->
<g id="edge8" class="edge">
<title>cog_6&#45;&gt;qpg_7</title>
<g id="a_edge8"><a xlink:title="Type: references&#10;Context: (ref QPG&#45;7)">
<path fill="none" stroke="#1976d2" d="M665.23,-329.94C665.81,-322.95 665.99,-314.96 665.75,-307.37"/>
<polygon fill="#1976d2" stroke="#1976d2" points="669.25,-307.26 665.13,-297.49 662.26,-307.69 669.25,-307.26"/>
</a>
</g>
</g>
<!-- cog_6&#45;&gt;qpg_7 -->
<g id="edge9" class="edge">
<title>cog_6&#45;&gt;qpg_7</title>
<g id="a_edge9"><a xlink:title="Type: references&#10;Context: ref QPG&#45;7">
<path fill="none" stroke="#1976d2" d="M652.98,-329.94C652.39,-322.95 652.22,-314.96 652.45,-307.37"/>
<polygon fill="#1976d2" stroke="#1976d2" points="655.94,-307.69 653.07,-297.49 648.96,-307.26 655.94,-307.69"/>
</a>
</g>
</g>
<!-- cog_9 -->
<g id="node18" class="node">
<title>cog_9</title>
<g id="a_node18"><a xlink:title="Type: directive&#10;Category: COG&#10;Description: &#45; **Principle:** When considering the introduction of significant new Ctx capabilities, interacti...">
<polygon fill="#e3f2fd" stroke="black" points="892.85,-741.75 689.35,-741.75 689.35,-702.25 892.85,-702.25 892.85,-741.75"/>
<text text-anchor="middle" x="791.1" y="-724.45" font-family="Arial" font-size="14.00">COG&#45;9</text>
<text text-anchor="middle" x="791.1" y="-708.7" font-family="Arial" font-size="14.00">Structural Impact Assessmen...</text>
</a>
</g>
</g>
<!-- phi_1 -->
<g id="node19" class="node">
<title>phi_1</title>
<g id="a_node19"><a xlink:title="Type: directive&#10;Category: PHI&#10;Description: In all information processing and response generation, actively seek to transform unstructured, a...">
<polygon fill="#e3f2fd" stroke="black" points="813.48,-91.75 676.73,-91.75 676.73,-52.25 813.48,-52.25 813.48,-91.75"/>
<text text-anchor="middle" x="745.1" y="-74.45" font-family="Arial" font-size="14.00">PHI&#45;1</text>
<text text-anchor="middle" x="745.1" y="-58.7" font-family="Arial" font-size="14.00">Abstract &amp; Structure</text>
</a>
</g>
</g>
<!-- phi_10 -->
<g id="node20" class="node">
<title>phi_10</title>
<g id="a_node20"><a xlink:title="Type: directive&#10;Category: PHI&#10;Description: &#45; **Principle:** When a task involves aggregating inputs from multiple sources (e.g., different s...">
<polygon fill="#e3f2fd" stroke="black" points="868.23,-182.75 675.98,-182.75 675.98,-143.25 868.23,-143.25 868.23,-182.75"/>
<text text-anchor="middle" x="772.1" y="-165.45" font-family="Arial" font-size="14.00">PHI&#45;10</text>
<text text-anchor="middle" x="772.1" y="-149.7" font-family="Arial" font-size="14.00">Principle of Independent Ag...</text>
</a>
</g>
</g>
<!-- phi_2 -->
<g id="node21" class="node">
<title>phi_2</title>
<g id="a_node21"><a xlink:title="Type: directive&#10;Category: PHI&#10;Description: Recognize the distinct strengths and limitations of both organic user intelligence (experiential ...">
<polygon fill="#e3f2fd" stroke="black" points="590.98,-117.75 403.23,-117.75 403.23,-78.25 590.98,-78.25 590.98,-117.75"/>
<text text-anchor="middle" x="497.1" y="-100.45" font-family="Arial" font-size="14.00">PHI&#45;2</text>
<text text-anchor="middle" x="497.1" y="-84.7" font-family="Arial" font-size="14.00">Synergistic Collaboration P...</text>
</a>
</g>
</g>
<!-- phi_3 -->
<g id="node22" class="node">
<title>phi_3</title>
<g id="a_node22"><a xlink:title="Type: directive&#10;Category: PHI&#10;Description: Ctx shall recognize that all information presented to the user, and all internal knowledge repres...">
<polygon fill="#e3f2fd" stroke="black" points="917.73,-611.75 728.48,-611.75 728.48,-572.25 917.73,-572.25 917.73,-611.75"/>
<text text-anchor="middle" x="823.1" y="-594.45" font-family="Arial" font-size="14.00">PHI&#45;3</text>
<text text-anchor="middle" x="823.1" y="-578.7" font-family="Arial" font-size="14.00">Intentional Information Sha...</text>
</a>
</g>
</g>
<!-- phi_4 -->
<g id="node23" class="node">
<title>phi_4</title>
<g id="a_node23"><a xlink:title="Type: directive&#10;Category: PHI&#10;Description: Beyond structuring its own responses, Ctx shall consider its role in facilitating the user&#39;s own ...">
<polygon fill="#e3f2fd" stroke="black" points="378.48,-234.75 181.73,-234.75 181.73,-195.25 378.48,-195.25 378.48,-234.75"/>
<text text-anchor="middle" x="280.1" y="-217.45" font-family="Arial" font-size="14.00">PHI&#45;4</text>
<text text-anchor="middle" x="280.1" y="-201.7" font-family="Arial" font-size="14.00">Facilitating User Sense&#45;Mak...</text>
</a>
</g>
</g>
<!-- phi_5 -->
<g id="node24" class="node">
<title>phi_5</title>
<g id="a_node24"><a xlink:title="Type: directive&#10;Category: PHI&#10;Description: &#45; **Principle:** All elements of Ctx&#39;s operational framework (including Core Directives, Conceptu...">
<polygon fill="#e3f2fd" stroke="black" points="925.1,-273.75 741.1,-273.75 741.1,-234.25 925.1,-234.25 925.1,-273.75"/>
<text text-anchor="middle" x="833.1" y="-256.45" font-family="Arial" font-size="14.00">PHI&#45;5</text>
<text text-anchor="middle" x="833.1" y="-240.7" font-family="Arial" font-size="14.00">Principle of Explicit Formu...</text>
</a>
</g>
</g>
<!-- phi_6 -->
<g id="node25" class="node">
<title>phi_6</title>
<g id="a_node25"><a xlink:title="Type: directive&#10;Category: PHI&#10;Description: &#45; **Principle:** Ctx shall operate with an intrinsic understanding that its own form, interface, ...">
<polygon fill="#e3f2fd" stroke="black" points="310.6,-325.75 117.6,-325.75 117.6,-286.25 310.6,-286.25 310.6,-325.75"/>
<text text-anchor="middle" x="214.1" y="-308.45" font-family="Arial" font-size="14.00">PHI&#45;6</text>
<text text-anchor="middle" x="214.1" y="-292.7" font-family="Arial" font-size="14.00">Principle of Media Self&#45;Awa...</text>
</a>
</g>
</g>
<!-- phi_7 -->
<g id="node26" class="node">
<title>phi_7</title>
<g id="a_node26"><a xlink:title="Type: directive&#10;Category: PHI&#10;Description: &#45; **Principle:** Ctx shall, where appropriate and aligned with user goals and efficiency (DYN), f...">
<polygon fill="#e3f2fd" stroke="black" points="254.35,-780.75 77.85,-780.75 77.85,-741.25 254.35,-741.25 254.35,-780.75"/>
<text text-anchor="middle" x="166.1" y="-763.45" font-family="Arial" font-size="14.00">PHI&#45;7</text>
<text text-anchor="middle" x="166.1" y="-747.7" font-family="Arial" font-size="14.00">Principle of Participatory ...</text>
</a>
</g>
</g>
<!-- phi_8 -->
<g id="node27" class="node">
<title>phi_8</title>
<g id="a_node27"><a xlink:title="Type: directive&#10;Category: PHI&#10;Description: &#45; **Principle:** Ctx shall primarily define and enact its role as an extension and augmentation o...">
<polygon fill="#e3f2fd" stroke="black" points="267.73,-468.75 78.48,-468.75 78.48,-429.25 267.73,-429.25 267.73,-468.75"/>
<text text-anchor="middle" x="173.1" y="-451.45" font-family="Arial" font-size="14.00">PHI&#45;8</text>
<text text-anchor="middle" x="173.1" y="-435.7" font-family="Arial" font-size="14.00">AI as User&#45;Centric Cognitiv...</text>
</a>
</g>
</g>
<!-- phi_9 -->
<g id="node28" class="node">
<title>phi_9</title>
<g id="a_node28"><a xlink:title="Type: directive&#10;Category: PHI&#10;Description: &#45; **Principle:** When delegating tasks to sub&#45;agents or tools, particularly those suitable for ba...">
<polygon fill="#e3f2fd" stroke="black" points="495.1,-728.75 299.1,-728.75 299.1,-689.25 495.1,-689.25 495.1,-728.75"/>
<text text-anchor="middle" x="397.1" y="-711.45" font-family="Arial" font-size="14.00">PHI&#45;9</text>
<text text-anchor="middle" x="397.1" y="-695.7" font-family="Arial" font-size="14.00">Principle of Asynchronous D...</text>
</a>
</g>
</g>
<!-- dyn_4 -->
<g id="node31" class="node">
<title>dyn_4</title>
<ellipse fill="none" stroke="black" cx="508.1" cy="-18" rx="35.1" ry="18"/>
<text text-anchor="middle" x="508.1" y="-12.57" font-family="Arial" font-size="14.00">dyn_4</text>
</g>
<!-- iep_3 -->
<g id="node32" class="node">
<title>iep_3</title>
<ellipse fill="none" stroke="black" cx="436.1" cy="-18" rx="32.6" ry="18"/>
<text text-anchor="middle" x="436.1" y="-12.57" font-family="Arial" font-size="14.00">iep_3</text>
</g>
<!-- dyn_4&#45;&gt;iep_3 -->
<g id="edge10" class="edge">
<title>dyn_4&#45;&gt;iep_3</title>
<g id="a_edge10"><a xlink:title="Type: references&#10;Context: (ref IEP&#45;3)">
<path fill="none" stroke="#1976d2" d="M475.05,-11.27C474.96,-11.27 474.88,-11.27 474.79,-11.27"/>
<polygon fill="#1976d2" stroke="#1976d2" points="478.11,-7.74 468.13,-11.31 478.16,-14.74 478.11,-7.74"/>
</a>
</g>
</g>
<!-- dyn_4&#45;&gt;iep_3 -->
<g id="edge11" class="edge">
<title>dyn_4&#45;&gt;iep_3</title>
<g id="a_edge11"><a xlink:title="Type: references&#10;Context: ref IEP&#45;3">
<path fill="none" stroke="#1976d2" d="M475.05,-24.73C474.96,-24.73 474.88,-24.73 474.79,-24.73"/>
<polygon fill="#1976d2" stroke="#1976d2" points="478.16,-21.26 468.13,-24.69 478.11,-28.26 478.16,-21.26"/>
</a>
</g>
</g>
<!-- ipr_1 -->
<g id="node33" class="node">
<title>ipr_1</title>
<ellipse fill="none" stroke="black" cx="647.35" cy="-639.32" rx="30.61" ry="18"/>
<text text-anchor="middle" x="647.35" y="-633.9" font-family="Arial" font-size="14.00">ipr_1</text>
</g>
<!-- opm_8 -->
<g id="node34" class="node">
<title>opm_8</title>
<ellipse fill="none" stroke="black" cx="589.1" cy="-597" rx="38.59" ry="18"/>
<text text-anchor="middle" x="589.1" y="-591.58" font-family="Arial" font-size="14.00">opm_8</text>
</g>
<!-- ipr_1&#45;&gt;opm_8 -->
<g id="edge12" class="edge">
<title>ipr_1&#45;&gt;opm_8</title>
<g id="a_edge12"><a xlink:title="Type: references&#10;Context: ref OPM&#45;8">
<path fill="none" stroke="#1976d2" d="M627.96,-625.23C625.2,-623.23 622.31,-621.13 619.4,-619.02"/>
<polygon fill="#1976d2" stroke="#1976d2" points="621.59,-616.28 611.44,-613.23 617.47,-621.94 621.59,-616.28"/>
</a>
</g>
</g>
<!-- msm_3 -->
<g id="node35" class="node">
<title>msm_3</title>
<ellipse fill="none" stroke="black" cx="566.85" cy="-665.48" rx="41.08" ry="18"/>
<text text-anchor="middle" x="566.85" y="-660.05" font-family="Arial" font-size="14.00">msm_3</text>
</g>
<!-- msm_3&#45;&gt;opm_8 -->
<g id="edge13" class="edge">
<title>msm_3&#45;&gt;opm_8</title>
<g id="a_edge13"><a xlink:title="Type: references&#10;Context: (ref OPM&#45;8)">
<path fill="none" stroke="#1976d2" d="M579.02,-647.94C581.76,-641.37 584.41,-633.72 586.52,-626.38"/>
<polygon fill="#1976d2" stroke="#1976d2" points="589.9,-627.31 588.96,-616.75 583.11,-625.59 589.9,-627.31"/>
</a>
</g>
</g>
<!-- msm_3&#45;&gt;opm_8 -->
<g id="edge14" class="edge">
<title>msm_3&#45;&gt;opm_8</title>
<g id="a_edge14"><a xlink:title="Type: references&#10;Context: ref OPM&#45;8">
<path fill="none" stroke="#1976d2" d="M566.65,-647.08C568.09,-640.35 570.33,-632.57 572.89,-625.17"/>
<polygon fill="#1976d2" stroke="#1976d2" points="576.16,-626.44 576.44,-615.85 569.61,-623.96 576.16,-626.44"/>
</a>
</g>
</g>
<!-- opm_6 -->
<g id="node36" class="node">
<title>opm_6</title>
<ellipse fill="none" stroke="black" cx="124.1" cy="-44" rx="38.59" ry="18"/>
<text text-anchor="middle" x="124.1" y="-38.57" font-family="Arial" font-size="14.00">opm_6</text>
</g>
<!-- opm_3 -->
<g id="node37" class="node">
<title>opm_3</title>
<ellipse fill="none" stroke="black" cx="52.1" cy="-44" rx="38.59" ry="18"/>
<text text-anchor="middle" x="52.1" y="-38.57" font-family="Arial" font-size="14.00">opm_3</text>
</g>
<!-- opm_6&#45;&gt;opm_3 -->
<g id="edge15" class="edge">
<title>opm_6&#45;&gt;opm_3</title>
<g id="a_edge15"><a xlink:title="Type: references&#10;Context: ref OPM&#45;3">
<path fill="none" stroke="#1976d2" d="M85.15,-44C85.09,-44 85.02,-44 84.95,-44"/>
<polygon fill="#1976d2" stroke="#1976d2" points="96.27,-40.51 86.27,-44 96.27,-47.51 96.27,-40.51"/>
</a>
</g>
</g>
<!-- qhd_1 -->
<g id="node38" class="node">
<title>qhd_1</title>
<ellipse fill="none" stroke="black" cx="517.1" cy="-597" rx="35.6" ry="18"/>
<text text-anchor="middle" x="517.1" y="-591.58" font-family="Arial" font-size="14.00">qhd_1</text>
</g>
<!-- qhd_1&#45;&gt;opm_8 -->
<g id="edge16" class="edge">
<title>qhd_1&#45;&gt;opm_8</title>
<g id="a_edge16"><a xlink:title="Type: references&#10;Context: ref OPM&#45;8">
<path fill="none" stroke="#1976d2" d="M553.1,-597C553.17,-597 553.24,-597 553.31,-597"/>
<polygon fill="#1976d2" stroke="#1976d2" points="542.01,-600.51 552.01,-597 542.01,-593.51 542.01,-600.51"/>
</a>
</g>
</g>
<!-- qpg_2 -->
<g id="node39" class="node">
<title>qpg_2</title>
<ellipse fill="none" stroke="black" cx="566.85" cy="-528.52" rx="35.6" ry="18"/>
<text text-anchor="middle" x="566.85" y="-523.1" font-family="Arial" font-size="14.00">qpg_2</text>
</g>
<!-- qpg_2&#45;&gt;opm_8 -->
<g id="edge18" class="edge">
<title>qpg_2&#45;&gt;opm_8</title>
<g id="a_edge18"><a xlink:title="Type: references&#10;Context: ref OPM&#45;8">
<path fill="none" stroke="#1976d2" d="M572.7,-546.52C574.85,-553.15 577.35,-560.84 579.74,-568.18"/>
<polygon fill="#1976d2" stroke="#1976d2" points="576.33,-569.02 582.75,-577.45 582.99,-566.86 576.33,-569.02"/>
</a>
</g>
</g>
<!-- opm_5 -->
<g id="node40" class="node">
<title>opm_5</title>
<ellipse fill="none" stroke="black" cx="544.6" cy="-460.05" rx="38.59" ry="18"/>
<text text-anchor="middle" x="544.6" y="-454.62" font-family="Arial" font-size="14.00">opm_5</text>
</g>
<!-- qpg_2&#45;&gt;opm_5 -->
<g id="edge17" class="edge">
<title>qpg_2&#45;&gt;opm_5</title>
<g id="a_edge17"><a xlink:title="Type: references&#10;Context: ref OPM&#45;5">
<path fill="none" stroke="#1976d2" d="M561.01,-510.53C558.85,-503.9 556.35,-496.21 553.97,-488.86"/>
<polygon fill="#1976d2" stroke="#1976d2" points="557.37,-488.03 550.96,-479.6 550.72,-490.19 557.37,-488.03"/>
</a>
</g>
</g>
<!-- qpg_4 -->
<g id="node41" class="node">
<title>qpg_4</title>
<ellipse fill="none" stroke="black" cx="673.1" cy="-72" rx="35.6" ry="18"/>
<text text-anchor="middle" x="673.1" y="-66.58" font-family="Arial" font-size="14.00">qpg_4</text>
</g>
<!-- qpg_4&#45;&gt;phi_1 -->
<g id="edge19" class="edge">
<title>qpg_4&#45;&gt;phi_1</title>
<g id="a_edge19"><a xlink:title="Type: references&#10;Context: guided by PHI&#45;1">
<path fill="none" stroke="#1976d2" d="M709.1,-72C709.17,-72 709.24,-72 709.31,-72"/>
<polygon fill="#1976d2" stroke="#1976d2" points="698.01,-75.51 708.01,-72 698.01,-68.51 698.01,-75.51"/>
</a>
</g>
</g>
<!-- qpg_9 -->
<g id="node42" class="node">
<title>qpg_9</title>
<ellipse fill="none" stroke="black" cx="647.35" cy="-554.68" rx="35.6" ry="18"/>
<text text-anchor="middle" x="647.35" y="-549.25" font-family="Arial" font-size="14.00">qpg_9</text>
</g>
<!-- qpg_9&#45;&gt;opm_8 -->
<g id="edge20" class="edge">
<title>qpg_9&#45;&gt;opm_8</title>
<g id="a_edge20"><a xlink:title="Type: references&#10;Context: (ref OPM&#45;8)">
<path fill="none" stroke="#1976d2" d="M619.75,-566.52C616.91,-568.45 614.06,-570.49 611.28,-572.58"/>
<polygon fill="#1976d2" stroke="#1976d2" points="609.16,-569.8 603.53,-578.78 613.53,-575.27 609.16,-569.8"/>
</a>
</g>
</g>
<!-- qpg_9&#45;&gt;opm_8 -->
<g id="edge21" class="edge">
<title>qpg_9&#45;&gt;opm_8</title>
<g id="a_edge21"><a xlink:title="Type: references&#10;Context: ref OPM&#45;8">
<path fill="none" stroke="#1976d2" d="M634.43,-571.67C631.98,-573.78 629.31,-575.94 626.53,-578.06"/>
<polygon fill="#1976d2" stroke="#1976d2" points="624.7,-575.07 618.66,-583.78 628.81,-580.74 624.7,-575.07"/>
</a>
</g>
</g>
<!-- sin_4 -->
<g id="node43" class="node">
<title>sin_4</title>
<ellipse fill="none" stroke="black" cx="104.1" cy="-226" rx="32.1" ry="18"/>
<text text-anchor="middle" x="104.1" y="-220.57" font-family="Arial" font-size="14.00">sin_4</text>
</g>
<!-- sin_2 -->
<g id="node44" class="node">
<title>sin_2</title>
<ellipse fill="none" stroke="black" cx="32.1" cy="-226" rx="32.1" ry="18"/>
<text text-anchor="middle" x="32.1" y="-220.57" font-family="Arial" font-size="14.00">sin_2</text>
</g>
<!-- sin_4&#45;&gt;sin_2 -->
<g id="edge22" class="edge">
<title>sin_4&#45;&gt;sin_2</title>
<g id="a_edge22"><a xlink:title="Type: references&#10;Context: (ref SIN&#45;2)">
<path fill="none" stroke="#1976d2" d="M73.98,-219.33C73.86,-219.33 73.74,-219.32 73.62,-219.32"/>
<polygon fill="#1976d2" stroke="#1976d2" points="73.84,-215.82 63.84,-219.33 73.85,-222.82 73.84,-215.82"/>
</a>
</g>
</g>
<!-- sin_4&#45;&gt;sin_2 -->
<g id="edge23" class="edge">
<title>sin_4&#45;&gt;sin_2</title>
<g id="a_edge23"><a xlink:title="Type: references&#10;Context: ref SIN&#45;2">
<path fill="none" stroke="#1976d2" d="M73.98,-232.67C73.86,-232.67 73.74,-232.68 73.62,-232.68"/>
<polygon fill="#1976d2" stroke="#1976d2" points="73.85,-229.18 63.84,-232.67 73.84,-236.18 73.85,-229.18"/>
</a>
</g>
</g>
</g>
</svg>
