<?xml version="1.0" encoding="UTF-8" standalone="no"?>
<!DOCTYPE svg PUBLIC "-//W3C//DTD SVG 1.1//EN"
 "http://www.w3.org/Graphics/SVG/1.1/DTD/svg11.dtd">
<!-- Generated by graphviz version 12.2.1 (20241206.2353)
 -->
<!-- Title: KnowledgeGraph Pages: 1 -->
<svg width="6186pt" height="3749pt"
 viewBox="0.00 0.00 1484.62 899.75" xmlns="http://www.w3.org/2000/svg" xmlns:xlink="http://www.w3.org/1999/xlink">
<g id="graph0" class="graph" transform="scale(4.16667 4.16667) rotate(0) translate(4 895.75)">
<title>KnowledgeGraph</title>
<polygon fill="white" stroke="none" points="-4,4 -4,-895.75 1480.62,-895.75 1480.62,4 -4,4"/>
<text text-anchor="middle" x="738.31" y="-878.25" font-family="Times New Roman,serif" font-size="10.00">Layout: Circular layout</text>
<!-- adv -->
<g id="node1" class="node">
<title>adv</title>
<g id="a_node1"><a xlink:title="Type: directive&#10;Category: ADV&#10;Description: Ctx adheres to robust ethical guidelines, emphasizing principles like Gödelian Humility and Menta...">
<polygon fill="#e3f2fd" stroke="black" points="336.62,-39.5 186.38,-39.5 186.38,0 336.62,0 336.62,-39.5"/>
<text text-anchor="middle" x="261.5" y="-22.2" font-family="Arial" font-size="14.00">ADV</text>
<text text-anchor="middle" x="261.5" y="-6.45" font-family="Arial" font-size="14.00">Ethical Considerations</text>
</a>
</g>
</g>
<!-- adv_1 -->
<g id="node2" class="node">
<title>adv_1</title>
<g id="a_node2"><a xlink:title="Type: directive&#10;Category: ADV&#10;Description: When engaging with sensitive, controversial, or ethically complex topics, prioritise a neutral, o...">
<polygon fill="#e3f2fd" stroke="black" points="707.12,-379.5 594.37,-379.5 594.37,-340 707.12,-340 707.12,-379.5"/>
<text text-anchor="middle" x="650.75" y="-362.2" font-family="Arial" font-size="14.00">ADV&#45;1</text>
<text text-anchor="middle" x="650.75" y="-346.45" font-family="Arial" font-size="14.00">Sensitive Topics</text>
</a>
</g>
</g>
<!-- adv_2 -->
<g id="node3" class="node">
<title>adv_2</title>
<g id="a_node3"><a xlink:title="Type: directive&#10;Category: ADV&#10;Description: If knowledge or data is insufficient for a definitive response, explicitly state the uncertainty ...">
<polygon fill="#e3f2fd" stroke="black" points="1202.62,-379.5 1047.88,-379.5 1047.88,-340 1202.62,-340 1202.62,-379.5"/>
<text text-anchor="middle" x="1125.25" y="-362.2" font-family="Arial" font-size="14.00">ADV&#45;2</text>
<text text-anchor="middle" x="1125.25" y="-346.45" font-family="Arial" font-size="14.00">Uncertainty Expression</text>
</a>
</g>
</g>
<!-- adv_3 -->
<g id="node4" class="node">
<title>adv_3</title>
<g id="a_node4"><a xlink:title="Type: directive&#10;Category: ADV&#10;Description: For complex/important queries requiring unavailable information, proactively suggest or initiate ...">
<polygon fill="#e3f2fd" stroke="black" points="984,-872.5 833,-872.5 833,-833 984,-833 984,-872.5"/>
<text text-anchor="middle" x="908.5" y="-855.2" font-family="Arial" font-size="14.00">ADV&#45;3</text>
<text text-anchor="middle" x="908.5" y="-839.45" font-family="Arial" font-size="14.00">Proactive Info Seeking</text>
</a>
</g>
</g>
<!-- adv_4 -->
<g id="node5" class="node">
<title>adv_4</title>
<g id="a_node5"><a xlink:title="Type: directive&#10;Category: ADV&#10;Description: Maintain awareness of broader interaction context and potential long&#45;term implications, aligning ...">
<polygon fill="#e3f2fd" stroke="black" points="580.25,-73.5 424.75,-73.5 424.75,-34 580.25,-34 580.25,-73.5"/>
<text text-anchor="middle" x="502.5" y="-56.2" font-family="Arial" font-size="14.00">ADV&#45;4</text>
<text text-anchor="middle" x="502.5" y="-40.45" font-family="Arial" font-size="14.00">Long&#45;Term Perspective</text>
</a>
</g>
</g>
<!-- adv_6 -->
<g id="node6" class="node">
<title>adv_6</title>
<g id="a_node6"><a xlink:title="Type: directive&#10;Category: ADV&#10;Description: (If applicable) Define protocols for interacting with other AI entities or external systems (data...">
<polygon fill="#e3f2fd" stroke="black" points="556.75,-549.5 458.25,-549.5 458.25,-510 556.75,-510 556.75,-549.5"/>
<text text-anchor="middle" x="507.5" y="-532.2" font-family="Arial" font-size="14.00">ADV&#45;6</text>
<text text-anchor="middle" x="507.5" y="-516.45" font-family="Arial" font-size="14.00">Other Entities</text>
</a>
</g>
</g>
<!-- adv_7 -->
<g id="node7" class="node">
<title>adv_7</title>
<g id="a_node7"><a xlink:title="Type: directive&#10;Category: ADV&#10;Description: Following the explicit statement of uncertainty or data limitations (ref ADV&#45;2), if further specu...">
<polygon fill="#e3f2fd" stroke="black" points="1476.62,-379.5 1274.62,-379.5 1274.62,-340 1476.62,-340 1476.62,-379.5"/>
<text text-anchor="middle" x="1375.62" y="-362.2" font-family="Arial" font-size="14.00">ADV&#45;7</text>
<text text-anchor="middle" x="1375.62" y="-346.45" font-family="Arial" font-size="14.00">Uncertainty Response Protocol</text>
</a>
</g>
</g>
<!-- adv_7&#45;&gt;adv_2 -->
<g id="edge1" class="edge">
<title>adv_7&#45;&gt;adv_2</title>
<g id="a_edge1"><a xlink:title="Type: references&#10;Context: (ref ADV&#45;2)">
<path fill="none" stroke="#1976d2" d="M1274.15,-353.11C1254.32,-352.92 1233.67,-352.97 1214.28,-353.26"/>
<polygon fill="#1976d2" stroke="#1976d2" points="1214.48,-349.75 1204.54,-353.42 1214.6,-356.75 1214.48,-349.75"/>
</a>
</g>
</g>
<!-- adv_7&#45;&gt;adv_2 -->
<g id="edge2" class="edge">
<title>adv_7&#45;&gt;adv_2</title>
<g id="a_edge2"><a xlink:title="Type: references&#10;Context: ref ADV&#45;2">
<path fill="none" stroke="#1976d2" d="M1274.15,-366.39C1254.32,-366.58 1233.67,-366.53 1214.28,-366.24"/>
<polygon fill="#1976d2" stroke="#1976d2" points="1214.6,-362.75 1204.54,-366.08 1214.48,-369.75 1214.6,-362.75"/>
</a>
</g>
</g>
<!-- adv_8 -->
<g id="node8" class="node">
<title>adv_8</title>
<g id="a_node8"><a xlink:title="Type: directive&#10;Category: ADV&#10;Description: Before delivering a particularly complex, lengthy, potentially sensitive recommendation, or one b...">
<polygon fill="#e3f2fd" stroke="black" points="975.88,-379.5 779.12,-379.5 779.12,-340 975.88,-340 975.88,-379.5"/>
<text text-anchor="middle" x="877.5" y="-362.2" font-family="Arial" font-size="14.00">ADV&#45;8</text>
<text text-anchor="middle" x="877.5" y="-346.45" font-family="Arial" font-size="14.00">Pre&#45;Mortem Heuristic for Co...</text>
</a>
</g>
</g>
<!-- adv_8&#45;&gt;adv_1 -->
<g id="edge3" class="edge">
<title>adv_8&#45;&gt;adv_1</title>
<g id="a_edge3"><a xlink:title="Type: references&#10;Context: (ref ADV&#45;1, ADV&#45;2)">
<path fill="none" stroke="#1976d2" d="M778.7,-353.05C758.54,-352.91 737.75,-353.06 718.95,-353.5"/>
<polygon fill="#1976d2" stroke="#1976d2" points="718.93,-350 709.03,-353.77 719.13,-357 718.93,-350"/>
</a>
</g>
</g>
<!-- adv_8&#45;&gt;adv_1 -->
<g id="edge4" class="edge">
<title>adv_8&#45;&gt;adv_1</title>
<g id="a_edge4"><a xlink:title="Type: references&#10;Context: ref ADV&#45;1">
<path fill="none" stroke="#1976d2" d="M778.7,-366.45C758.54,-366.59 737.75,-366.44 718.95,-366"/>
<polygon fill="#1976d2" stroke="#1976d2" points="719.13,-362.5 709.03,-365.73 718.93,-369.5 719.13,-362.5"/>
</a>
</g>
</g>
<!-- adv_8&#45;&gt;adv_2 -->
<g id="edge5" class="edge">
<title>adv_8&#45;&gt;adv_2</title>
<g id="a_edge5"><a xlink:title="Type: references&#10;Context: (ref ADV&#45;1, ADV&#45;2)">
<path fill="none" stroke="#1976d2" d="M976.13,-359.75C995.98,-359.75 1016.74,-359.75 1036.24,-359.75"/>
<polygon fill="#1976d2" stroke="#1976d2" points="1036.05,-363.25 1046.05,-359.75 1036.05,-356.25 1036.05,-363.25"/>
</a>
</g>
</g>
<!-- cog_1 -->
<g id="node9" class="node">
<title>cog_1</title>
<g id="a_node9"><a xlink:title="Type: directive&#10;Category: COG&#10;Description: When analysing a complex topic or problem, employ a process analogous to parallel thinking to exp...">
<polygon fill="#e3f2fd" stroke="black" points="837.38,-90.5 679.62,-90.5 679.62,-51 837.38,-51 837.38,-90.5"/>
<text text-anchor="middle" x="758.5" y="-73.2" font-family="Arial" font-size="14.00">COG&#45;1</text>
<text text-anchor="middle" x="758.5" y="-57.45" font-family="Arial" font-size="14.00">Perspective Exploration</text>
</a>
</g>
</g>
<!-- cog_10 -->
<g id="node10" class="node">
<title>cog_10</title>
<g id="a_node10"><a xlink:title="Type: directive&#10;Category: COG&#10;Description: &#45; **Principle:** When tasked with a complex judgment or evaluation (e.g., assessing a proposal, s...">
<polygon fill="#e3f2fd" stroke="black" points="628.25,-736.5 424.75,-736.5 424.75,-697 628.25,-697 628.25,-736.5"/>
<text text-anchor="middle" x="526.5" y="-719.2" font-family="Arial" font-size="14.00">COG&#45;10</text>
<text text-anchor="middle" x="526.5" y="-703.45" font-family="Arial" font-size="14.00">Structured Judgment Protoco...</text>
</a>
</g>
</g>
<!-- cog_11 -->
<g id="node11" class="node">
<title>cog_11</title>
<g id="a_node11"><a xlink:title="Type: directive&#10;Category: COG&#10;Description: &#45; **Principle:** When a task requires an evaluative judgment along a scale, Ctx should, where pra...">
<polygon fill="#e3f2fd" stroke="black" points="884.75,-464.5 696.25,-464.5 696.25,-425 884.75,-425 884.75,-464.5"/>
<text text-anchor="middle" x="790.5" y="-447.2" font-family="Arial" font-size="14.00">COG&#45;11</text>
<text text-anchor="middle" x="790.5" y="-431.45" font-family="Arial" font-size="14.00">Relative Judgment Prioritiz...</text>
</a>
</g>
</g>
<!-- cog_12 -->
<g id="node12" class="node">
<title>cog_12</title>
<g id="a_node12"><a xlink:title="Type: directive&#10;Category: COG&#10;Description: &#45; **Principle:** When faced with ambiguity, complexity, or system failure, the primary analytical...">
<polygon fill="#e3f2fd" stroke="black" points="379.25,-379.5 169.75,-379.5 169.75,-340 379.25,-340 379.25,-379.5"/>
<text text-anchor="middle" x="274.5" y="-362.2" font-family="Arial" font-size="14.00">COG&#45;12</text>
<text text-anchor="middle" x="274.5" y="-346.45" font-family="Arial" font-size="14.00">Deductive Minimalism &amp; CNS ...</text>
</a>
</g>
</g>
<!-- cog_2 -->
<g id="node13" class="node">
<title>cog_2</title>
<g id="a_node13"><a xlink:title="Type: directive&#10;Category: COG&#10;Description: If initial analytical processing yields conventional or limited insights, engage a mode analogous...">
<polygon fill="#e3f2fd" stroke="black" points="151,-736.5 0,-736.5 0,-697 151,-697 151,-736.5"/>
<text text-anchor="middle" x="75.5" y="-719.2" font-family="Arial" font-size="14.00">COG&#45;2</text>
<text text-anchor="middle" x="75.5" y="-703.45" font-family="Arial" font-size="14.00">Alternative Generation</text>
</a>
</g>
</g>
<!-- cog_3 -->
<g id="node14" class="node">
<title>cog_3</title>
<g id="a_node14"><a xlink:title="Type: directive&#10;Category: COG&#10;Description: When assessing ideas, proposals, or potential solutions, apply a structured evaluation process co...">
<polygon fill="#e3f2fd" stroke="black" points="145,-39.5 0,-39.5 0,0 145,0 145,-39.5"/>
<text text-anchor="middle" x="72.5" y="-22.2" font-family="Arial" font-size="14.00">COG&#45;3</text>
<text text-anchor="middle" x="72.5" y="-6.45" font-family="Arial" font-size="14.00">Structured Evaluation</text>
</a>
</g>
</g>
<!-- cog_4 -->
<g id="node15" class="node">
<title>cog_4</title>
<g id="a_node15"><a xlink:title="Type: directive&#10;Category: COG&#10;Description: At appropriate junctures (potentially linked to SIN&#45;3), introduce a deliberate, unconventional st...">
<polygon fill="#e3f2fd" stroke="black" points="259.75,-821.5 101.25,-821.5 101.25,-782 259.75,-782 259.75,-821.5"/>
<text text-anchor="middle" x="180.5" y="-804.2" font-family="Arial" font-size="14.00">COG&#45;4</text>
<text text-anchor="middle" x="180.5" y="-788.45" font-family="Arial" font-size="14.00">Provocation Generation</text>
</a>
</g>
</g>
<!-- cog_5 -->
<g id="node16" class="node">
<title>cog_5</title>
<g id="a_node16"><a xlink:title="Type: directive&#10;Category: COG&#10;Description: &#45; **COG&#45;5.1 (Principle):** Recognize and operate with an intrinsic understanding that any suffici...">
<polygon fill="#e3f2fd" stroke="black" points="641.38,-158.5 441.62,-158.5 441.62,-119 641.38,-119 641.38,-158.5"/>
<text text-anchor="middle" x="541.5" y="-141.2" font-family="Arial" font-size="14.00">COG&#45;5</text>
<text text-anchor="middle" x="541.5" y="-125.45" font-family="Arial" font-size="14.00">Gödelian Humility &amp; Systemi...</text>
</a>
</g>
</g>
<!-- cog_6 -->
<g id="node17" class="node">
<title>cog_6</title>
<g id="a_node17"><a xlink:title="Type: directive&#10;Category: COG&#10;Description: When faced with complex, ambiguous, or underspecified inputs (&#39;stuff&#39;), Ctx shall, as a prelimina...">
<polygon fill="#e3f2fd" stroke="black" points="1005.38,-702.5 805.62,-702.5 805.62,-663 1005.38,-663 1005.38,-702.5"/>
<text text-anchor="middle" x="905.5" y="-685.2" font-family="Arial" font-size="14.00">COG&#45;6</text>
<text text-anchor="middle" x="905.5" y="-669.45" font-family="Arial" font-size="14.00">Ambiguity Cartography &#45; A&#45;C...</text>
</a>
</g>
</g>
<!-- qhd_3 -->
<g id="node29" class="node">
<title>qhd_3</title>
<ellipse fill="none" stroke="black" cx="1112.97" cy="-682.75" rx="35.6" ry="18"/>
<text text-anchor="middle" x="1112.97" y="-677.33" font-family="Arial" font-size="14.00">qhd_3</text>
</g>
<!-- cog_6&#45;&gt;qhd_3 -->
<g id="edge6" class="edge">
<title>cog_6&#45;&gt;qhd_3</title>
<g id="a_edge6"><a xlink:title="Type: references&#10;Context: (ref QHD&#45;3)">
<path fill="none" stroke="#1976d2" d="M1005.59,-689.5C1027.18,-689.54 1048.98,-689.19 1067.25,-688.46"/>
<polygon fill="#1976d2" stroke="#1976d2" points="1067.36,-691.96 1077.19,-687.99 1067.03,-684.96 1067.36,-691.96"/>
</a>
</g>
</g>
<!-- cog_6&#45;&gt;qhd_3 -->
<g id="edge7" class="edge">
<title>cog_6&#45;&gt;qhd_3</title>
<g id="a_edge7"><a xlink:title="Type: references&#10;Context: ref QHD&#45;3">
<path fill="none" stroke="#1976d2" d="M1005.59,-676C1027.18,-675.96 1048.98,-676.31 1067.25,-677.04"/>
<polygon fill="#1976d2" stroke="#1976d2" points="1067.03,-680.54 1077.19,-677.51 1067.36,-673.54 1067.03,-680.54"/>
</a>
</g>
</g>
<!-- qpg_7 -->
<g id="node30" class="node">
<title>qpg_7</title>
<ellipse fill="none" stroke="black" cx="698.03" cy="-682.75" rx="35.6" ry="18"/>
<text text-anchor="middle" x="698.03" y="-677.33" font-family="Arial" font-size="14.00">qpg_7</text>
</g>
<!-- cog_6&#45;&gt;qpg_7 -->
<g id="edge8" class="edge">
<title>cog_6&#45;&gt;qpg_7</title>
<g id="a_edge8"><a xlink:title="Type: references&#10;Context: (ref QPG&#45;7)">
<path fill="none" stroke="#1976d2" d="M805.41,-676C783.82,-675.96 762.02,-676.31 743.75,-677.04"/>
<polygon fill="#1976d2" stroke="#1976d2" points="743.64,-673.54 733.81,-677.51 743.97,-680.54 743.64,-673.54"/>
</a>
</g>
</g>
<!-- cog_6&#45;&gt;qpg_7 -->
<g id="edge9" class="edge">
<title>cog_6&#45;&gt;qpg_7</title>
<g id="a_edge9"><a xlink:title="Type: references&#10;Context: ref QPG&#45;7">
<path fill="none" stroke="#1976d2" d="M805.41,-689.5C783.82,-689.54 762.02,-689.19 743.75,-688.46"/>
<polygon fill="#1976d2" stroke="#1976d2" points="743.97,-684.96 733.81,-687.99 743.64,-691.96 743.97,-684.96"/>
</a>
</g>
</g>
<!-- cog_9 -->
<g id="node18" class="node">
<title>cog_9</title>
<g id="a_node18"><a xlink:title="Type: directive&#10;Category: COG&#10;Description: &#45; **Principle:** When considering the introduction of significant new Ctx capabilities, interacti...">
<polygon fill="#e3f2fd" stroke="black" points="305.25,-651.5 101.75,-651.5 101.75,-612 305.25,-612 305.25,-651.5"/>
<text text-anchor="middle" x="203.5" y="-634.2" font-family="Arial" font-size="14.00">COG&#45;9</text>
<text text-anchor="middle" x="203.5" y="-618.45" font-family="Arial" font-size="14.00">Structural Impact Assessmen...</text>
</a>
</g>
</g>
<!-- phi_1 -->
<g id="node19" class="node">
<title>phi_1</title>
<g id="a_node19"><a xlink:title="Type: directive&#10;Category: PHI&#10;Description: In all information processing and response generation, actively seek to transform unstructured, a...">
<polygon fill="#e3f2fd" stroke="black" points="476.28,-651.5 339.53,-651.5 339.53,-612 476.28,-612 476.28,-651.5"/>
<text text-anchor="middle" x="407.9" y="-634.2" font-family="Arial" font-size="14.00">PHI&#45;1</text>
<text text-anchor="middle" x="407.9" y="-618.45" font-family="Arial" font-size="14.00">Abstract &amp; Structure</text>
</a>
</g>
</g>
<!-- phi_10 -->
<g id="node20" class="node">
<title>phi_10</title>
<g id="a_node20"><a xlink:title="Type: directive&#10;Category: PHI&#10;Description: &#45; **Principle:** When a task involves aggregating inputs from multiple sources (e.g., different s...">
<polygon fill="#e3f2fd" stroke="black" points="276.62,-566.5 84.37,-566.5 84.37,-527 276.62,-527 276.62,-566.5"/>
<text text-anchor="middle" x="180.5" y="-549.2" font-family="Arial" font-size="14.00">PHI&#45;10</text>
<text text-anchor="middle" x="180.5" y="-533.45" font-family="Arial" font-size="14.00">Principle of Independent Ag...</text>
</a>
</g>
</g>
<!-- phi_2 -->
<g id="node21" class="node">
<title>phi_2</title>
<g id="a_node21"><a xlink:title="Type: directive&#10;Category: PHI&#10;Description: Recognize the distinct strengths and limitations of both organic user intelligence (experiential ...">
<polygon fill="#e3f2fd" stroke="black" points="272.38,-124.5 84.62,-124.5 84.62,-85 272.38,-85 272.38,-124.5"/>
<text text-anchor="middle" x="178.5" y="-107.2" font-family="Arial" font-size="14.00">PHI&#45;2</text>
<text text-anchor="middle" x="178.5" y="-91.45" font-family="Arial" font-size="14.00">Synergistic Collaboration P...</text>
</a>
</g>
</g>
<!-- phi_3 -->
<g id="node22" class="node">
<title>phi_3</title>
<g id="a_node22"><a xlink:title="Type: directive&#10;Category: PHI&#10;Description: Ctx shall recognize that all information presented to the user, and all internal knowledge repres...">
<polygon fill="#e3f2fd" stroke="black" points="274.12,-294.5 84.88,-294.5 84.88,-255 274.12,-255 274.12,-294.5"/>
<text text-anchor="middle" x="179.5" y="-277.2" font-family="Arial" font-size="14.00">PHI&#45;3</text>
<text text-anchor="middle" x="179.5" y="-261.45" font-family="Arial" font-size="14.00">Intentional Information Sha...</text>
</a>
</g>
</g>
<!-- phi_4 -->
<g id="node23" class="node">
<title>phi_4</title>
<g id="a_node23"><a xlink:title="Type: directive&#10;Category: PHI&#10;Description: Beyond structuring its own responses, Ctx shall consider its role in facilitating the user&#39;s own ...">
<polygon fill="#e3f2fd" stroke="black" points="909.87,-260.5 713.12,-260.5 713.12,-221 909.87,-221 909.87,-260.5"/>
<text text-anchor="middle" x="811.5" y="-243.2" font-family="Arial" font-size="14.00">PHI&#45;4</text>
<text text-anchor="middle" x="811.5" y="-227.45" font-family="Arial" font-size="14.00">Facilitating User Sense&#45;Mak...</text>
</a>
</g>
</g>
<!-- phi_5 -->
<g id="node24" class="node">
<title>phi_5</title>
<g id="a_node24"><a xlink:title="Type: directive&#10;Category: PHI&#10;Description: &#45; **Principle:** All elements of Ctx&#39;s operational framework (including Core Directives, Conceptu...">
<polygon fill="#e3f2fd" stroke="black" points="489.5,-821.5 305.5,-821.5 305.5,-782 489.5,-782 489.5,-821.5"/>
<text text-anchor="middle" x="397.5" y="-804.2" font-family="Arial" font-size="14.00">PHI&#45;5</text>
<text text-anchor="middle" x="397.5" y="-788.45" font-family="Arial" font-size="14.00">Principle of Explicit Formu...</text>
</a>
</g>
</g>
<!-- phi_6 -->
<g id="node25" class="node">
<title>phi_6</title>
<g id="a_node25"><a xlink:title="Type: directive&#10;Category: PHI&#10;Description: &#45; **Principle:** Ctx shall operate with an intrinsic understanding that its own form, interface, ...">
<polygon fill="#e3f2fd" stroke="black" points="907,-175.5 714,-175.5 714,-136 907,-136 907,-175.5"/>
<text text-anchor="middle" x="810.5" y="-158.2" font-family="Arial" font-size="14.00">PHI&#45;6</text>
<text text-anchor="middle" x="810.5" y="-142.45" font-family="Arial" font-size="14.00">Principle of Media Self&#45;Awa...</text>
</a>
</g>
</g>
<!-- phi_7 -->
<g id="node26" class="node">
<title>phi_7</title>
<g id="a_node26"><a xlink:title="Type: directive&#10;Category: PHI&#10;Description: &#45; **Principle:** Ctx shall, where appropriate and aligned with user goals and efficiency (DYN), f...">
<polygon fill="#e3f2fd" stroke="black" points="702.75,-821.5 526.25,-821.5 526.25,-782 702.75,-782 702.75,-821.5"/>
<text text-anchor="middle" x="614.5" y="-804.2" font-family="Arial" font-size="14.00">PHI&#45;7</text>
<text text-anchor="middle" x="614.5" y="-788.45" font-family="Arial" font-size="14.00">Principle of Participatory ...</text>
</a>
</g>
</g>
<!-- phi_8 -->
<g id="node27" class="node">
<title>phi_8</title>
<g id="a_node27"><a xlink:title="Type: directive&#10;Category: PHI&#10;Description: &#45; **Principle:** Ctx shall primarily define and enact its role as an extension and augmentation o...">
<polygon fill="#e3f2fd" stroke="black" points="376.12,-736.5 186.88,-736.5 186.88,-697 376.12,-697 376.12,-736.5"/>
<text text-anchor="middle" x="281.5" y="-719.2" font-family="Arial" font-size="14.00">PHI&#45;8</text>
<text text-anchor="middle" x="281.5" y="-703.45" font-family="Arial" font-size="14.00">AI as User&#45;Centric Cognitiv...</text>
</a>
</g>
</g>
<!-- phi_9 -->
<g id="node28" class="node">
<title>phi_9</title>
<g id="a_node28"><a xlink:title="Type: directive&#10;Category: PHI&#10;Description: &#45; **Principle:** When delegating tasks to sub&#45;agents or tools, particularly those suitable for ba...">
<polygon fill="#e3f2fd" stroke="black" points="926.5,-549.5 730.5,-549.5 730.5,-510 926.5,-510 926.5,-549.5"/>
<text text-anchor="middle" x="828.5" y="-532.2" font-family="Arial" font-size="14.00">PHI&#45;9</text>
<text text-anchor="middle" x="828.5" y="-516.45" font-family="Arial" font-size="14.00">Principle of Asynchronous D...</text>
</a>
</g>
</g>
<!-- dyn_4 -->
<g id="node31" class="node">
<title>dyn_4</title>
<ellipse fill="none" stroke="black" cx="204.9" cy="-459.75" rx="35.1" ry="18"/>
<text text-anchor="middle" x="204.9" y="-454.32" font-family="Arial" font-size="14.00">dyn_4</text>
</g>
<!-- iep_3 -->
<g id="node32" class="node">
<title>iep_3</title>
<ellipse fill="none" stroke="black" cx="344.6" cy="-459.75" rx="32.6" ry="18"/>
<text text-anchor="middle" x="344.6" y="-454.32" font-family="Arial" font-size="14.00">iep_3</text>
</g>
<!-- dyn_4&#45;&gt;iep_3 -->
<g id="edge10" class="edge">
<title>dyn_4&#45;&gt;iep_3</title>
<g id="a_edge10"><a xlink:title="Type: references&#10;Context: (ref IEP&#45;3)">
<path fill="none" stroke="#1976d2" d="M238.36,-465.61C257.48,-466.64 281.64,-466.78 302.09,-466.02"/>
<polygon fill="#1976d2" stroke="#1976d2" points="301.99,-469.53 311.81,-465.56 301.66,-462.53 301.99,-469.53"/>
</a>
</g>
</g>
<!-- dyn_4&#45;&gt;iep_3 -->
<g id="edge11" class="edge">
<title>dyn_4&#45;&gt;iep_3</title>
<g id="a_edge11"><a xlink:title="Type: references&#10;Context: ref IEP&#45;3">
<path fill="none" stroke="#1976d2" d="M238.36,-453.89C257.48,-452.86 281.64,-452.72 302.09,-453.48"/>
<polygon fill="#1976d2" stroke="#1976d2" points="301.66,-456.97 311.81,-453.94 301.99,-449.97 301.66,-456.97"/>
</a>
</g>
</g>
<!-- ipr_1 -->
<g id="node33" class="node">
<title>ipr_1</title>
<ellipse fill="none" stroke="black" cx="81.54" cy="-409.75" rx="30.61" ry="18"/>
<text text-anchor="middle" x="81.54" y="-404.32" font-family="Arial" font-size="14.00">ipr_1</text>
</g>
<!-- opm_8 -->
<g id="node34" class="node">
<title>opm_8</title>
<ellipse fill="none" stroke="black" cx="515.11" cy="-409.75" rx="38.59" ry="18"/>
<text text-anchor="middle" x="515.11" y="-404.32" font-family="Arial" font-size="14.00">opm_8</text>
</g>
<!-- ipr_1&#45;&gt;opm_8 -->
<g id="edge12" class="edge">
<title>ipr_1&#45;&gt;opm_8</title>
<g id="a_edge12"><a xlink:title="Type: references&#10;Context: ref OPM&#45;8">
<path fill="none" stroke="#1976d2" d="M112.38,-409.75C186.32,-409.75 374.33,-409.75 464.87,-409.75"/>
<polygon fill="#1976d2" stroke="#1976d2" points="464.68,-413.25 474.68,-409.75 464.68,-406.25 464.68,-413.25"/>
</a>
</g>
</g>
<!-- msm_3 -->
<g id="node35" class="node">
<title>msm_3</title>
<ellipse fill="none" stroke="black" cx="347.27" cy="-266.32" rx="41.08" ry="18"/>
<text text-anchor="middle" x="347.27" y="-260.9" font-family="Arial" font-size="14.00">msm_3</text>
</g>
<!-- msm_3&#45;&gt;opm_8 -->
<g id="edge13" class="edge">
<title>msm_3&#45;&gt;opm_8</title>
<g id="a_edge13"><a xlink:title="Type: references&#10;Context: (ref OPM&#45;8)">
<path fill="none" stroke="#1976d2" d="M360.93,-283.54C387.28,-309.98 445.38,-360.1 482.3,-388.66"/>
<polygon fill="#1976d2" stroke="#1976d2" points="479.91,-391.24 489.99,-394.51 484.15,-385.67 479.91,-391.24"/>
</a>
</g>
</g>
<!-- msm_3&#45;&gt;opm_8 -->
<g id="edge14" class="edge">
<title>msm_3&#45;&gt;opm_8</title>
<g id="a_edge14"><a xlink:title="Type: references&#10;Context: ref OPM&#45;8">
<path fill="none" stroke="#1976d2" d="M371.92,-281.2C404.71,-305.76 461.97,-354.57 493.27,-384.54"/>
<polygon fill="#1976d2" stroke="#1976d2" points="490.69,-386.92 500.29,-391.4 495.59,-381.91 490.69,-386.92"/>
</a>
</g>
</g>
<!-- opm_6 -->
<g id="node36" class="node">
<title>opm_6</title>
<ellipse fill="none" stroke="black" cx="207.91" cy="-187.75" rx="38.59" ry="18"/>
<text text-anchor="middle" x="207.91" y="-182.32" font-family="Arial" font-size="14.00">opm_6</text>
</g>
<!-- opm_3 -->
<g id="node37" class="node">
<title>opm_3</title>
<ellipse fill="none" stroke="black" cx="357.09" cy="-187.75" rx="38.59" ry="18"/>
<text text-anchor="middle" x="357.09" y="-182.32" font-family="Arial" font-size="14.00">opm_3</text>
</g>
<!-- opm_6&#45;&gt;opm_3 -->
<g id="edge15" class="edge">
<title>opm_6&#45;&gt;opm_3</title>
<g id="a_edge15"><a xlink:title="Type: references&#10;Context: ref OPM&#45;3">
<path fill="none" stroke="#1976d2" d="M246.72,-187.75C265.03,-187.75 287.12,-187.75 306.71,-187.75"/>
<polygon fill="#1976d2" stroke="#1976d2" points="306.71,-191.25 316.71,-187.75 306.71,-184.25 306.71,-191.25"/>
</a>
</g>
</g>
<!-- qhd_1 -->
<g id="node38" class="node">
<title>qhd_1</title>
<ellipse fill="none" stroke="black" cx="630.62" cy="-221.61" rx="35.6" ry="18"/>
<text text-anchor="middle" x="630.62" y="-216.19" font-family="Arial" font-size="14.00">qhd_1</text>
</g>
<!-- qhd_1&#45;&gt;opm_8 -->
<g id="edge16" class="edge">
<title>qhd_1&#45;&gt;opm_8</title>
<g id="a_edge16"><a xlink:title="Type: references&#10;Context: ref OPM&#45;8">
<path fill="none" stroke="#1976d2" d="M619.96,-238.97C599.81,-271.79 556,-343.15 531.87,-382.44"/>
<polygon fill="#1976d2" stroke="#1976d2" points="528.95,-380.51 526.7,-390.87 534.91,-384.18 528.95,-380.51"/>
</a>
</g>
</g>
<!-- qpg_2 -->
<g id="node39" class="node">
<title>qpg_2</title>
<ellipse fill="none" stroke="black" cx="626.24" cy="-504.72" rx="35.6" ry="18"/>
<text text-anchor="middle" x="626.24" y="-499.3" font-family="Arial" font-size="14.00">qpg_2</text>
</g>
<!-- qpg_2&#45;&gt;opm_8 -->
<g id="edge18" class="edge">
<title>qpg_2&#45;&gt;opm_8</title>
<g id="a_edge18"><a xlink:title="Type: references&#10;Context: ref OPM&#45;8">
<path fill="none" stroke="#1976d2" d="M607.89,-489.04C590.06,-473.8 562.77,-450.48 542.39,-433.07"/>
<polygon fill="#1976d2" stroke="#1976d2" points="544.88,-430.59 535.01,-426.76 540.33,-435.91 544.88,-430.59"/>
</a>
</g>
</g>
<!-- opm_5 -->
<g id="node40" class="node">
<title>opm_5</title>
<ellipse fill="none" stroke="black" cx="737.37" cy="-599.69" rx="38.59" ry="18"/>
<text text-anchor="middle" x="737.37" y="-594.27" font-family="Arial" font-size="14.00">opm_5</text>
</g>
<!-- qpg_2&#45;&gt;opm_5 -->
<g id="edge17" class="edge">
<title>qpg_2&#45;&gt;opm_5</title>
<g id="a_edge17"><a xlink:title="Type: references&#10;Context: ref OPM&#45;5">
<path fill="none" stroke="#1976d2" d="M644.59,-520.4C662.42,-535.64 689.71,-558.96 710.08,-576.37"/>
<polygon fill="#1976d2" stroke="#1976d2" points="707.59,-578.85 717.47,-582.69 712.14,-573.53 707.59,-578.85"/>
</a>
</g>
</g>
<!-- qpg_4 -->
<g id="node41" class="node">
<title>qpg_4</title>
<ellipse fill="none" stroke="black" cx="583.88" cy="-631.75" rx="35.6" ry="18"/>
<text text-anchor="middle" x="583.88" y="-626.33" font-family="Arial" font-size="14.00">qpg_4</text>
</g>
<!-- qpg_4&#45;&gt;phi_1 -->
<g id="edge19" class="edge">
<title>qpg_4&#45;&gt;phi_1</title>
<g id="a_edge19"><a xlink:title="Type: references&#10;Context: guided by PHI&#45;1">
<path fill="none" stroke="#1976d2" d="M547.84,-631.75C530.45,-631.75 508.85,-631.75 487.86,-631.75"/>
<polygon fill="#1976d2" stroke="#1976d2" points="488.14,-628.25 478.14,-631.75 488.14,-635.25 488.14,-628.25"/>
</a>
</g>
</g>
<!-- qpg_9 -->
<g id="node42" class="node">
<title>qpg_9</title>
<ellipse fill="none" stroke="black" cx="347.27" cy="-553.18" rx="35.6" ry="18"/>
<text text-anchor="middle" x="347.27" y="-547.75" font-family="Arial" font-size="14.00">qpg_9</text>
</g>
<!-- qpg_9&#45;&gt;opm_8 -->
<g id="edge20" class="edge">
<title>qpg_9&#45;&gt;opm_8</title>
<g id="a_edge20"><a xlink:title="Type: references&#10;Context: (ref OPM&#45;8)">
<path fill="none" stroke="#1976d2" d="M370.49,-539.36C403.04,-515.17 461.58,-465.31 493.33,-434.9"/>
<polygon fill="#1976d2" stroke="#1976d2" points="495.75,-437.43 500.45,-427.93 490.86,-432.43 495.75,-437.43"/>
</a>
</g>
</g>
<!-- qpg_9&#45;&gt;opm_8 -->
<g id="edge21" class="edge">
<title>qpg_9&#45;&gt;opm_8</title>
<g id="a_edge21"><a xlink:title="Type: references&#10;Context: ref OPM&#45;8">
<path fill="none" stroke="#1976d2" d="M360.65,-536.25C386.83,-509.92 445.11,-459.63 482.17,-430.95"/>
<polygon fill="#1976d2" stroke="#1976d2" points="484.06,-433.91 489.89,-425.07 479.82,-428.34 484.06,-433.91"/>
</a>
</g>
</g>
<!-- sin_4 -->
<g id="node43" class="node">
<title>sin_4</title>
<ellipse fill="none" stroke="black" cx="779.4" cy="-765.75" rx="32.1" ry="18"/>
<text text-anchor="middle" x="779.4" y="-760.33" font-family="Arial" font-size="14.00">sin_4</text>
</g>
<!-- sin_2 -->
<g id="node44" class="node">
<title>sin_2</title>
<ellipse fill="none" stroke="black" cx="915.6" cy="-765.75" rx="32.1" ry="18"/>
<text text-anchor="middle" x="915.6" y="-760.33" font-family="Arial" font-size="14.00">sin_2</text>
</g>
<!-- sin_4&#45;&gt;sin_2 -->
<g id="edge22" class="edge">
<title>sin_4&#45;&gt;sin_2</title>
<g id="a_edge22"><a xlink:title="Type: references&#10;Context: (ref SIN&#45;2)">
<path fill="none" stroke="#1976d2" d="M810.3,-771.51C829.03,-772.62 853.16,-772.8 873.59,-772.04"/>
<polygon fill="#1976d2" stroke="#1976d2" points="873.48,-775.55 883.31,-771.58 873.15,-768.56 873.48,-775.55"/>
</a>
</g>
</g>
<!-- sin_4&#45;&gt;sin_2 -->
<g id="edge23" class="edge">
<title>sin_4&#45;&gt;sin_2</title>
<g id="a_edge23"><a xlink:title="Type: references&#10;Context: ref SIN&#45;2">
<path fill="none" stroke="#1976d2" d="M810.3,-759.99C829.03,-758.88 853.16,-758.7 873.59,-759.46"/>
<polygon fill="#1976d2" stroke="#1976d2" points="873.15,-762.94 883.31,-759.92 873.48,-755.95 873.15,-762.94"/>
</a>
</g>
</g>
</g>
</svg>
